<?xml version="1.0" encoding="utf-8"?>
<!-- Generator: Adobe Illustrator 18.1.1, SVG Export Plug-In . SVG Version: 6.00 Build 0)  -->
<svg version="1.1" id="Layer_1" xmlns:sketch="http://www.bohemiancoding.com/sketch/ns"
	 xmlns="http://www.w3.org/2000/svg" xmlns:xlink="http://www.w3.org/1999/xlink" x="0px" y="0px" viewBox="0 -55 310 71.4"
	 enable-background="new 0 -55 310 71.4" xml:space="preserve">
<title>delta</title>
<desc>Created with Sketch.</desc>
<g id="Welcome" sketch:type="MSPage">
	<g id="Desktop-HD---Why-Us" transform="translate(-107.000000, -893.000000)" sketch:type="MSArtboardGroup">
		<g id="delta" transform="translate(107.000000, 893.000000)" sketch:type="MSLayerGroup">
			<rect id="Rectangle-84" y="58.3" sketch:type="MSShapeGroup" fill="none" width="25" height="8.6">
			</rect>
		</g>
	</g>
</g>
<g>
	<rect x="16.8" y="-22" fill="#767578" width="10.1" height="10.1"/>
	<rect x="46" y="-22" fill="#767578" width="10.1" height="10.1"/>
	<rect x="76.5" y="-22" fill="#767578" width="10.1" height="10.1"/>
	<rect x="106.4" y="-22" fill="#767578" width="10.1" height="10.1"/>
	<path fill="#767578" stroke="#767578" stroke-width="0.4427" d="M167.4-41.8c-1,0.1-1.8,0.3-2.5,0.5c-0.6,0.3-1.2,0.8-1.7,1.5
		c-0.4,0.5-0.7,1-0.9,1.6c-0.2,0.6-0.3,1.4-0.4,2.3c-0.1,1.2-0.2,2.7-0.2,4.3v25.9c0,2.4,0.1,4.2,0.3,5.4c0.2,1.2,0.6,2.1,1.2,2.8
		c1,1.2,2.4,1.9,4.2,2v0.8h-17.1V4.5c1-0.1,1.9-0.3,2.5-0.6c0.6-0.3,1.2-0.8,1.7-1.5c0.6-0.7,0.9-1.7,1.1-2.9
		c0.2-1.2,0.3-2.9,0.3-5.3v-31.4L142.1,5.3h-0.6l-13.7-41.7v30.8c0,2.4,0.1,4.2,0.3,5.3c0.2,1.1,0.6,2.1,1.1,2.8
		c0.5,0.7,1.1,1.2,1.7,1.5c0.6,0.3,1.5,0.5,2.5,0.6v0.8h-12.4V4.5c1-0.1,1.8-0.3,2.5-0.6c0.6-0.3,1.2-0.8,1.7-1.5
		c0.6-0.7,0.9-1.7,1.1-2.9c0.2-1.2,0.3-2.9,0.3-5.3v-25.9c0-1.1,0-2.1-0.1-3.1c-0.1-1.7-0.3-3-0.6-3.8c-0.4-1.1-1.1-1.9-1.8-2.4
		c-0.8-0.5-1.8-0.8-3.1-0.9v-0.8h11.6l11.6,37.5l12-37.5h11V-41.8z"/>
	<path fill="#767578" stroke="#767578" stroke-width="0.491" d="M169.6-11.4c0-4.1,1.2-7.8,3.6-11c3-3.9,6.5-5.9,10.6-5.9
		c4.1,0,7.6,2,10.6,5.9c2.4,3.2,3.6,6.9,3.6,11c0,4.1-1.2,7.7-3.5,10.8c-2.8,3.9-6.4,5.9-10.7,5.9c-4.3,0-7.9-2-10.8-5.9
		c-1.1-1.5-2-3.2-2.6-5.1C169.9-7.5,169.6-9.4,169.6-11.4z M175.1-11.8c0,4.4,0.8,8.1,2.4,11.2c1.8,3.4,4,5.1,6.5,5.1
		c1.1,0,2.2-0.4,3.2-1.1c1-0.8,1.9-1.8,2.7-3.2c0.8-1.4,1.4-3.2,1.9-5.3c0.5-2.1,0.7-4.2,0.7-6.2c0-2.1-0.3-4.2-0.8-6.3
		s-1.2-3.9-2.1-5.4c-1.7-2.9-3.7-4.3-6.1-4.3c-2.3,0-4.3,1.5-5.9,4.5C175.9-19.8,175.1-16.2,175.1-11.8z"/>
	<path fill="#767578" stroke="#767578" stroke-width="0.4667" d="M209.3-20.6c0.8-1.2,1.7-2.1,2.4-2.6c1.6-1.1,3.4-1.7,5.6-1.7
		c3.1,0,5.7,1.1,8,3.3c2.8,2.7,4.2,6.6,4.2,11.5c0,5-1.4,8.9-4.1,11.7c-2.3,2.5-5.3,3.7-9,3.7c-1.9,0-3.5-0.3-4.9-0.9l-1.7-0.8
		c-0.5-0.2-0.9-0.3-1.2-0.3c-1,0-1.9,1-2.7,2.9h-1.2v-40.4c0-2.6-0.4-4.4-1.1-5.5c-0.7-1.1-1.9-1.7-3.6-1.7v-0.8l9.3-1.4V-20.6z
		 M209.3-10.2c0,2.4,0.1,4.7,0.4,6.8c0.2,2.1,0.6,3.6,0.9,4.5c0.5,1.1,1.1,2,2.1,2.6c0.9,0.6,2,1,3.1,1c2.5,0,4.5-1.3,6.1-4
		c1.6-2.7,2.4-6,2.4-10.1c0-2.2-0.3-4.2-0.8-6.1c-0.5-1.9-1.3-3.6-2.2-4.9c-0.8-1.1-1.6-2-2.5-2.6c-0.9-0.6-1.9-0.9-2.8-0.9
		c-1.2,0-2.2,0.4-3.3,1.2c-1,0.8-1.7,1.9-2.2,3.2C209.7-17.6,209.3-14.5,209.3-10.2z"/>
	<path fill="#767578" stroke="#767578" stroke-width="0.4667" d="M235.4-23.6l8.8-1.2v19.8l0,2.6c0,1.6,0.1,2.7,0.2,3.4
		c0.2,0.7,0.5,1.3,0.9,1.8c0.6,0.6,1.6,1.1,3.1,1.4v0.7h-13.4V4.2c1.2-0.2,2.1-0.4,2.6-0.8c0.5-0.3,1-0.9,1.3-1.7
		c0.2-0.5,0.4-1.3,0.5-2.4c0.1-1.1,0.1-2.6,0.1-4.6v-8.5c0-2.4-0.1-4-0.2-5c-0.1-0.9-0.3-1.7-0.7-2.3c-0.3-0.6-0.8-1.1-1.3-1.4
		c-0.5-0.3-1.2-0.5-2.1-0.5V-23.6z M241.8-37.2c-0.8,0-1.5-0.3-2-0.9c-0.5-0.6-0.8-1.3-0.8-2.2c0-0.8,0.3-1.6,0.8-2.1
		c0.5-0.6,1.2-0.9,2-0.9c0.8,0,1.4,0.3,2,0.9c0.5,0.6,0.8,1.3,0.8,2.1c0,0.9-0.3,1.6-0.8,2.2C243.2-37.5,242.6-37.2,241.8-37.2z"/>
	<path fill="#767578" stroke="#767578" stroke-width="0.4667" d="M252.5-42.3l8.8-1.2v38.4l0,2.6c0,1.6,0.1,2.7,0.2,3.4
		c0.2,0.7,0.5,1.3,0.9,1.8c0.6,0.6,1.6,1.1,3.1,1.4v0.7h-13.4V4.2c1.2-0.2,2.1-0.4,2.6-0.8c0.5-0.3,1-0.9,1.3-1.7
		c0.2-0.5,0.4-1.3,0.5-2.4c0.1-1.1,0.1-2.6,0.1-4.6v-27c0-2.3-0.1-4-0.2-5c-0.1-1-0.3-1.7-0.7-2.3c-0.3-0.6-0.8-1.1-1.3-1.4
		c-0.5-0.3-1.2-0.4-2.1-0.5V-42.3z"/>
	<path fill="#767578" stroke="#767578" stroke-width="0.4814" d="M274.8-15.2c-0.1,1.2-0.1,2.1-0.1,2.6c0,2.1,0.3,4.2,0.8,6.2
		c0.5,2,1.2,3.7,2.1,5.1c0.9,1.4,2,2.4,3.4,3.2c1.3,0.8,2.7,1.2,4.2,1.2c1.1,0,2.1-0.2,3.1-0.7c1-0.4,1.8-1.1,2.4-1.9
		c0.7-0.9,1.3-2.2,1.9-4.1l0.6,0.3c-0.5,2.9-1.7,5-3.4,6.5c-1.7,1.5-4,2.2-6.9,2.2c-2.5,0-4.6-0.5-6.4-1.4c-1.8-0.9-3.3-2.4-4.5-4.4
		c-1.7-2.8-2.6-6.1-2.6-10.2c0-5.5,1.6-9.8,4.9-12.9c2.4-2.3,5.1-3.4,8.1-3.4c1.6,0,3.1,0.3,4.5,1c1.4,0.7,2.5,1.7,3.5,3
		c1.5,2,2.2,4.6,2.2,7.6H274.8z M288-16.6c-0.1-2.4-0.5-4.3-1.1-5.6c-0.5-1.2-1.3-2.1-2.2-2.8c-0.9-0.7-1.9-1-2.9-1
		c-1.7,0-3.2,0.9-4.5,2.7c-1.3,1.8-2.1,4.1-2.3,6.8H288z"/>
	<path fill="#EC1B67" d="M40.9,1.3h7.7v3.9H25.5V1.3h7.7v-43.8c0,0-12.8,0-12.8,16.7h-2.6v-19.2h38.6v19.2h-2.6
		c0,0-0.6-16.7-12.8-16.7V1.3z"/>
</g>
</svg>
