<?xml version="1.0" encoding="utf-8"?>
<!-- Generator: Adobe Illustrator 18.1.0, SVG Export Plug-In . SVG Version: 6.00 Build 0)  -->
<!DOCTYPE svg PUBLIC "-//W3C//DTD SVG 1.1//EN" "http://www.w3.org/Graphics/SVG/1.1/DTD/svg11.dtd">
<svg version="1.1" id="Layer_1" xmlns:sketch="http://www.bohemiancoding.com/sketch/ns"
	 xmlns="http://www.w3.org/2000/svg" xmlns:xlink="http://www.w3.org/1999/xlink" x="0px" y="0px" viewBox="-951 3197.7 365 125"
	 enable-background="new -951 3197.7 365 125" xml:space="preserve">
<title>uber</title>
<desc>Created with Sketch.</desc>
<rect id="Rectangle-84" x="-951" y="3197.7" sketch:type="MSShapeGroup" fill="#FFFFFF" width="365" height="125">
</rect>
<path id="Fill-1" fill="#414141" d="M-659.1,3271.5c-1,1.1-2.1,0.6-2.4,0.3l-6.9-8.7h0.4c13.2-2.8,9.9-18.6-1-18.8h-22.6v30.9h3.6
	V3265c0-1.3,0.5-1.9,1.9-1.9h13.1l9,11.3c1.8,1.6,5,2.2,7.1,0L-659.1,3271.5L-659.1,3271.5z M-686.3,3259.7c-1.3,0-1.6,0.7-1.6,0.7
	v-12.7h19c8,0.3,8.3,11.6,0,12H-686.3L-686.3,3259.7z"/>
<path id="Fill-2" fill="#414141" d="M-723.9,3244.3h-28.5v30.9h29.5v-3.5h-25.9v-8.8c0-1.3,0.5-1.9,1.9-1.9h15.4v-3.4h-15.7
	c-1.3,0-1.6,0.7-1.6,0.7v-10.5h24.9V3244.3"/>
<path id="Fill-3" fill="#414141" d="M-787.8,3259.3c6.2-4.6,3.5-14-4.3-15h-23.6v30.9h23.6C-784.5,3274.2-780.7,3264.5-787.8,3259.3
	L-787.8,3259.3z M-812.1,3247.7h19.6c6.3,0.7,6.1,9.3,0,9.8h-18c-1.3,0-1.6,0.7-1.6,0.7V3247.7L-812.1,3247.7z M-792.4,3271.6h-19.6
	v-8.8c0-1.3,0.5-1.9,1.9-1.9h17.7C-785.7,3261.8-785.9,3270.9-792.4,3271.6L-792.4,3271.6z"/>
<path id="Fill-4" fill="#414141" d="M-860.8,3275.8c2.6,0,13.5-1.7,13.5-11.9v-19.6h-3.6v18.8c0,9.1-10.1,8.6-10.1,8.6h-3.2
	c0,0-10.1,0.4-10.1-8.6v-13.5c0-2.8-2.2-5.3-5.7-5.3v3.5c1.4,0,2.1,1.3,2.1,2.3v13.7c0,10.2,10.9,11.9,13.5,11.9H-860.8"/>
</svg>
