<?xml version="1.0" encoding="utf-8"?>
<!-- Generator: Adobe Illustrator 18.1.0, SVG Export Plug-In . SVG Version: 6.00 Build 0)  -->
<!DOCTYPE svg PUBLIC "-//W3C//DTD SVG 1.1//EN" "http://www.w3.org/Graphics/SVG/1.1/DTD/svg11.dtd">
<svg version="1.1" id="Layer_1" xmlns:sketch="http://www.bohemiancoding.com/sketch/ns"
	 xmlns="http://www.w3.org/2000/svg" xmlns:xlink="http://www.w3.org/1999/xlink" x="0px" y="0px" viewBox="-951 3197.7 365 125"
	 enable-background="new -951 3197.7 365 125" xml:space="preserve">
<title>brussels-airport</title>
<desc>Created with Sketch.</desc>
<rect id="Rectangle-84" x="-951" y="3197.7" sketch:type="MSShapeGroup" fill="#FFFFFF" width="365" height="125">
</rect>
<g>
	<path id="Fill-1" fill="#262626" d="M-883.1,3262.3c0-3.4-2.2-5.9-5.1-6.5c2.2-1,3.7-2.9,3.7-6c0-3.9-2.6-6.6-8.5-6.6h-9.2v28
		c2.6,0,5.2,0.1,7.5,0.1C-886.5,3271.3-883.1,3267.2-883.1,3262.3L-883.1,3262.3z M-896.7,3247.1h2.7c2.7,0,3.9,1.5,3.9,3.5
		c0,2-1.2,4-4.5,4h-2.1V3247.1L-896.7,3247.1z M-896.7,3258.4h2.6c3.8,0,5.2,1.9,5.2,4.3c0,2.7-1.4,4.6-4.9,4.6
		c-0.9,0-2.2-0.1-2.8-0.2V3258.4L-896.7,3258.4z"/>
	<path id="Fill-2" fill="#262626" d="M-867.5,3250.5c-0.7-0.3-1.4-0.5-2-0.5c-1.5,0-2.9,0.9-5,3.6l-0.4-3.2h-4.4v20.8h5.3V3258
		c1.9-2.4,2.8-3.2,4-3.2c0.4,0,0.9,0,1.8,0.3L-867.5,3250.5"/>
	<path id="Fill-3" fill="#262626" d="M-858.6,3271.7c2.4,0,4.5-1,6.3-2.7l0.4,2.2h4.3v-20.8h-5.3v15.3c-1.4,1-2.7,1.7-3.8,1.7
		c-1.9,0-2.8-1.2-2.8-6.1c0-2.5,0.1-6.7,0.1-10.9h-5.3c0,4.6-0.1,9.2-0.1,11.8C-864.9,3269-862.8,3271.7-858.6,3271.7"/>
	<path id="Fill-4" fill="#262626" d="M-838.7,3267.9c-1.3,0-2.7-0.2-5-0.7l-0.5,2.8c2,1.1,4.1,1.7,6.4,1.7c5.3,0,8.4-2.8,8.4-6.6
		c0-3-1.5-4.9-5.6-6.3c-2.9-1.1-3.6-1.7-3.6-2.9c0-1.2,0.9-2.2,3.1-2.2c1.2,0,2.4,0.2,4.1,0.6l0.6-2.7c-2.1-1.1-3.9-1.5-5.8-1.5
		c-4.5,0-7.5,2.5-7.5,6.3c0,3,1.5,4.7,5.5,6.1c3,1.1,3.7,1.8,3.7,3.2C-835,3266.8-836,3267.9-838.7,3267.9"/>
	<path id="Fill-5" fill="#262626" d="M-812.5,3265c0-3-1.5-4.9-5.6-6.3c-2.9-1.1-3.6-1.7-3.6-2.9c0-1.2,0.9-2.2,3.1-2.2
		c1.2,0,2.4,0.2,4.1,0.6l0.6-2.7c-2.1-1.1-3.9-1.5-5.8-1.5c-4.5,0-7.5,2.5-7.5,6.3c0,3,1.5,4.7,5.5,6.1c3,1.1,3.7,1.8,3.7,3.2
		c0,1.2-1,2.3-3.8,2.3c-1.3,0-2.7-0.2-5-0.7l-0.5,2.8c2,1.1,4.1,1.7,6.4,1.7C-815.6,3271.6-812.5,3268.8-812.5,3265"/>
	<path id="Fill-6" fill="#262626" d="M-792.6,3269.5l-0.7-3.1c-2.4,0.8-4.9,1.2-6.7,1.2c-2.9,0-4.6-1.6-4.6-5.4v-0.3h12.2
		c0.5-8.9-3-11.9-8.2-11.9c-5.8,0-9.4,4-9.4,11.4c0,7.6,3.5,10.3,9,10.3C-798.1,3271.7-795.2,3270.8-792.6,3269.5L-792.6,3269.5z
		 M-801,3253.5c2.2,0,3.4,1.6,3.4,4.9v0.1h-7.1C-804.5,3255.7-803.3,3253.5-801,3253.5L-801,3253.5z"/>
	<path id="Fill-7" fill="#262626" d="M-782,3267.9c-1.1,0-1.4-0.3-1.4-2.7v-23.4h-5.3v25.5c0,3.4,1.4,4.2,4.1,4.2
		c1.6,0,2.9-0.2,4-0.5l-0.2-3.2C-781.2,3267.9-781.6,3267.9-782,3267.9"/>
	<path id="Fill-8" fill="#262626" d="M-769.3,3258.7c-2.9-1.1-3.6-1.7-3.6-2.9c0-1.2,0.9-2.2,3.1-2.2c1.2,0,2.4,0.2,4.1,0.6l0.6-2.7
		c-2.1-1.1-3.9-1.5-5.8-1.5c-4.5,0-7.5,2.5-7.5,6.3c0,3,1.5,4.7,5.5,6.1c3,1.1,3.7,1.8,3.7,3.2c0,1.2-1,2.3-3.8,2.3
		c-1.3,0-2.7-0.2-5-0.7l-0.5,2.8c2,1.1,4.1,1.7,6.4,1.7c5.3,0,8.4-2.8,8.4-6.6C-763.7,3262-765.2,3260.1-769.3,3258.7"/>
	<path id="Fill-9" fill="#262626" d="M-740.7,3265.7c0.4,1.6,0.9,3.9,1.2,5.5h6c-2.2-9.4-4.7-18.4-7.9-28h-7.3
		c-2.9,9-5.7,18.7-7.7,28h5.3c0.3-1.9,0.8-3.9,1.2-5.5H-740.7L-740.7,3265.7z M-745.5,3248.2c1.4,4.3,2.7,9,3.8,13.4h-7.4
		C-748,3257.3-746.6,3252.1-745.5,3248.2L-745.5,3248.2z"/>
	<path id="Fill-10" fill="#262626" d="M-728.1,3247.8c2.5,0,3.1-0.7,3.1-2.8c0-2.2-0.6-2.8-3.1-2.8c-2.5,0-3.2,0.7-3.2,2.8
		C-731.3,3247.1-730.7,3247.8-728.1,3247.8"/>
	<path id="Fill-11" fill="#262626" d="M-730.8,3250.4h5.3v20.8h-5.3V3250.4z"/>
	<path id="Fill-12" fill="#262626" d="M-715.5,3258c1.9-2.4,2.8-3.2,4-3.2c0.4,0,0.9,0,1.8,0.3l0.7-4.7c-0.7-0.3-1.4-0.5-2-0.5
		c-1.5,0-2.9,0.9-5,3.6l-0.4-3.2h-4.4v20.8h5.3V3258"/>
	<path id="Fill-13" fill="#262626" d="M-695.7,3250c-2.1,0-4,1-5.7,2.6l-0.4-2.1h-4.3v28h5.3v-6.8c0.7,0.1,1.6,0.1,2.2,0.1
		c5.9,0,10.3-3.5,10.3-11.7C-688.4,3254.5-690.8,3250-695.7,3250L-695.7,3250z M-698.4,3267.9c-0.9,0-1.8-0.1-2.5-0.4v-11.6
		c1.3-1.2,2.7-1.7,3.7-1.7c2.1,0,3.4,2.4,3.4,6.6C-693.8,3265.7-695.7,3267.9-698.4,3267.9L-698.4,3267.9z"/>
	<path id="Fill-14" fill="#262626" d="M-675.7,3250c-6.1,0-10,3.6-10,11.3c0,7.6,3.4,10.4,9.1,10.4c6.1,0,10-3.6,10-11.3
		C-666.6,3252.8-670.1,3250-675.7,3250L-675.7,3250z M-676.1,3267.7c-2.7,0-4.2-1.5-4.2-7.4c0-4.7,1.6-6.4,4-6.4
		c2.7,0,4.2,1.5,4.2,7.4C-672.1,3266-673.7,3267.7-676.1,3267.7L-676.1,3267.7z"/>
	<path id="Fill-15" fill="#262626" d="M-658.2,3253.7l-0.4-3.2h-4.4v20.8h5.3V3258c1.9-2.4,2.8-3.2,4-3.2c0.4,0,0.9,0,1.8,0.3
		l0.7-4.7c-0.7-0.3-1.4-0.5-2-0.5C-654.7,3250-656.1,3250.9-658.2,3253.7"/>
	<path id="Fill-16" fill="#262626" d="M-639.6,3267.6c-1.4,0-1.9-0.7-1.9-2.8v-10.7h4.6v-3.7h-4.6v-6.1h-3.8
		c-0.4,2.3-0.8,4.2-1.3,6.1h-2.8v3.7h2.6v12c0,4,1.4,5.4,5.2,5.4c1.6,0,3.2-0.4,5.2-1.4l-0.4-3.1
		C-638.1,3267.6-639,3267.6-639.6,3267.6"/>
</g>
</svg>
