<?xml version="1.0" encoding="utf-8"?>
<!-- Generator: Adobe Illustrator 18.1.0, SVG Export Plug-In . SVG Version: 6.00 Build 0)  -->
<!DOCTYPE svg PUBLIC "-//W3C//DTD SVG 1.1//EN" "http://www.w3.org/Graphics/SVG/1.1/DTD/svg11.dtd">
<svg version="1.1" id="Layer_1" xmlns:sketch="http://www.bohemiancoding.com/sketch/ns"
	 xmlns="http://www.w3.org/2000/svg" xmlns:xlink="http://www.w3.org/1999/xlink" x="0px" y="0px" viewBox="-951 3197.7 365 125"
	 enable-background="new -951 3197.7 365 125" xml:space="preserve">
<title>dropbox</title>
<desc>Created with Sketch.</desc>
<rect id="Rectangle-84" x="-951" y="3197.7" sketch:type="MSShapeGroup" fill="#FFFFFF" width="365" height="125">
</rect>
<path id="Fill-1" fill="#3A81C1" d="M-859.7,3230.9l-18.4,12.1l12.7,10.2l18.6-11.5L-859.7,3230.9"/>
<path id="Fill-2" fill="#3A81C1" d="M-878.1,3263.4l18.4,12.1l12.9-10.8l-18.6-11.5L-878.1,3263.4"/>
<path id="Fill-3" fill="#3A81C1" d="M-846.8,3264.7l12.9,10.8l18.4-12.1l-12.7-10.2L-846.8,3264.7"/>
<path id="Fill-4" fill="#3A81C1" d="M-815.4,3243l-18.4-12.1l-12.9,10.8l18.6,11.5L-815.4,3243"/>
<path id="Fill-5" fill="#3A81C1" d="M-846.7,3267l-12.9,10.8l-5.5-3.6v4.1l18.5,11.1l18.5-11.1v-4.1l-5.5,3.6L-846.7,3267"/>
<path id="Fill-6" fill="#3A81C1" d="M-799.6,3274.8h8.5c2.5,0,6,0,8.9-2.2c3.5-2.7,5.3-8.1,5.3-14.2c0-16-10.1-16-15-16h-7.6V3274.8
	L-799.6,3274.8z M-792.5,3247.9h1.2c2.9,0,6.8,0.3,6.8,10.3c0,10.6-4,11-6.8,11h-1.2V3247.9L-792.5,3247.9z"/>
<path id="Fill-7" fill="#3A81C1" d="M-774.5,3250.8v24h6.7v-10.4c0-1.9,0-7.4,4.9-7.4c0.2,0,0.5,0,1.1,0.1v-6.5
	c-0.3-0.1-0.7-0.1-1.2-0.1c-3.9,0-5.1,4.1-5.6,6.1v-5.8H-774.5"/>
<path id="Fill-8" fill="#3A81C1" d="M-751.1,3250.3c-7.2,0-9.8,5-9.8,12.5c0,7.8,2.8,12.5,9.7,12.5c7,0,9.8-4.8,9.8-12.5
	C-741.3,3255.3-744,3250.3-751.1,3250.3L-751.1,3250.3z M-751.1,3255c2,0,2.8,1.7,2.8,7.8c0,6.4-0.9,7.8-2.8,7.8
	c-2,0-2.9-1.5-2.9-7.8C-753.9,3256.9-753.3,3255-751.1,3255L-751.1,3255L-751.1,3255z"/>
<path id="Fill-9" fill="#3A81C1" d="M-739.4,3250.8v32.2h6.6v-9.9c0.7,0.8,1.9,2.1,4.6,2.1c7.6,0,8.1-9.3,8.1-12.7
	c0-4-0.8-7.8-3.1-10.2c-1.2-1.2-3-1.9-4.6-1.9c-3.3,0-4.6,2.4-5.4,3.9v-3.6H-739.4L-739.4,3250.8z M-732.8,3260.5c0-2.1,0-5.6,3-5.6
	c2.6,0,2.8,3.4,2.8,7.6c0,5.1-0.2,8-3,8c-2.8,0-2.8-2-2.8-5.5V3260.5L-732.8,3260.5z"/>
<path id="Fill-10" fill="#3A81C1" d="M-718.1,3242.3v32.5h3.9c0.5-1.7,0.8-2.2,1.3-3.1c0.6,1.2,1.7,3.6,5.5,3.6
	c1.3,0,2.6-0.2,3.9-0.9c4.4-2.3,4.7-9.5,4.7-11.7c0-5.8-1.8-12.2-7.7-12.2c-2.9,0-4.2,1.6-5,2.6v-10.7H-718.1L-718.1,3242.3z
	 M-711.5,3259.3c0-1.2,0-2.4,0.8-3.4c0.5-0.6,1.3-1,2.1-1c1.9,0,2.9,1.6,2.9,7.9c0,6.2-0.9,7.8-3,7.8c-2.8,0-2.8-3.1-2.8-5.8V3259.3
	L-711.5,3259.3z"/>
<path id="Fill-11" fill="#3A81C1" d="M-687.3,3250.3c-7.2,0-9.8,5-9.8,12.5c0,7.8,2.8,12.5,9.7,12.5c7,0,9.8-4.8,9.8-12.5
	C-677.6,3255.3-680.2,3250.3-687.3,3250.3L-687.3,3250.3z M-687.3,3255c2,0,2.8,1.7,2.8,7.8c0,6.4-0.9,7.8-2.8,7.8
	c-2,0-2.9-1.5-2.9-7.8C-690.2,3256.9-689.5,3255-687.3,3255L-687.3,3255L-687.3,3255z"/>
<path id="Fill-12" fill="#3A81C1" d="M-677.8,3250.8l6.2,11.7l-7.1,12.3h5.8l4-7.2l3.5,7.2h7.3l-7.2-13.5l6.2-10.6h-5.8l-3.1,5.6
	l-2.6-5.6H-677.8"/>
</svg>
