<?xml version="1.0" encoding="utf-8"?>
<!-- Generator: Adobe Illustrator 18.1.0, SVG Export Plug-In . SVG Version: 6.00 Build 0)  -->
<!DOCTYPE svg PUBLIC "-//W3C//DTD SVG 1.1//EN" "http://www.w3.org/Graphics/SVG/1.1/DTD/svg11.dtd">
<svg version="1.1" id="Layer_1" xmlns:sketch="http://www.bohemiancoding.com/sketch/ns"
	 xmlns="http://www.w3.org/2000/svg" xmlns:xlink="http://www.w3.org/1999/xlink" x="0px" y="0px" viewBox="-951 3197.7 365 125"
	 enable-background="new -951 3197.7 365 125" xml:space="preserve">
<title>gogo</title>
<desc>Created with Sketch.</desc>
<rect id="Rectangle-84" x="-951" y="3197.7" sketch:type="MSShapeGroup" fill="#FFFFFF" width="365" height="125">
</rect>
<g>
	<g>
		<linearGradient id="SVGID_1_" gradientUnits="userSpaceOnUse" x1="-740.7761" y1="3251.332" x2="-740.7761" y2="3214.7061">
			<stop  offset="1.754390e-02" style="stop-color:#84C4E1"/>
			<stop  offset="1" style="stop-color:#AED7EA"/>
		</linearGradient>
		<path fill="url(#SVGID_1_)" d="M-706.3,3229.5h-5.6l5,4.6h-9.3c-2.3-7.6-10.8-10.8-16.2-9.5c-1.8-4.5-7.2-6.1-11.1-4.8
			c-2.3-2.9-7.3-5.1-11.7-5.1c-6.4,0-12.3,3.8-14.9,9.6c-7.2,0.9-12,6.1-12,12.2c0,7,6.2,12.6,14.1,12.6c1.8,0,4.1-0.4,5.6-1.2
			c3.3,2.2,8.1,3.4,12.8,3.4c4.9,0,9.8-1.3,13.5-3.5c3.7,2.5,8.8,1.7,11.7-1.6c1.6-1.8,2.3-4.1,2.3-6.5c0-4.7-3.7-8.5-8.4-8.5
			c-2.7,0-4.9,0.9-6.6,2.4l2.6,3.7c0.7-0.7,2-1.5,3.8-1.5c1.8,0,3.9,1.1,4,4c0.1,2.5-2.1,4.5-4.2,4.5c-2,0-3.7-0.8-4.9-2.3
			c-3.5,3.1-9.3,4.3-13.8,4.3c-6.2,0-10.3-2.2-12.3-3.7c-1.6,1-4.2,1.6-6.1,1.6c-5.2,0-9.1-3.4-9.1-7.6c0-4,4-7.8,10.3-7.7
			c1.4-5.3,6.2-9.1,11.6-9.1c5.4,0,8.1,2.8,10.1,5.7c1.3-1.4,4.6-2.1,7-0.7c2,1.2,2.9,3.1,2.9,5.4c2.1-1,7.1-1.7,10.5,0.8
			c3.3,2.4,4.2,4.9,4.6,8.2h13.2l-5,4.6h5.6l6.7-7.1L-706.3,3229.5L-706.3,3229.5z"/>
		<linearGradient id="SVGID_2_" gradientUnits="userSpaceOnUse" x1="-781.1287" y1="3302.1379" x2="-781.1287" y2="3260.3733">
			<stop  offset="0" style="stop-color:#BB222F"/>
			<stop  offset="1" style="stop-color:#EE4237"/>
		</linearGradient>
		<path fill="url(#SVGID_2_)" d="M-737.2,3260.4c-9.4,0-13.7,4.7-13.7,11.5c0,1.6,0.4,3.5,0.9,4.8c-0.7,0.6-1.7,1.4-3.3,2.3v-18.2
			h-7.8l0.1,1.8c-1.5-1.3-3.5-2.2-6.6-2.2c-3.4,0-6.1,0.8-8.1,2.3c-2.9,0.5-6.8,0.8-10.6,0.2c-2.2-1.6-5.4-2.5-9.5-2.5
			c-9.4,0-13.7,4.7-13.7,11.5c0,1.7,0.3,3.3,0.8,4.7c-0.7,0.6-1.8,1.5-3.5,2.5v-18.2h-7.8l0.1,1.8c-1.3-1.3-3.6-2.2-6.6-2.2
			c-8,0-12.2,4.7-12.2,11.5c0,6.9,4.2,11.5,12.2,11.5c1.5,0,3.8-0.3,5.5-1.1v1c-0.7,0.3-1.4,0.5-3,0.9c-3.9,0.9-12.5,2.1-12.5,9.6
			c0,5.2,5,8.4,11.1,8.4c6.1,0,13.2-3.5,13.2-15.1v-1.1c2.6-1.2,5.3-2.8,7.4-4.7c2.2,1.4,5.2,2.2,9,2.2c9.4,0,13.7-4.7,13.7-11.5
			c0-0.9-0.1-1.8-0.2-2.6c0.9,0,1.8,0,2.8,0c-0.2,0.8-0.2,1.7-0.2,2.7c0,6.9,4.2,11.5,12.2,11.5c1.5,0,4.6-0.7,5.5-1.1v1
			c-0.5,0.3-1.5,0.5-3,0.9c-3.9,0.9-12.5,2.1-12.5,9.6c0,5.2,5,8.4,11.1,8.4c6.1,0,13.2-3.5,13.2-15.1v-1.1c2.5-1.2,5.2-2.8,7.3-4.6
			c2.2,1.3,5.1,2.1,8.9,2.1c9.4,0,13.7-4.7,13.7-11.5C-723.6,3264.5-728,3260.4-737.2,3260.4z M-825.3,3295.6
			c-2.3,0.2-3.4-0.6-3.4-2c0-2.7,3-3.3,6-4c0.5-0.1,1.1-0.2,1.6-0.4C-821.4,3294-823.3,3295.4-825.3,3295.6z M-821,3275.6
			c-0.9,0.8-2.2,1.3-4,1.3c-3.6,0-5-2.1-5-4.9c0-2.8,1.4-4.9,5-4.9c1.7,0,3,0.4,4,1.2V3275.6z M-795.8,3276.8
			c-3.6,0-4.9-2.1-4.9-4.9c0-2.7,1.2-4.9,4.9-4.9c3.6,0,4.9,2.2,4.9,4.9C-790.9,3274.7-792.2,3276.8-795.8,3276.8z M-766.4,3295.6
			c-2.3,0.2-3.4-0.6-3.4-2c0-2.7,3-3.3,6-4c0.5-0.1,1.1-0.2,1.6-0.4C-762.6,3294-764.5,3295.4-766.4,3295.6z M-762.1,3275.6
			c-0.9,0.8-2.2,1.3-4,1.3c-3.6,0-5-2.1-5-4.9c0-2.8,1.4-4.9,5-4.9c1.7,0,3,0.4,4,1.2V3275.6z M-737.2,3276.8
			c-3.6,0-4.9-2.1-4.9-4.9c0-2.7,1.2-4.9,4.9-4.9c3.6,0,4.9,2.2,4.9,4.9C-732.3,3274.7-733.6,3276.8-737.2,3276.8z"/>
		<polygon fill="#96D0EB" points="-742.7,3299.3 -742.7,3293 -741.6,3293 -741.6,3299.3 -742.7,3299.3 		"/>
		<polygon fill="#96D0EB" points="-734.1,3299.3 -738.1,3295.1 -738.5,3294.7 -738.5,3299.3 -739.7,3299.3 -739.7,3293 -738.6,3293 
			-734.6,3297.2 -734.2,3297.7 -734.2,3293 -733.1,3293 -733.1,3299.3 -734.1,3299.3 		"/>
		<path fill="#96D0EB" d="M-722.2,3299.3l-0.8-1.5h-3.7l-0.8,1.5h-1.2l3.4-6.2h1l3.4,6.2H-722.2L-722.2,3299.3z M-724.9,3294.2
			l-1.4,2.6h2.8L-724.9,3294.2L-724.9,3294.2z"/>
		<polygon fill="#96D0EB" points="-719.8,3299.3 -719.8,3293 -718.7,3293 -718.7,3299.3 -719.8,3299.3 		"/>
		<path fill="#96D0EB" d="M-711.4,3299.3c-0.3,0-0.5-0.4-0.5-1l0-0.6c0-0.6-0.3-0.9-1.5-0.9h-2.2v2.5h-1.2v-6.2h3.4
			c1.9,0,2.7,0.8,2.7,1.7c0,0.7-0.3,1.3-1.6,1.6c1.2,0.1,1.5,0.6,1.5,1.4l0,0.5c0,0.4,0.1,0.7,0.4,1.1v0H-711.4L-711.4,3299.3z
			 M-711.8,3294.9c0-0.5-0.4-0.9-1.4-0.9h-2.4v1.9h2.5C-712.2,3295.9-711.8,3295.5-711.8,3294.9L-711.8,3294.9L-711.8,3294.9z"/>
		<polygon fill="#96D0EB" points="-709,3299.3 -709,3298.2 -707.9,3298.2 -707.9,3299.3 -709,3299.3 		"/>
		<path fill="#96D0EB" d="M-739.9,3309.1c-2.2,0-3.7-1.6-3.7-3.3v-0.2c0-1.7,1.4-3.3,3.7-3.3c2.2,0,3.7,1.6,3.7,3.3v0.2
			C-736.2,3307.5-737.6,3309.1-739.9,3309.1L-739.9,3309.1z M-737.4,3305.7c0-1.2-0.9-2.3-2.5-2.3c-1.6,0-2.5,1.1-2.5,2.3v0.2
			c0,1.2,0.9,2.3,2.5,2.3c1.6,0,2.5-1.1,2.5-2.3V3305.7L-737.4,3305.7z"/>
		<polygon fill="#96D0EB" points="-729.1,3308.9 -733.1,3304.7 -733.5,3304.2 -733.5,3308.9 -734.7,3308.9 -734.7,3302.6 
			-733.6,3302.6 -729.6,3306.8 -729.2,3307.2 -729.2,3302.6 -728,3302.6 -728,3308.9 -729.1,3308.9 		"/>
		<polygon fill="#96D0EB" points="-726.2,3308.9 -726.2,3302.6 -725,3302.6 -725,3307.9 -720.1,3307.9 -720.1,3308.9 -726.2,3308.9 
					"/>
		<polygon fill="#96D0EB" points="-718.8,3308.9 -718.8,3302.6 -717.6,3302.6 -717.6,3308.9 -718.8,3308.9 		"/>
		<polygon fill="#96D0EB" points="-710.1,3308.9 -714.2,3304.7 -714.6,3304.2 -714.6,3308.9 -715.7,3308.9 -715.7,3302.6 
			-714.6,3302.6 -710.7,3306.8 -710.3,3307.2 -710.3,3302.6 -709.1,3302.6 -709.1,3308.9 -710.1,3308.9 		"/>
		<polygon fill="#96D0EB" points="-707.2,3308.9 -707.2,3302.6 -701.5,3302.6 -701.5,3303.6 -706,3303.6 -706,3305.2 -702.6,3305.2 
			-702.6,3306.1 -706,3306.1 -706,3307.9 -701.5,3307.9 -701.5,3308.9 -707.2,3308.9 		"/>
		<linearGradient id="SVGID_3_" gradientUnits="userSpaceOnUse" x1="-721.7813" y1="3264.6042" x2="-721.7813" y2="3261.356">
			<stop  offset="0" style="stop-color:#BB222F"/>
			<stop  offset="1" style="stop-color:#EE4237"/>
		</linearGradient>
		<path fill="url(#SVGID_3_)" d="M-720.2,3263c0-0.9-0.7-1.6-1.6-1.6s-1.6,0.7-1.6,1.6c0,0.9,0.7,1.6,1.6,1.6
			S-720.2,3263.9-720.2,3263L-720.2,3263z M-720.5,3263c0,0.7-0.6,1.3-1.3,1.3c-0.7,0-1.3-0.6-1.3-1.3c0-0.7,0.6-1.3,1.3-1.3
			C-721.1,3261.7-720.5,3262.3-720.5,3263L-720.5,3263z M-721.3,3263.2c0.2-0.1,0.4-0.3,0.4-0.5c0-0.4-0.2-0.6-0.6-0.6h-0.9v1.8h0.3
			v-0.6h0.4l0.3,0.6h0.4L-721.3,3263.2L-721.3,3263.2z M-722.1,3262.9v-0.5h0.5c0.2,0,0.3,0.1,0.3,0.3c0,0.2-0.1,0.3-0.3,0.3
			C-721.6,3262.9-721.9,3262.9-722.1,3262.9L-722.1,3262.9z"/>
	</g>
	<polygon fill="#96D0EB" points="-700.1,3308.9 -700.1,3307.8 -699,3307.8 -699,3308.9 -700.1,3308.9 	"/>
</g>
</svg>
