<?xml version="1.0" encoding="utf-8"?>
<!-- Generator: Adobe Illustrator 18.1.0, SVG Export Plug-In . SVG Version: 6.00 Build 0)  -->
<!DOCTYPE svg PUBLIC "-//W3C//DTD SVG 1.1//EN" "http://www.w3.org/Graphics/SVG/1.1/DTD/svg11.dtd">
<svg version="1.1" id="Layer_1" xmlns:sketch="http://www.bohemiancoding.com/sketch/ns"
	 xmlns="http://www.w3.org/2000/svg" xmlns:xlink="http://www.w3.org/1999/xlink" x="0px" y="0px" viewBox="-951 3197.7 365 125"
	 enable-background="new -951 3197.7 365 125" xml:space="preserve">
<title>jetblue</title>
<desc>Created with Sketch.</desc>
<rect id="Rectangle-84" x="-951" y="3197.7" sketch:type="MSShapeGroup" fill="#FFFFFF" width="365" height="125">
</rect>
<path id="Fill-1" fill="#003876" d="M-796.1,3288.7l3-6.4l3,6.4H-796.1L-796.1,3288.7z M-801.7,3294.4h3l1.5-3.3h8.2l1.5,3.3h2.9
	l-6.9-14.3h-3.2L-801.7,3294.4L-801.7,3294.4z"/>
<path id="Fill-2" fill="#003876" d="M-780.8,3280.2h2.8v14.3h-2.8V3280.2z"/>
<path id="Fill-3" fill="#003876" d="M-769.9,3286.5v-4h5.4c2.3,0,3.4,0.3,3.4,2c0,1.7-1.2,2-3.4,2H-769.9L-769.9,3286.5z
	 M-772.7,3294.4h2.8v-5.6h4.4l4.1,5.6h3.4l-4.4-5.8c2.1-0.1,4-1.6,4-4.2c0-3.5-2.4-4.3-5.8-4.3h-8.6V3294.4L-772.7,3294.4z"/>
<path id="Fill-4" fill="#003876" d="M-754.8,3280.2h2.8l2.7,9.8h0l2.7-9.8h2.7l2.8,9.8h0l2.7-9.8h2.7l-4.2,14.3h-2.7l-2.7-10.1h0
	l-2.7,10.1h-2.7L-754.8,3280.2"/>
<path id="Fill-5" fill="#003876" d="M-728.4,3288.7l3-6.4l3,6.4H-728.4L-728.4,3288.7z M-734,3294.4h3l1.5-3.3h8.2l1.5,3.3h2.9
	l-6.9-14.3h-3.2L-734,3294.4L-734,3294.4z"/>
<path id="Fill-6" fill="#003876" d="M-710.2,3288.7l-7-8.5h3.4l4.9,6l4.9-6h3.4l-7,8.5v5.7h-2.8V3288.7"/>
<path id="Fill-7" fill="#003876" d="M-687,3284.5c-0.5-1.3-1.6-2.4-5-2.4c-1.9,0-3.8,0.5-3.8,1.8c0,0.6,0.4,1.3,3.2,1.6l3.4,0.5
	c3.2,0.5,5.1,1.7,5.1,4.1c0,3.4-3.2,4.6-7,4.6c-6.1,0-7.6-3-7.9-4.1l2.7-0.8c0.5,1,1.6,2.6,5.3,2.6c2.3,0,4.2-0.7,4.2-2
	c0-0.9-1.1-1.5-3.1-1.8l-3.4-0.5c-3.3-0.5-5.1-1.9-5.1-4.1c0-4.3,5.6-4.3,6.7-4.3c6.1,0,7.2,2.8,7.6,3.8L-687,3284.5"/>
<path id="Fill-8" fill="#003876" d="M-853.5,3238h5.8v31.1c0,4.8-3.5,8.1-8.4,8.1h-2.3v-5.5h1.7c2,0,3.3-0.9,3.3-3.1V3238
	L-853.5,3238z M-853.5,3226.3h5.8v5.8h-5.8V3226.3z"/>
<path id="Fill-9" fill="#003876" d="M-838.1,3249.9c0.1-4.4,2.7-6.7,6.1-6.7c3.4,0,5.9,2.3,6.1,6.7H-838.1L-838.1,3249.9z
	 M-820.1,3254.6v-4.8c0-7.5-5.5-12.2-11.9-12.2c-5.6,0-11.9,3.6-11.9,14.9c0,11.8,6.9,14.7,12.8,14.7c3.9,0,7.6-1.4,10.4-4.7
	l-4.2-3.6c-1.7,1.8-4.1,2.8-6.3,2.8c-4,0-6.9-2.4-6.9-7.1H-820.1L-820.1,3254.6z"/>
<path id="Fill-10" fill="#003876" d="M-815.5,3229.2h5.8v8.8h4.2v4.4h-4.2v16.8c0,1.6,0.6,2.2,2,2.2h2.2v5.5h-3c-4,0-7-2.6-7-7.1
	v-17.3h-2.9v-4.4h2.9V3229.2"/>
<path id="Fill-11" fill="#003876" d="M-786.1,3248.9c4.6,0,6.6,2.9,6.6,6.1c0,3.2-2,6.1-6.6,6.1h-9.5v-12.2H-786.1L-786.1,3248.9z
	 M-801.7,3266.9h17.1c6.1,0,11.3-4.5,11.3-11.5c0-4.1-2.2-8.3-6.6-9.3v-0.1c4.7-2.1,6-5.4,6-8.7c0-6.4-4.1-10.9-12-10.9h-15.7
	V3266.9L-801.7,3266.9z M-786.7,3231.8c4.4,0,6.6,2.7,6.6,5.8c0,3.2-2.1,5.8-6.6,5.8h-8.9v-11.6H-786.7L-786.7,3231.8z"/>
<path id="Fill-12" fill="#003876" d="M-770,3226.3h5.8v33.1c0,1.3,0.7,2,2.2,2h2v5.5h-2.6c-4.2,0-7.4-1.8-7.4-7V3226.3"/>
<path id="Fill-13" fill="#003876" d="M-757.6,3238h5.8v17.2c0,3.9,2.5,6.2,5.8,6.2c3.2,0,5.7-2.3,5.7-6.2V3238h5.8v28.9h-5.8v-3.1
	h-0.1c-1.8,2.3-4.4,3.4-7.5,3.4c-4.6,0-9.7-3.5-9.7-10V3238"/>
<path id="Fill-14" fill="#003876" d="M-725.5,3249.9c0.1-4.4,2.7-6.7,6.1-6.7c3.4,0,5.9,2.3,6.1,6.7H-725.5L-725.5,3249.9z
	 M-707.5,3254.6v-4.8c0-7.5-5.5-12.2-11.9-12.2c-5.6,0-11.9,3.6-11.9,14.9c0,11.8,6.9,14.7,12.8,14.7c3.9,0,7.6-1.4,10.4-4.7
	l-4.2-3.6c-1.7,1.8-4.1,2.8-6.3,2.8c-4,0-6.9-2.4-6.9-7.1H-707.5L-707.5,3254.6z"/>
<path id="Fill-15" fill="#003876" d="M-682.9,3282.2c0-0.8,0.7-1.5,1.5-1.5c0.8,0,1.5,0.7,1.5,1.5c0,0.8-0.7,1.5-1.5,1.5
	C-682.2,3283.7-682.9,3283.1-682.9,3282.2L-682.9,3282.2z M-680.1,3282.2c0-0.7-0.6-1.3-1.3-1.3c-0.7,0-1.3,0.6-1.3,1.3
	c0,0.7,0.6,1.3,1.3,1.3C-680.7,3283.5-680.1,3283-680.1,3282.2L-680.1,3282.2z M-680.7,3283.1h-0.2l-0.5-0.8h-0.4v0.8h-0.2v-1.7h0.7
	c0.1,0,0.3,0,0.4,0.1c0.1,0.1,0.2,0.2,0.2,0.4c0,0.3-0.2,0.4-0.5,0.5L-680.7,3283.1L-680.7,3283.1z M-681.4,3282.1
	c0.2,0,0.6,0,0.6-0.3c0-0.3-0.2-0.3-0.4-0.3h-0.5v0.6H-681.4L-681.4,3282.1z"/>
<path id="Fill-16" fill="#003876" d="M-682.9,3282.2c0-0.8,0.7-1.5,1.5-1.5c0.8,0,1.5,0.7,1.5,1.5c0,0.8-0.7,1.5-1.5,1.5
	C-682.2,3283.7-682.9,3283.1-682.9,3282.2L-682.9,3282.2z M-680.1,3282.2c0-0.7-0.6-1.3-1.3-1.3c-0.7,0-1.3,0.6-1.3,1.3
	c0,0.7,0.6,1.3,1.3,1.3C-680.7,3283.5-680.1,3283-680.1,3282.2L-680.1,3282.2z M-680.7,3283.1h-0.2l-0.5-0.8h-0.4v0.8h-0.2v-1.7h0.7
	c0.1,0,0.3,0,0.4,0.1c0.1,0.1,0.2,0.2,0.2,0.4c0,0.3-0.2,0.4-0.5,0.5L-680.7,3283.1L-680.7,3283.1z M-681.4,3282.1
	c0.2,0,0.6,0,0.6-0.3c0-0.3-0.2-0.3-0.4-0.3h-0.5v0.6H-681.4L-681.4,3282.1z"/>
</svg>
