<?xml version="1.0" encoding="utf-8"?>
<!-- Generator: Adobe Illustrator 18.1.0, SVG Export Plug-In . SVG Version: 6.00 Build 0)  -->
<!DOCTYPE svg PUBLIC "-//W3C//DTD SVG 1.1//EN" "http://www.w3.org/Graphics/SVG/1.1/DTD/svg11.dtd">
<svg version="1.1" id="Layer_1" xmlns:sketch="http://www.bohemiancoding.com/sketch/ns"
	 xmlns="http://www.w3.org/2000/svg" xmlns:xlink="http://www.w3.org/1999/xlink" x="0px" y="0px" viewBox="-951 3197.7 365 125"
	 enable-background="new -951 3197.7 365 125" xml:space="preserve">
<title>lyft</title>
<desc>Created with Sketch.</desc>
<rect id="Rectangle-84" x="-951" y="3197.7" sketch:type="MSShapeGroup" fill="#FFFFFF" width="365" height="125">
</rect>
<path id="Fill-1" fill="#00B0A7" d="M-782.5,3266.4c0,2.8-0.5,4.1-2.5,4.1c-2.1,0-2.6-1.3-2.6-3.7v-22h-15.9v25.8
	c0,4.5,1.1,8.2,3.6,11.1c2.5,2.9,5.6,4.4,9.5,4.4c2.6,0,5.3-0.8,8-2.4c-1.5,5.8-4.9,8.6-10,8.6c-1.6,0-3.2-0.5-5.7-1.3
	c0,0-2.3-0.8-5.5-2.6v13.4c0,0,3.1,2,5.5,2.9c2.9,1.1,5.8,1.7,8.8,1.7c6.6,0,12.2-2.6,16.9-7.7c3.9-4.3,5.8-9.9,5.8-16.9v-36.9
	h-15.9V3266.4"/>
<path id="Fill-2" fill="#00B0A7" d="M-803.5,3282.1c-2.5-2.9-3.6-6.6-3.6-11.1v-25.8l0,0v-17.3H-823v17.3h0v25.8
	c0,4.5,1.1,8.2,3.6,11.1c2.5,2.9,5.6,4.4,9.5,4.4c0.9,0,1.8-0.1,2.8-0.3l0,0.1v-0.1c1.8-0.4,3.6-1.2,5.4-2.3l0,0
	C-802.3,3283.3-802.9,3282.7-803.5,3282.1"/>
<path id="Fill-3" fill="#00B0A7" d="M-739.9,3227.7L-739.9,3227.7c13.9,1.1,17.6,10.4,18.6,16.7h6.2v16.8h-6.5
	c0,2.9,0.5,5.5,1.6,6.8c1,1.3,2.5,1.8,5.8,1.8v16.5c-0.7,0-1.4,0-1.8,0c-3.6,0-6.9-0.8-10-2.5c-3.1-1.7-5.7-3.9-7.6-6.7
	c-2.4-3.6-3.6-8.4-3.6-14.4v-16.3l0-0.3c-0.4-1.5-1.8-2-3.1-2.1c-0.1,0-0.2,0-0.4,0c0,0-0.1,0-0.1,0c-0.1,0-0.2,0-0.3,0c0,0,0,0,0,0
	c-1.9,0-3.4,0.7-4.5,2c-1.1,1.3-1.7,3.2-1.7,5.6v2h7v15.6h-7v6.1c0,0,0.5,10.8-15.5,10.8l0-36.6c-0.1-3.5,0.1-19.7,17.7-21.7
	C-745.2,3227.8-742.6,3227.5-739.9,3227.7"/>
</svg>
