<?xml version="1.0" encoding="utf-8"?>
<!-- Generator: Adobe Illustrator 18.1.0, SVG Export Plug-In . SVG Version: 6.00 Build 0)  -->
<!DOCTYPE svg PUBLIC "-//W3C//DTD SVG 1.1//EN" "http://www.w3.org/Graphics/SVG/1.1/DTD/svg11.dtd">
<svg version="1.1" id="Layer_1" xmlns:sketch="http://www.bohemiancoding.com/sketch/ns"
	 xmlns="http://www.w3.org/2000/svg" xmlns:xlink="http://www.w3.org/1999/xlink" x="0px" y="0px" viewBox="-951 3197.7 365 125"
	 enable-background="new -951 3197.7 365 125" xml:space="preserve">
<title>mens-wearhouse</title>
<desc>Created with Sketch.</desc>
<rect id="Rectangle-84" x="-951" y="3197.7" sketch:type="MSShapeGroup" fill="#FFFFFF" width="365" height="125">
</rect>
<path id="Fill-1" fill="#0F0F0F" d="M-920.2,3265h-1.2l-1,1h6.4v-1h-1.7c-0.4-1.1-0.8-5.3-0.8-9.9v-2l0,0c0.9,0.9,4,5.6,6.1,9.2
	l0.7,0.7l0.6,0.6v-0.8h0.2l0.1-0.2c0.2-0.4,1.5-2.5,2.8-4.5l1.3-2c0.8-1.5,1.3-2.4,2.1-3.7v10.9c0,1.1-0.2,1.3-0.7,1.5h-1.2v1h7.1
	l-1-1h-0.7c-0.5-0.3-0.7-0.5-0.7-0.9v-12.7c0-0.4,0.5-0.9,0.6-0.9h0.8l0.4-0.4l-0.2-0.6h-3.9l-0.1,0.2c-0.9,1.8-1.6,2.9-2.6,4.4
	c-0.3,0.5-0.7,1.1-1.1,1.8c-0.2,0.4-0.4,0.7-0.6,1c-0.6,1-1.1,1.9-1.8,2.9c-1.1-1.9-2.1-3.1-3.5-4.8c-0.9-1.6-1.7-2.8-2.5-4
	c-0.3-0.4-0.6-0.9-0.9-1.3l-0.1-0.2h-4.2l-0.2,0.6l0.4,0.4h0.6c0.4,0.3,1.1,0.9,1.3,1.3v2.7C-919.4,3261.6-919.8,3264.4-920.2,3265"
	/>
<path id="Fill-11" fill="#0F0F0F" d="M-891.1,3265h-1.3v1h5.9c2.2,0,5.1,0.2,5.7,0.3l0.5,0.5l0.6-0.6l0-0.1c0.2-1.1,0.4-1.9,0.6-2.7
	c0.1-0.5,0.2-1.1,0.4-1.7v-0.3l-0.6-0.2l-0.3,0.3l-0.1,0.1c-0.2,0.5-0.2,0.7-0.2,0.8c0,0.1,0,0.1-0.1,0.3c-0.6,0.6-1.5,1.2-2,1.4
	c-0.1,0-0.3,0.1-0.4,0.1c-0.9,0.3-2.1,0.8-4.8,0.8c-0.5,0-0.6-0.6-0.6-0.9v-5.9h1.5c1.6,0,2,0.5,2.1,1v1.3l0.7,0.7l0.7-0.7v-5.9
	l-0.7-0.7l-0.7,0.7v1c-0.3,0.8-1.1,1.3-2.1,1.3l-1.5,0v-5.3c0-0.7,0.1-0.9,0.6-0.9h1.9c1.8,0,3.3,1,4.4,1.8l0.2,0.2
	c0.1,0.4,0.3,1.3,0.3,1.5l0,0.1l0.4,0.4l0.6-0.2l0-0.4c-0.1-0.8-0.2-1.5-0.3-2.1c-0.1-0.7-0.2-1.4-0.3-2.2l0-0.1l-0.4-0.4l-0.6,0.2
	v0.1c-0.1,0.1-0.3,0.1-0.6,0.1h-10.9v1h1.3c0.1,0,0.3,0.2,0.3,0.9v12.1C-890.9,3264.5-891.1,3264.9-891.1,3265"/>
<path id="Fill-12" fill="#0F0F0F" d="M-869.9,3265h-1.6l1,1h4l1-1h-1.9c-0.4-0.9-0.8-6.3-0.8-9.6v-2.5c2.3,2.5,10.3,11.1,12.1,13
	l0.2,0.2l0.7-0.7v-6.6c0-6,0.5-7.6,0.8-8h0.9l0.4-0.4l-0.2-0.6h-4.7v1h1.3c0.2,1,0.5,6.1,0.5,9.6v0.7l-10.7-11.3h-4.2l-0.2,0.6
	l0.4,0.4h0.5c0.2,0,0.4,0,1.2,1v3.6C-869.2,3261.7-869.6,3264.5-869.9,3265"/>
<path id="Fill-13" fill="#0F0F0F" d="M-847.8,3254.3v0.5l0.6,0.2c1.3-1.3,2-2,2-3.7c0-1.2-0.8-1.9-1.6-1.9c-0.8,0-1.6,0.8-1.6,1.6
	c0,0.8,0.4,1.6,1.3,1.6c0.1,0,0.3,0,0.5,0c-0.1,0.4-0.4,1-1,1.6L-847.8,3254.3"/>
<path id="Fill-14" fill="#0F0F0F" d="M-829.5,3249.6l-0.5,0.2h0c-0.2,0-0.5,0-1-0.1c-0.8-0.1-1.8-0.2-3-0.2c-2.8,0-5.6,1.5-5.6,5
	c0,2.8,1.2,4.3,3.7,4.7l3.7,0.9c1.6,0.3,2.2,0.9,2.2,2.1c0,1.6-1.6,2.8-3.7,2.8c-3,0-4.3-2.3-4.6-3.1v-1.3l-0.4-0.4l-0.6,0.2v5.6
	h0.8l0.3-0.3c1.2,0.3,2.4,0.6,4.5,0.6c2.9,0,5.9-2,5.9-5.6c0-2.3-1.3-3.7-4-4.1l-3.7-0.9c-1.1-0.3-2.2-1.1-2.2-2.5
	c0-1.3,1.4-2.8,3.4-2.8c1.9,0,3.7,1.3,4.6,3.4v0.7l0.4,0.4l0.6-0.2v-0.3c0-0.3,0-1.3-0.3-2.2v-2.3L-829.5,3249.6"/>
<path id="Fill-15" fill="#0F0F0F" d="M-780.1,3265h-2.1l1,1h5.7c2.2,0,5.1,0.2,5.7,0.3l0.5,0.5l0.6-0.6l0-0.1
	c0.2-1.1,0.4-1.9,0.6-2.7c0.1-0.5,0.2-1,0.4-1.7v-0.3l-0.6-0.2l-0.3,0.3l-0.1,0.1c-0.2,0.5-0.2,0.6-0.3,0.7
	c-0.1,0.1-0.2,0.2-0.3,0.5c-0.2,0.5-1.1,1.1-2,1.4c-0.7,0.3-2.2,0.9-4.8,0.9c-0.5,0-0.6-0.6-0.6-0.9v-5.9h1.5c1.6,0,2,0.5,2.1,1v1.3
	l0.7,0.7l0.7-0.7v-5.9l-0.7-0.7l-0.7,0.7v1c-0.3,0.8-1.1,1.3-2.1,1.3l-1.5,0v-5.3c0-0.7,0.1-0.9,0.6-0.9h1.9c1.8,0,3.3,1,4.4,1.8
	l0.2,0.2c0.1,0.4,0.3,1.3,0.3,1.5l0,0.1l0.4,0.4l0.6-0.2l0-0.4c-0.1-0.8-0.2-1.5-0.3-2.1c-0.1-0.7-0.2-1.4-0.3-2.2l0-0.1l-0.6-0.6
	l-0.7,0.7v0.1c0,0-0.1,0-0.3,0h-10.9v1h1c0.3,0,0.6,0,0.6,0.9v12.1C-779.9,3264.5-780.1,3264.9-780.1,3265"/>
<path id="Fill-16" fill="#0F0F0F" d="M-751.2,3265h-1.6l1,1h5.2l1-1h-1.1c-0.3,0-0.6-0.3-1-1l-0.2-0.3c-0.5-0.8-0.9-1.8-1.3-2.9
	c-0.4-1-0.9-2.1-1.4-3.3c-0.7-1.6-1.3-3.2-1.9-4.6c-0.4-1-0.8-1.9-1.2-2.8l-0.6-0.7l-0.6,0.6l-0.1,0.1c-1.2,3.1-1.9,4.6-3.4,7.7
	c-1,2-2.6,5.6-2.8,6.5c-0.1,0.2-0.2,0.3-0.3,0.5c-0.1,0.1-0.1,0.2-0.2,0.3h-1.1v1h4.8l1-1h-1.1c-0.1,0-0.5-0.1-0.7-0.2
	c-0.1-0.1-0.2-0.3-0.2-0.7l0-0.5c0.1-0.6,0.2-1,0.3-1.4c0.1-0.5,0.2-0.9,0.3-1.3l0.2-0.4h5.5l0.2,0.4c0.3,0.6,0.5,1.1,0.8,1.7
	c0.2,0.5,0.5,1.1,0.7,1.6v0.5C-751,3264.7-751,3264.8-751.2,3265L-751.2,3265z M-753.2,3259.1L-753.2,3259.1
	c-1.2,0.3-2.1,0.3-3.4,0.3c-0.3,0-0.8-0.1-1.1-0.2c0.4-0.8,0.9-2.2,1.4-3.4c0.1-0.4,0.4-0.9,0.6-1.3c0.1-0.1,0.1-0.3,0.2-0.4
	l0.2,0.2c0.4,0.9,0.8,1.6,1,2.3c0.3,0.7,0.6,1.4,1.1,2.3V3259.1L-753.2,3259.1z"/>
<path id="Fill-17" fill="#0F0F0F" d="M-727.4,3254.2c0-2.8-2.4-4.7-5.9-4.7c-0.4,0-1.1,0.1-1.8,0.1c-0.8,0.1-1.6,0.2-2.3,0.2h-3.9
	l1,1h0.8c0.3,0,0.6,0,0.6,0.9v12.4c0,0.7-0.2,0.9-0.3,0.9h-2.1l1,1h5.6l0.4-0.4l-0.2-0.6l-1.2,0c-0.1,0-0.3-0.4-0.3-0.9v-5.3
	c0-0.1,0.1-0.2,0.2-0.3l0.6,0.3c0.7,0.2,1,0.7,2.1,2.6l0.2,0.4c0.2,0.4,0.5,0.8,0.8,1.3c0.9,1.6,1.5,2.6,1.8,2.8l0.1,0.1h4l1-1h-1.1
	c-0.8,0-1-0.2-1.3-0.5c-0.9-1.8-1.2-2.5-2.2-3.4c-0.5-1-1-1.8-1.5-2.6C-729.4,3258.2-727.4,3256.7-727.4,3254.2L-727.4,3254.2z
	 M-732.8,3257.5l-3,0c-0.1,0-0.2-0.2-0.3-0.4l0-6.1c0-0.1,0.2-0.2,0.4-0.3l1.7,0c2,0.3,3.1,1.7,3.1,3.7
	C-730.9,3255.5-731.4,3256.9-732.8,3257.5L-732.8,3257.5z"/>
<path id="Fill-18" fill="#0F0F0F" d="M-717.2,3265h-1.3v1h6.3v-1l-1.2,0c-0.1,0-0.3-0.4-0.3-1.2v-6.2h8.6v6.2c0,0.4-0.1,1.2-0.6,1.2
	h-1.8l1,1h5.8v-1h-1c-0.2,0-0.3-0.2-0.3-1.2v-12.1c0-0.9,0-0.9,0.3-0.9h1v-1h-5.9l-0.2,0.6l0.4,0.4h0.8c0.3,0,0.6,0,0.6,0.9v4.9
	h-8.6v-4.9c0-0.9,0.3-0.9,0.6-0.9h1v-1h-5.9l-0.2,0.6l0.4,0.4h0.8c0.1,0,0.3,0.2,0.3,0.9v12.1
	C-716.9,3264.5-717.2,3264.9-717.2,3265"/>
<path id="Fill-19" fill="#0F0F0F" d="M-675.9,3257.9c0-5.8-4.5-8.4-9-8.4s-9,2.6-9,8.4c0,4.9,3.8,8.4,9,8.4
	S-675.9,3262.7-675.9,3257.9L-675.9,3257.9z M-690.5,3257.9c0-2.8,0.7-7.4,5.5-7.4s5.5,4.6,5.5,7.4c0,3.4-1.5,7.1-5.5,7.1
	C-688.3,3265-690.5,3262.2-690.5,3257.9L-690.5,3257.9z"/>
<path id="Fill-20" fill="#0F0F0F" d="M-664.5,3250.8h0.8l0.4-0.4l-0.2-0.6h-5.9l-0.2,0.6l0.4,0.4h0.8c0.1,0,0.3,0.2,0.3,0.9v8.4
	c0,4,2.7,6.2,7.5,6.2c4.1,0,6.2-2.2,6.2-6.5v-0.3c0-6,0.3-7.5,0.8-8.6h1.2l0.4-0.4l-0.2-0.6h-5l-0.2,0.6l0.4,0.4h1.1
	c0.5,1.4,0.5,2.6,0.5,8.6v0.3c0,3.5-1.7,5.2-4.9,5.2c-3.2,0-4.6-1.6-4.6-4.9v-8.4C-665.1,3250.8-664.8,3250.8-664.5,3250.8"/>
<path id="Fill-21" fill="#0F0F0F" d="M-645.3,3259.9l-0.7,0.7v0.1c0,0.3,0.1,0.7,0.1,1.1c0.1,0.4,0.2,0.9,0.2,1.4v2.8h1v-0.2l0.1,0
	c1.3,0.3,2.6,0.5,4.5,0.5c2.9,0,5.9-2,5.9-5.6c0-2.3-1.3-3.7-4-4.1l-4-0.9c-0.7-0.2-1.9-1-1.9-2.5c0-1.3,1.4-2.8,3.4-2.8
	c2,0,3.7,1.4,4.3,3.5l0.3,0.6l0.4,0.4l0.6-0.2v-0.3c0-0.3,0-1.3-0.3-2.2v-2.3l-0.7-0.7l-0.4,0.4c-0.2,0-0.5,0-0.8-0.1
	c-0.8-0.1-1.8-0.2-3-0.2c-2.8,0-5.6,1.5-5.6,5c0,2.8,1.2,4.3,3.7,4.7l3.7,0.9c1.4,0.3,1.9,0.8,1.9,2.1c0,1.6-1.4,2.8-3.4,2.8
	c-3,0-4.1-1.8-4.6-3.1v-1.3L-645.3,3259.9"/>
<path id="Fill-22" fill="#0F0F0F" d="M-626.4,3265h-1.8l1,1h5.7c1.9,0,5.1,0.2,5.7,0.3l0.5,0.5l0.6-0.6l0-0.1
	c0.1-0.5,0.1-0.9,0.2-1.2c0.2-1.1,0.3-1.9,0.7-3l0-0.4l-0.6-0.2l-0.3,0.3l-0.1,0.1c-0.2,0.5-0.2,0.6-0.3,0.7
	c-0.1,0.1-0.2,0.2-0.3,0.5c-0.2,0.5-1.1,1.1-2,1.4c-0.7,0.3-2.2,0.9-4.8,0.9c-0.6,0-0.9-0.3-0.9-0.9v-5.9h1.5c1.5,0,2.2,0.3,2.4,1
	v1.3l0.4,0.4l0.6-0.2v-6.2l-0.6-0.2l-0.4,0.4v1c-0.3,0.8-1.2,1.3-2.4,1.3l-1.5,0v-5.3c0-0.3,0.1-0.9,0.6-0.9h2.2
	c1.5,0,3.2,0.9,4.3,1.7v0.3l0.1,0.1c0.1,0.1,0.4,0.8,0.5,1.3v0.3l0.6,0.2l0.4-0.4l0-0.2c-0.1-0.6-0.2-1-0.3-1.5
	c-0.2-1-0.3-1.8-0.3-2.8v-0.1l-0.7-0.7l-0.7,0.7v0.1c0,0-0.1,0-0.3,0h-10.9v1h1c0.3,0,0.3,0,0.3,0.9v12.1
	C-626.1,3264.8-626.1,3265-626.4,3265"/>
<path id="Fill-23" fill="#0F0F0F" d="M-806.8,3250.8l0.7-0.3h0.2l0.2-0.6l-0.4-0.4h-0.1c-0.6,0-1.1,0.1-1.6,0.2
	c-0.5,0.1-0.9,0.2-1.5,0.2c-0.4,0-0.9-0.1-1.3-0.2c-0.5-0.1-1-0.2-1.5-0.2h-0.1l-0.4,0.4l0.2,0.6h0.9c0.8,0.3,1,0.8,1.3,1.4
	c0.4,0.9,0.9,1.8,1.3,2.8c0.5,1.2,1.1,2.4,1.8,3.7c0.6,1.5,1.2,2.8,1.7,3.9c0.6,1.2,1.1,2.3,1.4,3.2c0.3,1,0.7,1.2,0.9,1.2h0.2
	l0.4-0.8c0.6-1.2,1-2.1,1.4-3c0.4-0.8,0.8-1.7,1.4-2.9l0.3-0.4l0.9,2.2c0.6,1.3,0.9,2.1,1.6,4l1,1.1l0.2-0.4c0.1-0.1,0.3-0.6,0.3-1
	c0.6-1.3,1-2.2,1.4-3.1c0.7-1.4,1.2-2.4,1.9-4.3c1.2-2.4,3-6,3.4-6.8l0.6-0.6c0,0,0.2-0.2,0.7-0.2h0.3v-1h-0.3
	c-0.5,0-0.8,0.1-1.2,0.2c-0.3,0.1-0.6,0.1-1,0.1c-0.4,0-0.8-0.1-1.2-0.1c-0.4-0.1-0.8-0.2-1.3-0.2h-0.1l-0.4,0.4l0.2,0.6h0.3
	c0.2,0,0.8,0,1,0.2c0.1,0.1,0.2,0.3,0.2,0.4c0,0.3,0,0.5-0.3,1.1l0,0.1c-0.3,1.6-0.6,3-1.5,4.9c-1.3,2.7-2,4.2-2.4,5.1
	c0,0.1,0,0.1-0.1,0.1c-1.7-3.5-4.7-9.7-4.9-10.8c-0.2-0.5-0.1-0.7-0.1-0.7c0-0.1,0.2-0.1,0.4-0.1h0.1l0.1-0.1
	c0.2-0.2,0.4-0.2,0.4-0.2h0.3l0.2-0.6l-0.4-0.4h-0.1c-0.6,0-1.1,0.1-1.6,0.2c-0.5,0.1-0.9,0.2-1.5,0.2c-0.6,0-1.1-0.1-1.5-0.2
	c-0.4-0.1-0.8-0.1-1.2-0.1h-0.1l-0.4,0.4l0.2,0.6h0.8c0.5,0.3,1.1,0.8,1.3,1.4c0.4,0.9,0.9,1.8,1.3,2.8c0.5,1.1,1.1,2.3,1.7,3.6
	c-0.2,0.4-0.6,1.2-0.8,2c-0.5,0.5-0.9,1.3-1.3,1.9c-2.1-3.7-4.1-8.3-4.9-10.5c-0.1-0.2-0.1-0.5,0-0.6
	C-807,3250.8-806.9,3250.8-806.8,3250.8"/>
</svg>
