<?xml version="1.0" encoding="utf-8"?>
<!-- Generator: Adobe Illustrator 18.1.0, SVG Export Plug-In . SVG Version: 6.00 Build 0)  -->
<!DOCTYPE svg PUBLIC "-//W3C//DTD SVG 1.1//EN" "http://www.w3.org/Graphics/SVG/1.1/DTD/svg11.dtd">
<svg version="1.1" id="Layer_1" xmlns:sketch="http://www.bohemiancoding.com/sketch/ns"
	 xmlns="http://www.w3.org/2000/svg" xmlns:xlink="http://www.w3.org/1999/xlink" x="0px" y="0px" viewBox="-951 3197.7 365 125"
	 enable-background="new -951 3197.7 365 125" xml:space="preserve">
<title>mobile-vikings</title>
<desc>Created with Sketch.</desc>
<rect id="Rectangle-84" x="-951" y="3197.7" sketch:type="MSShapeGroup" fill="#FFFFFF" width="365" height="125">
</rect>
<path sketch:type="MSShapeGroup" fill="#111111" d="M-805.3,3255l-1.4,4.1h2l1.2-3.7c0.7,0.1,1.5,0.2,2.3,0.2c5.3,0,8.4-2,10.3-4.7
	c1.8-2.6,2.3-5.8,2.3-8.1c0-5.2-2.8-9.2-7.1-10.6l1.5-4.5h-2l-1.4,4.1c-0.8-0.1-1.6-0.2-2.5-0.2c-7.9,0.1-12.3,5.6-12.3,12.8
	C-812.4,3249.2-810,3253.3-805.3,3255L-805.3,3255z M-796.6,3234.8c2.7,2.2,3.6,5.8,3.6,9.3c0,5.4-1.8,9.7-7.3,9.8
	c-0.9,0-1.9-0.2-2.6-0.5L-796.6,3234.8L-796.6,3234.8z M-801,3233.2c0.9,0,2,0.2,2.8,0.6l-6.2,18.6c-2.6-2.3-3.6-6.7-3.6-9.9
	C-808,3237.7-806.4,3233.3-801,3233.2L-801,3233.2z M-713,3250c0-0.6-0.3-0.9-0.5-0.9c-0.8,0.1-0.9,1.2-2,2.2c-1,1-2.9,2.1-6.9,2.1
	c-2.1,0-2-0.8-2.1-2.5c0-0.2,0-0.4,0-0.6v-15.4c0-1.2,0.5-1.4,1.1-1.6c0.5-0.2,1.3-0.2,1.3-0.9c0-0.2-0.1-0.4-0.3-0.5
	c-0.2-0.1-0.4-0.1-0.7-0.1c-0.6,0-0.9,0.1-3.7,0.1c-1.2,0-3.1-0.1-4.5-0.1c-0.7,0-1.2,0.3-1.2,0.7c0.1,0.8,1.1,0.8,2,1.1
	c0.9,0.3,1.7,0.7,1.7,2v15.5c0,2-0.6,2.4-1.1,2.7c-0.3,0.1-0.6,0.2-0.9,0.3c-0.3,0.1-0.5,0.4-0.5,0.8c0,0.3,0.3,0.5,0.8,0.5
	c1.8,0,3.2-0.1,4.2-0.1c1.6,0,3.6,0.1,8.6,0.1C-715,3255.4-713,3252.6-713,3250L-713,3250z M-765.2,3242.3c2.1-0.8,3.3-2.6,3.3-4.6
	c0-0.4,0-1.9-1-3.2c-1-1.4-3.1-2.6-7.2-2.6c-2.8,0-5.5,0.1-8.3,0.1c-1.5,0-1.7-0.1-2-0.1c0,0,0,0-0.1,0c-0.1,0-0.3,0-0.4,0.1
	c-0.1,0.1-0.3,0.3-0.2,0.6c0,0.5,0.3,0.7,0.6,0.9c1.1,0.4,2.8,0.2,2.8,3.5v14.5c0,1.5-0.6,2-1.3,2.3c-0.6,0.3-1.4,0.3-1.5,1
	c0,0.3,0.1,0.5,0.4,0.6c0.2,0.1,0.5,0.1,0.9,0.1c0.7,0,1.6-0.1,2.3-0.1c1.6,0,3.3,0.1,8.2,0.1c2.7,0,4.8-0.7,6.3-2
	c1.5-1.3,2.2-3.1,2.2-5.3C-760.2,3245.2-761.5,3243.3-765.2,3242.3L-765.2,3242.3z M-773.3,3236.5c0-1.9,0-2.9,2.1-3
	c2.8,0,5.2,2,5.2,5c0,2.4-0.9,3.5-3.3,3.5h-2c-1.9-0.2-2-0.1-2.1-1.7V3236.5L-773.3,3236.5z M-769.4,3253.8c-3.1,0-3.8-0.8-3.9-3.9
	v-3.7c0-1.7,0-2.3,1.8-2.4c5.9,0,6.7,2.9,6.8,4.8C-764.7,3251.7-766.3,3253.7-769.4,3253.8L-769.4,3253.8z M-687.3,3250
	c0-0.6-0.3-0.9-0.5-0.9c-0.8,0.1-0.9,1.2-2,2.2c-1,1-2.9,2.1-6.9,2.1c-2.1,0-2-0.8-2.1-2.5c0-0.2,0-0.4,0-0.6v-4.2
	c0-0.3,0-0.5,0-0.8c0.1-1.3,0-1.3,1.2-1.4h2.4c1.6,0,2.2,0.8,2.5,1.6c0.3,0.8,0.3,1.8,1,1.8c0.6,0,0.8-0.6,0.8-1.1
	c0-0.3,0-0.5,0-0.7l-0.2-5.8c0-0.4-0.1-0.6-0.2-0.8c-0.1-0.2-0.3-0.2-0.4-0.2c0,0-0.1,0-0.1,0c-0.3,0-0.4,0.3-0.6,0.6
	c-0.5,0.9-1,2.5-3,2.5h-2.1c-0.7,0-1-0.1-1.1-0.2c-0.1-0.2-0.2-0.5-0.1-1.3v-4.6c0-1.1,0-1.6,0.5-1.9c0.5-0.3,1.5-0.3,3.5-0.3
	c3.1,0,4,0.9,4.3,1.8c0.2,0.5,0.2,0.9,0.3,1.3c0.1,0.4,0.3,0.7,0.7,0.7c0.6,0,0.7-0.6,0.7-1.1c0-0.2,0-0.5,0-0.6l-0.1-3.2
	c0-0.4-0.3-0.8-0.8-0.8c-2.9,0-5.1,0.1-7.5,0.1c-5,0-7.4-0.1-8.7-0.1c-0.5,0-0.9,0.3-0.9,0.7c0.1,0.9,1.1,0.9,2,1.1
	c0.9,0.3,1.7,0.7,1.7,2.1v15.4c0,2-0.6,2.4-1.1,2.7c-0.3,0.1-0.6,0.2-0.9,0.3c-0.3,0.1-0.5,0.4-0.5,0.8c0,0.3,0.3,0.5,0.8,0.5
	c1.8,0,3.2-0.1,4.2-0.1c1.6,0,3.6,0.1,8.6,0.1C-689.2,3255.4-687.3,3252.6-687.3,3250L-687.3,3250z M-749.5,3253.7
	c-0.5,0.3-1.2,0.4-1.3,1.1c0,0.2,0.1,0.5,0.5,0.5c0.9,0,2.3-0.1,3.7-0.1c2.5,0,3.8,0.1,5,0.1c0.4,0,0.7,0,0.9-0.1
	c0.2-0.1,0.3-0.3,0.3-0.5c0-0.4-0.4-0.5-0.7-0.6c-1.1-0.2-2.9-0.1-3-3v-15.7c0-1.5,0.6-1.9,1.1-2.1c0.3-0.1,0.6-0.2,0.8-0.3
	c0.3-0.1,0.5-0.3,0.5-0.7c0-0.2-0.1-0.4-0.3-0.5c-0.2-0.1-0.5-0.1-1-0.1c-1.9,0-3.1,0.1-4.2,0.1c-1.1,0-2.4-0.1-3.7-0.1
	c-0.1,0-0.2,0-0.3,0c-0.3,0-0.9,0-0.9,0.6c0.1,0.8,1.1,0.8,2,1.1c0.9,0.3,1.7,0.7,1.7,2.2v15.8
	C-748.4,3252.9-749,3253.4-749.5,3253.7L-749.5,3253.7z M-824.1,3255.2c0.9,0,1.9,0.1,2.8,0.1c0.6,0,1,0,1.3-0.1
	c0.3-0.1,0.5-0.3,0.5-0.6c0-0.4-0.3-0.6-0.6-0.7c-0.9-0.3-2.5-0.2-2.6-3.4l-0.6-14.5c0-0.1,0-0.1,0-0.2c0-1.7,0.7-2.2,1.4-2.5
	c0.7-0.3,1.6-0.2,1.6-1c0-0.1,0-0.3-0.2-0.4c-0.2-0.1-0.4-0.1-0.9-0.1c-0.9,0-1.6,0.1-2.1,0.1c-0.5,0-1.1-0.1-1.9-0.1
	c-0.7,0-0.9,0.6-1,0.7l-7.6,15.9c0,0-0.1,0.2-0.2,0.4c0,0.1-0.1,0.1-0.1,0.2c0,0,0,0-0.1,0l0,0c0,0-0.2-0.1-0.3-0.4l-7.2-15.8
	c-0.4-0.9-0.9-1.1-1.2-1h-0.1c-1.1,0-2.3,0.1-3,0.1c-1,0-1.5-0.1-2-0.1c-0.4,0-0.5,0.3-0.5,0.6c0,0.9,1,0.8,1.7,1.3
	c0.8,0.4,1.6,1.2,1.6,3.6c0,0.1,0,0.3,0,0.4l-0.5,13.2c-0.1,1.7-0.7,2.3-1.4,2.6c-0.6,0.4-1.4,0.4-1.4,1.2c0,0.3,0.2,0.6,0.8,0.6
	c0.5,0,1.6-0.1,3.2-0.1c1.5,0,2.2,0.1,3.4,0.1c0.4,0,0.6-0.1,0.8-0.2c0.2-0.1,0.2-0.3,0.2-0.4c0-0.1,0-0.1,0-0.1
	c0-0.4-0.3-0.6-0.6-0.7c-1-0.3-2.7-0.2-2.8-3.9c0-0.1,0-0.3,0-0.4l0.3-9.2c0-0.1,0-0.3,0-0.5c0-0.1,0-0.1,0-0.2
	c0.1,0.1,0.2,0.3,0.2,0.5l6.3,14.1c0.2,0.3,0.3,1,1,1c0.7,0,0.8-0.6,1-1l6.2-13c0.2-0.5,0.5-1,0.6-1.3c0.1-0.1,0.2-0.3,0.2-0.3
	c0,0,0,0,0,0c0,0.1,0,0.2,0.1,0.3c0,0.2,0,0.6,0.1,1l0.5,9.9c0,0.1,0,0.3,0,0.4c0,1.6-0.5,2-1.1,2.3c-0.5,0.3-1.2,0.3-1.3,1
	c0,0.6,0.6,0.7,1.1,0.7c0.2,0,0.4,0,0.5,0C-827,3255.4-826.3,3255.2-824.1,3255.2L-824.1,3255.2z M-683.6,3277.6
	c-2.4-1-4-1.6-5.1-2.2c-1.1-0.6-1.5-1.2-1.5-2.2c0-2.1,1.5-3.3,3.8-3.3c3,0,4.6,1.5,5.6,3c0.5,0.7,0.8,1.5,1.1,2.1
	c0.3,0.6,0.4,1,0.8,1c0.3,0,0.6-0.1,0.8-0.3c0.2-0.2,0.2-0.4,0.2-0.7c0-0.1,0-0.2,0-0.3l-0.4-4.4c0-0.4,0-0.7-0.1-0.9
	c0-0.3-0.3-0.5-0.6-0.5c-0.5,0-1.4,0.5-1.8,0.5c-0.9,0-2.5-1.3-5.4-1.3c-4.2,0-7.1,2.8-7.1,6.7c0,3.5,2.2,4.9,5.2,6.1
	c2.9,1.2,4.8,1.9,6.1,2.6c1.2,0.7,1.7,1.5,1.7,2.8c0,2.5-2,4-4.7,4c-3.8,0-6-2.9-7.1-6c-0.1-0.4-0.3-0.8-0.9-0.8
	c-0.3,0-0.5,0.1-0.6,0.2c-0.1,0.1-0.2,0.3-0.2,0.5c0,0.3,0.1,0.7,0.2,0.9l0.2,0l-0.2,0l1.1,4.5c0.1,0.7,0.2,1.2,1.1,1.4
	c2,0.4,3.9,1.2,6,1.2c4.7,0,8-3,8-7.4C-677.4,3280.6-679.9,3279.1-683.6,3277.6L-683.6,3277.6z M-702,3280.8c-1.2,0-2.3,0.1-3.5,0.1
	c-1.5,0-3-0.1-4.6-0.1c-0.2,0-0.4,0-0.7,0c-0.2,0-0.5,0-0.7,0.2c-0.2,0.1-0.3,0.4-0.3,0.7c0,0.4,0.4,0.6,0.7,0.6
	c1.1,0.2,3.1-0.2,3.2,3.5c0,1.9,0,4.5-5.8,4.5c-2.6,0-4.4-1.5-5.7-3.5c-1.2-2-1.8-4.6-1.8-6.8c0-8.3,4.2-10.1,7.2-10.2
	c4.3,0,6.3,1.8,7.5,3.5c0.6,0.9,0.9,1.8,1.1,2.4c0.1,0.3,0.2,0.6,0.3,0.8c0.1,0.2,0.2,0.4,0.4,0.4c0.3,0,0.6,0,0.7-0.2
	c0.2-0.1,0.2-0.3,0.2-0.6v-5.5c0-0.5,0.1-1.3-0.6-1.4c-0.4,0-0.5,0.3-0.7,0.5c-0.2,0.2-0.3,0.4-0.6,0.4c-0.4,0-1.3-0.5-2.7-1.1
	c-1.4-0.5-3.2-1.1-5.5-1.1c-8.4,0-11.8,7.4-11.8,12.9c0,2.6,1.5,11.1,11.2,11.1c3.6,0,7.3-1.5,10.4-3.2c0.4-0.2,0.4-0.5,0.4-1
	c0-0.5-0.1-1.4-0.1-2.7c0-2.1,0.5-2.6,1-2.8c0.3-0.1,0.5-0.2,0.8-0.3c0.2-0.1,0.5-0.3,0.4-0.7C-701.5,3281-701.7,3280.8-702,3280.8
	L-702,3280.8z M-733,3268.4c-0.3,0-1.4,0.1-3.5,0.1c-2.3,0-3.2-0.1-3.7-0.1c-0.5,0-0.7,0.5-0.7,0.7c0.1,0.8,1.1,0.8,2.1,1.2
	c1,0.4,1.9,0.9,1.9,2.3l0,10.9c0,0.4,0,0.7-0.1,0.9c0,0.1,0,0.1-0.1,0.2l0,0c0,0-0.5-0.3-0.9-0.8l-13.2-14.5
	c-0.3-0.3-0.3-0.5-0.4-0.7c-0.2-0.2-0.4-0.3-0.9-0.2c-1.7,0-2.6,0.1-3.4,0.1c-0.6,0-1.2-0.1-1.8-0.1c-0.5,0-0.7,0.4-0.7,0.7
	c0,0.5,0.3,0.7,0.7,0.8c1.1,0.4,3,0.2,3,4.9h0v12.5c0,1.6-0.7,2.2-1.5,2.7c-0.7,0.4-1.6,0.6-1.7,1.4c0,0.2,0.1,0.4,0.2,0.5
	c0.1,0.1,0.3,0.1,0.5,0.1c0.2,0,0.4,0,0.5,0c0.9,0,1.8-0.1,2.8-0.1c1.1,0,2.2,0.1,3.9,0.1h0.2c0.4,0,1.2,0,1.2-0.6
	c0-0.5-0.4-0.7-0.8-0.8c-1.2-0.4-3.4-0.2-3.4-4.8l0-11.2c0-0.1,0-0.3,0-0.3c0-0.1,0-0.1,0.1-0.1c0.1,0,0.3,0.1,0.5,0.4l15.7,17.1
	c0.2,0.3,0.5,0.5,1,0.5c0,0,0,0,0,0c0.2,0,0.4-0.1,0.5-0.3c0.1-0.2,0.1-0.4,0.1-0.8v-18.4c0-1.7,0.7-2.3,1.3-2.6
	c0.6-0.4,1.4-0.3,1.5-1c0-0.1,0-0.2-0.1-0.3C-732.5,3268.5-732.7,3268.4-733,3268.4L-733,3268.4z M-785.7,3290.9
	c-0.6-0.3-1.8-0.4-3.7-2.9l-6.3-8.4c-0.5-0.7-0.8-1.1-0.8-1.3c0-0.2,0.5-0.7,0.7-0.8l-0.1-0.1l0.1,0.1l5.8-5.4
	c1.6-1.4,2.6-1.9,3.2-2.1c0.3-0.1,0.5-0.2,0.7-0.2c0.2-0.1,0.3-0.3,0.3-0.5c0-0.7-0.6-0.7-0.9-0.7h-0.1c-1.4,0-2.3,0.1-3.1,0.1
	c-1,0-3.2-0.1-3.6-0.1c-0.2,0-0.4,0-0.6,0.1c-0.2,0.1-0.3,0.3-0.3,0.7c0,0.6,0.6,0.6,1.1,0.7c0.5,0.1,0.9,0.3,0.9,0.6
	c0,1.3-3.1,4-4,4.9l-4.3,4.2c-0.4,0.4-0.6,0.5-0.7,0.5c0,0,0,0,0,0l0,0c0-0.1,0-0.2,0-0.3c0-0.1,0-0.2,0-0.3v-7.5
	c0-1.8,0.5-2.1,1.1-2.3c0.3-0.1,0.6-0.1,0.8-0.2c0.3-0.1,0.5-0.3,0.5-0.7c0-0.3-0.2-0.4-0.3-0.5c-0.2-0.1-0.4-0.1-0.5-0.1
	c-0.7,0-2.7,0.1-4.5,0.1c-2.2,0-3.3-0.1-3.9-0.1c-0.2,0-0.4,0-0.6,0.1c-0.2,0.1-0.2,0.3-0.2,0.5c0,0.4,0.3,0.7,0.6,0.8
	c1,0.4,2.8,0.1,2.8,3v14.3c0,2.5-0.6,3.1-1.2,3.3c-0.3,0.1-0.6,0.2-0.9,0.3c-0.3,0.1-0.5,0.4-0.5,0.8c0.1,0.5,0.6,0.4,1.2,0.4
	c1,0,2.7-0.1,4.3-0.1c1.9,0,2.7,0.1,3.6,0.1c0.4,0,0.6,0,0.8-0.1c0.2-0.1,0.3-0.3,0.3-0.4c-0.1-0.8-1-0.8-1.7-1
	c-0.8-0.3-1.5-0.7-1.5-2.1v-4.3c0-0.2,0-0.3,0-0.4c0-0.5,0-0.7,0.4-1.1c0.7-0.8,1.3-1.4,1.4-1.3c0,0,0.1,0,0.2,0.2
	c0.1,0.2,0.3,0.4,0.5,0.7l6.5,9c0.6,0.9,1.1,1,1.6,1c0,0,0.1,0,0.1,0c0.9,0,1.6-0.1,2.2-0.1c0.9,0,1.7,0.1,2.5,0.1
	c0.2,0,0.4-0.1,0.5-0.2c0.1-0.1,0.1-0.3,0.1-0.4C-785.3,3291.2-785.5,3291-785.7,3290.9L-785.7,3290.9z M-816.9,3290.8
	c-1.1-0.2-2.9-0.1-3-3v-15.7c0-1.5,0.6-1.9,1.1-2.1c0.3-0.1,0.6-0.2,0.8-0.3c0.3-0.1,0.5-0.3,0.5-0.7c0-0.2-0.1-0.4-0.3-0.5
	c-0.2-0.1-0.5-0.1-1-0.1c-1.9,0-3.1,0.1-4.2,0.1c-1.1,0-2.4-0.1-3.7-0.1c-0.1,0-0.2,0-0.3,0c-0.3,0-0.9,0-1,0.6
	c0.1,0.8,1.1,0.8,2,1.1c0.9,0.3,1.7,0.7,1.7,2.2v15.8c0,1.5-0.5,2-1.1,2.3c-0.5,0.3-1.2,0.4-1.3,1.1c0,0.2,0.1,0.5,0.5,0.5
	c0.9,0,2.3-0.1,3.7-0.1c2.5,0,3.8,0.1,5,0.1c0.4,0,0.7,0,0.9-0.1c0.2-0.1,0.3-0.3,0.3-0.5C-816.2,3291-816.6,3290.8-816.9,3290.8
	L-816.9,3290.8z M-835.7,3268.5c-0.2-0.1-0.3-0.1-0.6-0.1c-0.1,0-0.3,0-0.5,0c-0.9,0-1.8,0.1-2.7,0.1c-0.9,0-1.9-0.1-2.8-0.1
	c-0.1,0-0.2,0-0.4,0c-0.4,0-1.1,0-1.1,0.7c0.1,0.8,1,0.7,1.8,0.9c0.8,0.2,1.5,0.6,1.5,2.1c0,0.5-0.1,1.6-1,3.8l-4.5,10
	c-0.1,0.1-0.1,0.3-0.2,0.4c0,0.1-0.1,0.1-0.1,0.1c0,0,0,0,0,0c0,0,0,0,0,0c-0.1-0.1-0.2-0.4-0.3-0.6l-4.3-10.6
	c-0.8-2-1.2-3.5-1.2-4.5c0-0.6,0.4-0.8,0.9-0.9c0.5-0.2,1.1-0.2,1.1-0.8c0-0.2,0-0.5-0.2-0.6c-0.2-0.1-0.4-0.1-0.8-0.1
	c-0.1,0-0.2,0-0.3,0c-0.5,0-1.5,0.1-3.6,0.1c-1.1,0-2.2-0.1-3.3-0.1c-0.2,0-0.5,0-0.7,0c-0.4,0-0.9,0.1-0.9,0.7
	c0.1,0.4,0.5,0.5,0.6,0.6c1.3,0.3,1.7,0.6,2.3,1.9l8.1,19.1c0.6,1.4,0.9,1.8,1.4,1.8h0c0.5,0,0.7-0.3,1-1.1h0l8.9-19.7
	c0.4-0.9,1-1.4,1.4-1.6c0.4-0.3,0.8-0.4,0.8-0.9C-835.4,3268.8-835.5,3268.6-835.7,3268.5L-835.7,3268.5z M-767.2,3290.8
	c-1.1-0.2-3-0.1-3-3v-15.7c0-1.5,0.6-1.9,1.1-2.1c0.3-0.1,0.6-0.2,0.8-0.3c0.3-0.1,0.5-0.3,0.5-0.7c0-0.2-0.1-0.4-0.3-0.5
	c-0.2-0.1-0.5-0.1-1-0.1c-1.9,0-3.1,0.1-4.2,0.1c-1.1,0-2.4-0.1-3.7-0.1c-0.1,0-0.2,0-0.3,0c-0.3,0-0.9,0-1,0.6
	c0.1,0.8,1.1,0.8,2,1.1c0.9,0.3,1.7,0.7,1.7,2.2v15.8c0,1.5-0.5,2-1.1,2.3c-0.5,0.3-1.2,0.4-1.3,1.1c0,0.2,0.1,0.5,0.5,0.5
	c0.9,0,2.3-0.1,3.7-0.1c2.5,0,3.8,0.1,5,0.1c0.4,0,0.7,0,0.9-0.1c0.2-0.1,0.3-0.3,0.3-0.5C-766.5,3291-766.8,3290.8-767.2,3290.8
	L-767.2,3290.8z"/>
</svg>
