<?xml version="1.0" encoding="utf-8"?>
<!-- Generator: Adobe Illustrator 18.1.0, SVG Export Plug-In . SVG Version: 6.00 Build 0)  -->
<!DOCTYPE svg PUBLIC "-//W3C//DTD SVG 1.1//EN" "http://www.w3.org/Graphics/SVG/1.1/DTD/svg11.dtd">
<svg version="1.1" id="Layer_1" xmlns:sketch="http://www.bohemiancoding.com/sketch/ns"
	 xmlns="http://www.w3.org/2000/svg" xmlns:xlink="http://www.w3.org/1999/xlink" x="0px" y="0px" viewBox="-951 3197.7 365 125"
	 enable-background="new -951 3197.7 365 125" xml:space="preserve">
<title>nordstrom</title>
<desc>Created with Sketch.</desc>
<rect id="Rectangle-84" x="-951" y="3197.7" sketch:type="MSShapeGroup" fill="#FFFFFF" width="365" height="125">
</rect>
<path id="Fill-1" fill="#231F20" d="M-854.3,3243.8c8.4,0,14,6.3,14,15.7c0,9.4-5.7,15.9-14,15.9c-8.3,0-14.2-6.8-14.2-15.9
	C-868.4,3250.3-862.6,3243.8-854.3,3243.8L-854.3,3243.8z M-854.3,3273.3c6.1,0,9.4-5,9.4-13.8c0-8.7-3.3-13.8-9.4-13.8
	c-6.1,0-9.5,5.1-9.5,13.5C-863.8,3268.4-860.5,3273.3-854.3,3273.3L-854.3,3273.3z"/>
<path id="Fill-2" fill="#231F20" d="M-780.9,3259c0,9.8-5.5,15.9-14.9,15.9h-9.5c0,0,0.3-9.7,0.3-15.3c0-5.5-0.3-15.3-0.3-15.3h10.9
	C-785.6,3244.2-780.9,3249.3-780.9,3259L-780.9,3259z M-785.4,3259.1c0-8.3-3.8-13-11.2-13c-3.3,0-4.5,0.1-4.5,0.1s0.3,0.7,0.3,1.9
	c-0.1,2.6-0.1,7.6-0.1,11.3c0,4.1,0.1,8.4,0.1,11c0,1.4-0.3,2.2-0.3,2.2s1.2,0.1,4,0.1C-789.4,3272.9-785.4,3268.1-785.4,3259.1
	L-785.4,3259.1z"/>
<path id="Fill-3" fill="#231F20" d="M-689,3243.8c8.6,0,14.2,6.3,14.2,15.7c0,9.4-5.7,15.9-14.2,15.9c-8.3,0-14-6.8-14-15.9
	C-703,3250.3-697.3,3243.8-689,3243.8L-689,3243.8z M-689,3273.3c6.1,0,9.5-5,9.5-13.8c0-8.7-3.4-13.8-9.5-13.8s-9.4,5.1-9.4,13.5
	C-698.4,3268.4-695.1,3273.3-689,3273.3L-689,3273.3z"/>
<path id="Fill-4" fill="#231F20" d="M-895.1,3264.1c0,7.4,0.4,10.8,0.4,10.8h-3.1c0,0,0.4-12.3,0.4-24.1c0-2.1-0.1-6.5-0.1-6.5h2.2
	c0,0,8.4,12.1,14,20c0.7,1,1.5,2.3,2,3.4c0,0-0.3-2.1-0.3-4v-8.7c0-7.7-0.4-10.8-0.4-10.8h3.1c0,0-0.4,11.3-0.4,24.3
	c0,1.2,0.1,6.3,0.1,6.3h-2.2c0,0-8.3-11.9-14-19.9c-0.8-1.2-1.4-2.1-1.9-3.2c0,0,0.1,2.6,0.1,4V3264.1"/>
<path id="Fill-5" fill="#231F20" d="M-766.9,3273.3c3.5-0.1,6.1-3.2,5.6-6.5c-0.4-2.6-2.3-4.1-5.6-6.1c-4.2-2.3-6.7-4.1-7.1-8.3
	c-0.5-5.1,3.5-8.7,8.6-8.8c2.9-0.1,5.5,0.7,6.4,1v3.3c0,0-2.3-2.3-6.1-2.3c-2.7,0-5.6,1.7-5.6,4.7c0,2.6,2.2,4,5.7,6.2
	c4.9,2.9,7.4,5.2,7.4,9.5c0,5.5-4.4,9.4-9.7,9.4c-2.7,0-5.5-0.6-6.4-1v-3.6C-773.7,3270.8-771.1,3273.5-766.9,3273.3"/>
<path id="Fill-6" fill="#231F20" d="M-733.5,3244.2v2.9c0,0-2.2-0.7-5.9-0.7h-1.9v1.9v7c0,8.6,0.4,19.4,0.4,19.4h-4.8
	c0,0,0.4-10.9,0.4-19.4c0-1.5-0.1-7-0.1-7c0-1.1,0.1-1.9,0.1-1.9h-2c-3.5,0-5.7,0.7-5.7,0.7v-2.9H-733.5"/>
<path id="Fill-7" fill="#231F20" d="M-639.5,3274.8h-4.5c0,0-0.3-11.2-0.7-19v-3.3c0,0-0.5,1.5-1.2,3.2l-8.3,20
	c0,0-4.6-10.8-8.3-18.9c-0.5-1.1-1.2-3.3-1.8-4.3c0.1,1.7,0,3.4-0.1,4.7c-0.5,8-0.7,17.7-0.7,17.7h-2.9l1.9-30.6h2.6
	c0,0,5.6,12.7,9.1,20.5c0.4,1,1,2.1,1.2,3.2c0.3-1.2,0.7-2.2,1.1-3.2c3.3-7.9,8.3-20.5,8.3-20.5h2.6L-639.5,3274.8"/>
<path id="Fill-8" fill="#231F20" d="M-709.3,3251.4c0,4.1-2.5,6.9-6.9,8c2.9,5.4,8.7,15.4,8.7,15.4h-4.8c0,0-2.5-5.2-9-16.8h0.4
	c4.9,0,7.5-2.1,7.5-6.1c0-3.4-2.2-5.8-6.1-5.8c-1.2,0-3,0.1-3,0.1s0.3,0.7,0.3,2.6v15.7c0,6.9,0.3,10.2,0.3,10.2h-4.5
	c0,0,0.3-12,0.3-18.3c0-4.3-0.3-12.3-0.3-12.3h8.9C-712.1,3244.2-709.3,3246.8-709.3,3251.4"/>
<path id="Fill-9" fill="#231F20" d="M-814.5,3251.4c0,4.1-2.6,6.9-6.9,8c2.9,5.4,8.6,15.4,8.6,15.4h-4.8c0,0-2.5-5.2-9-16.8h0.5
	c4.8,0,7.4-2.1,7.4-6.1c0-3.4-2.2-5.8-6.1-5.8c-1.1,0-3,0.1-3,0.1s0.3,0.7,0.3,2.6v15.7c0,6.9,0.3,10.2,0.3,10.2h-4.5
	c0,0,0.4-12,0.4-18.3c0-4.3-0.4-12.3-0.4-12.3h9C-817.5,3244.2-814.5,3246.8-814.5,3251.4"/>
</svg>
