<?xml version="1.0" encoding="utf-8"?>
<!-- Generator: Adobe Illustrator 18.1.0, SVG Export Plug-In . SVG Version: 6.00 Build 0)  -->
<!DOCTYPE svg PUBLIC "-//W3C//DTD SVG 1.1//EN" "http://www.w3.org/Graphics/SVG/1.1/DTD/svg11.dtd">
<svg version="1.1" id="Layer_1" xmlns:sketch="http://www.bohemiancoding.com/sketch/ns"
	 xmlns="http://www.w3.org/2000/svg" xmlns:xlink="http://www.w3.org/1999/xlink" x="0px" y="0px" viewBox="-951 3197.7 365 125"
	 enable-background="new -951 3197.7 365 125" xml:space="preserve">
<title>nyu</title>
<desc>Created with Sketch.</desc>
<rect id="Rectangle-84" x="-951" y="3197.7" sketch:type="MSShapeGroup" fill="#FFFFFF" width="365" height="125">
</rect>
<path id="Fill-26" fill="#5E0D8B" d="M-757.4,3264.4l-17.2-23h-7.5v37.3h8V3255l17.8,23.7h6.9v-37.3h-8V3264.4"/>
<path id="Fill-27" fill="#5E0D8B" d="M-727.2,3256.4l-8.8-15h-9.4l14.1,22.6v14.7h8.1v-14.9l14.1-22.5h-9.2L-727.2,3256.4"/>
<path id="Fill-28" fill="#5E0D8B" d="M-681.7,3241.4v21.4c0,5.9-3,9-7.9,9c-4.9,0-7.9-3.1-7.9-9.2v-21.1h-8.1v21.3
	c0,11,6,16.6,15.9,16.6c9.9,0,16.1-5.5,16.1-16.9v-21.1H-681.7"/>
<path id="Fill-35" fill="#5E0D8B" d="M-863.5,3293.2h64.7v-65.7h-64.7V3293.2z M-823.6,3242c0-0.1,0.1-0.1,0.1,0
	c0.5,0.6,2.3,5.4,1.3,8.1c-0.7,1.7-8,2-9.8,11.1c0,0.1-0.1,0.1-0.2,0c-3.2-7.7,3.1-12.5,4.8-13.8
	C-826.2,3246.3-824.6,3244.2-823.6,3242L-823.6,3242z M-830,3237.9c0-0.1,0.1-0.1,0.2,0c0.5,0.6,2,5,2,7.7c0,0.2,0,0.4-0.1,0.5
	c-1.3,1.2-9.2,6.8-5.3,15.4c0,0.1-0.1,0.2-0.1,0.1c-6.4-4.2-7.8-8.8-1.7-16.1C-834.3,3244.6-830.7,3240.6-830,3237.9L-830,3237.9z
	 M-843.3,3250.4c2-3.3,3.2-6.2,3.3-7.3c0-0.1,0.1-0.1,0.2,0c0.4,0.7,1.5,3.2,1.6,4.2c0,0.2,0,0.3-0.1,0.4c-2.7,4.2-3.4,10,3.2,14
	c0.1,0.1,0.1,0.2,0,0.2C-845.4,3261.6-845.4,3254-843.3,3250.4L-843.3,3250.4z M-832.1,3285.5c-0.2,0.7-1.2,0.5-1.3,0l-2-18.2h5.5
	L-832.1,3285.5L-832.1,3285.5z M-837.3,3263.2h9.3v2.8h-9.3V3263.2z M-830.7,3261.9c-0.1,0-0.1,0-0.1-0.1c0.4-3.4,2.7-7.2,6.5-8.8
	c4.3-1.9,5.8-4.9,6.2-5.8c0.1-0.2,0.2-0.1,0.2,0.1C-818,3251.4-818.8,3262.3-830.7,3261.9L-830.7,3261.9z"/>
</svg>
