<?xml version="1.0" encoding="utf-8"?>
<!-- Generator: Adobe Illustrator 18.1.0, SVG Export Plug-In . SVG Version: 6.00 Build 0)  -->
<!DOCTYPE svg PUBLIC "-//W3C//DTD SVG 1.1//EN" "http://www.w3.org/Graphics/SVG/1.1/DTD/svg11.dtd">
<svg version="1.1" id="Layer_1" xmlns:sketch="http://www.bohemiancoding.com/sketch/ns"
	 xmlns="http://www.w3.org/2000/svg" xmlns:xlink="http://www.w3.org/1999/xlink" x="0px" y="0px" viewBox="-951 3197.7 365 125"
	 enable-background="new -951 3197.7 365 125" xml:space="preserve">
<title>publix</title>
<desc>Created with Sketch.</desc>
<rect id="Rectangle-84" x="-951" y="3197.7" sketch:type="MSShapeGroup" fill="#FFFFFF" width="365" height="125">
</rect>
<path id="Fill-1" fill="#226C42" d="M-734.4,3240.2h8v44.4h-8V3240.2z"/>
<path id="Fill-2" fill="#226C42" d="M-678.2,3275.7c-2.7,5.1-4.7,9.1-4.9,9.1h-8.3l8.5-16.8l-9.9-16.3h8.7l5.1,8.5l4.3-8.5h8.7
	c0,0-4.1,8.2-8.3,16.4l10,16.7h-8.4L-678.2,3275.7"/>
<path id="Fill-3" fill="#226C42" d="M-824.8,3270.4l0-18.7h7.6c0.2,6.1-0.1,13,0,18.8c0,4,3.2,7.4,7.1,7.4c4,0,7.2-3,7.2-6.9l0-19.3
	h7.7c0,9.8-0.1,11.7,0,19c0,8.2-6.8,14.8-14.9,14.8C-818.3,3285.5-824.8,3278.6-824.8,3270.4"/>
<path id="Fill-4" fill="#226C42" d="M-764,3277.6c5.1,0,9.3-4.1,9.3-9.3c0-5.1-4.2-9.2-9.3-9.2c-5.1,0-9.3,4.1-9.3,9.2
	C-773.3,3273.4-769.1,3277.6-764,3277.6 M-764,3250.8c9.7,0,17.5,7.8,17.5,17.5c0,9.7-7.8,17.5-17.5,17.5c-9.7,0-17.6-8.4-17.6-18
	l0-27.6h8l-0.1,13.9C-770.8,3252.2-767.6,3250.8-764,3250.8"/>
<path id="Fill-5" fill="#226C42" d="M-854.4,3265.6c5.1,0,9.2-4.1,9.2-9.2c0-5.1-4.1-9.2-9.2-9.2c-5.1,0-9.2,4.1-9.2,9.2
	C-863.6,3261.5-859.5,3265.6-854.4,3265.6 M-854.4,3238.9c9.7,0,17.5,7.8,17.5,17.5c0,9.7-7.8,17.5-17.5,17.5
	c-3.5,0-6.7-0.9-9.4-2.6l0,13.4h-8l0-28.6C-871.9,3246.4-864,3238.9-854.4,3238.9"/>
<path id="Fill-6" fill="#226C42" d="M-712.8,3251.7h8v33h-8V3251.7z"/>
<path id="Fill-7" fill="#226C42" d="M-703.1,3242.1c0,3.1-2.5,5.6-5.6,5.6s-5.6-2.5-5.6-5.6c0-3.1,2.5-5.6,5.6-5.6
	S-703.1,3239-703.1,3242.1"/>
</svg>
