<?xml version="1.0" encoding="utf-8"?>
<!-- Generator: Adobe Illustrator 18.1.1, SVG Export Plug-In . SVG Version: 6.00 Build 0)  -->
<svg version="1.1" id="Layer_1" xmlns="http://www.w3.org/2000/svg" xmlns:xlink="http://www.w3.org/1999/xlink" x="0px" y="0px"
	 viewBox="18 53 186 46" enable-background="new 18 53 186 46" xml:space="preserve">
<g>
	<path fill="#253351" d="M20.4,83.7c0-1.1,0.5-2.1,1.4-2.7c0.1-0.1,0.3-0.2,0.4-0.3c4.2-2.6,9-3.8,13.7-3.8c4.8,0,9.5,1.3,13.7,3.8
		c0.1,0.1,0.3,0.2,0.4,0.3c0.8,0.6,1.4,1.6,1.4,2.7c0,1.9-1.5,3.4-3.4,3.4c-0.7,0-1.4-0.2-1.9-0.6c-2.2-1.3-4.5-2.2-6.9-2.6v7.8
		c0,1.9-1.5,3.4-3.4,3.4c-1.9,0-3.4-1.5-3.4-3.4v-7.8c-2.4,0.4-4.8,1.3-6.9,2.6c-0.5,0.4-1.2,0.6-1.9,0.6
		C21.9,87.1,20.4,85.6,20.4,83.7z"/>
	<path fill="#4690DC" d="M21.8,73.7c0.1,0.1,0.3,0.2,0.4,0.3c1.5,0.9,3,1.6,4.7,2.2c2.9-1.1,6-1.6,9.1-1.6c3.1,0,6.2,0.5,9.1,1.6
		c1.6-0.6,3.2-1.3,4.7-2.2c0.1-0.1,0.3-0.2,0.4-0.3c0.8-0.6,1.4-1.6,1.4-2.7c0-1.9-1.5-3.4-3.4-3.4c-0.7,0-1.4,0.2-1.9,0.6
		c-2.2,1.3-4.5,2.2-6.9,2.6v-7.8c0-1.9-1.5-3.4-3.4-3.4c-1.8,0-3.4,1.5-3.4,3.4v7.8c-2.4-0.4-4.8-1.3-6.9-2.6
		c-0.5-0.4-1.2-0.6-1.9-0.6c-1.9,0-3.4,1.5-3.4,3.4C20.4,72.1,21,73.1,21.8,73.7z"/>
</g>
<g>
	<g>
		<g enable-background="new    ">
			<path fill="#253351" d="M64.8,82.9c1.1,0,1.9-0.2,2.4-0.6c0.5-0.4,0.8-0.9,0.8-1.6c0-0.4-0.1-0.8-0.3-1c-0.2-0.3-0.4-0.6-0.7-0.8
				c-0.3-0.2-0.7-0.5-1.2-0.7c-0.5-0.2-1-0.4-1.6-0.6c-0.6-0.2-1.1-0.4-1.7-0.7s-1-0.6-1.4-0.9c-0.4-0.4-0.7-0.8-1-1.3
				c-0.3-0.5-0.4-1.1-0.4-1.9c0-1.5,0.5-2.7,1.6-3.6c1.1-0.9,2.5-1.3,4.3-1.3c1.1,0,2,0.1,2.8,0.4c0.8,0.2,1.5,0.5,1.9,0.8l-0.9,2.5
				c-0.6-0.3-1.2-0.5-1.8-0.7c-0.7-0.2-1.3-0.2-2-0.2c-0.8,0-1.5,0.2-1.9,0.5c-0.5,0.3-0.7,0.8-0.7,1.4c0,0.4,0.1,0.7,0.2,1
				c0.2,0.3,0.4,0.5,0.7,0.7c0.3,0.2,0.6,0.4,1,0.6c0.4,0.2,0.8,0.4,1.3,0.5c0.8,0.3,1.5,0.6,2.1,0.9c0.6,0.3,1.2,0.7,1.6,1.1
				c0.4,0.4,0.8,0.9,1,1.5s0.3,1.2,0.3,2c0,1.5-0.5,2.7-1.6,3.5c-1.1,0.8-2.7,1.3-4.7,1.3c-0.7,0-1.3,0-1.9-0.1
				c-0.6-0.1-1.1-0.2-1.5-0.3c-0.4-0.1-0.8-0.3-1.2-0.4c-0.3-0.1-0.6-0.3-0.8-0.4l0.9-2.5c0.4,0.2,1,0.5,1.8,0.7
				C62.9,82.8,63.8,82.9,64.8,82.9z"/>
			<path fill="#253351" d="M85.2,78.8c0,1-0.1,1.9-0.4,2.7c-0.3,0.8-0.6,1.5-1.1,2.1c-0.5,0.6-1.1,1-1.8,1.4
				c-0.7,0.3-1.5,0.5-2.4,0.5c-0.6,0-1.2-0.1-1.7-0.2c-0.5-0.1-0.9-0.3-1.2-0.5v4.9h-2.9V72.9c0.6-0.2,1.3-0.3,2.2-0.5
				c0.9-0.1,1.8-0.2,2.8-0.2c1,0,1.9,0.2,2.7,0.5c0.8,0.3,1.5,0.8,2,1.3c0.6,0.6,1,1.3,1.3,2.1C85.1,76.9,85.2,77.8,85.2,78.8z
				 M82.2,78.9c0-1.3-0.3-2.3-0.9-3.1c-0.6-0.7-1.5-1.1-2.9-1.1c-0.3,0-0.6,0-0.9,0c-0.3,0-0.6,0.1-0.9,0.2v7.3
				c0.3,0.2,0.6,0.3,1,0.5c0.4,0.2,0.9,0.2,1.4,0.2c1.1,0,1.9-0.4,2.4-1.1C82,81.1,82.2,80.1,82.2,78.9z"/>
			<path fill="#253351" d="M92.5,72.1c1,0,1.8,0.1,2.5,0.4c0.7,0.2,1.2,0.6,1.6,1c0.4,0.4,0.7,1,0.9,1.6c0.2,0.6,0.3,1.3,0.3,2.1
				v7.7c-0.5,0.1-1.1,0.2-2.1,0.4c-0.9,0.1-2,0.2-3.1,0.2c-0.8,0-1.5-0.1-2.1-0.2c-0.6-0.1-1.2-0.4-1.6-0.7c-0.4-0.3-0.8-0.7-1-1.3
				c-0.3-0.5-0.4-1.2-0.4-1.9c0-0.7,0.1-1.3,0.4-1.9c0.3-0.5,0.7-0.9,1.2-1.2c0.5-0.3,1.1-0.5,1.7-0.7c0.6-0.1,1.3-0.2,2-0.2
				c0.3,0,0.7,0,1,0.1c0.4,0,0.7,0.1,1.1,0.2v-0.5c0-0.3,0-0.7-0.1-1c-0.1-0.3-0.2-0.6-0.4-0.8c-0.2-0.2-0.5-0.4-0.8-0.5
				c-0.3-0.1-0.8-0.2-1.3-0.2c-0.7,0-1.3,0-1.9,0.1s-1,0.2-1.4,0.3l-0.4-2.4c0.4-0.1,0.9-0.3,1.6-0.4C90.9,72.2,91.7,72.1,92.5,72.1
				z M92.8,83.1c0.9,0,1.6,0,2.1-0.1v-3.3c-0.2,0-0.4-0.1-0.7-0.1c-0.3,0-0.6-0.1-1-0.1c-0.3,0-0.7,0-1,0.1c-0.3,0-0.6,0.1-0.9,0.3
				c-0.3,0.1-0.5,0.3-0.6,0.5c-0.2,0.2-0.2,0.5-0.2,0.9c0,0.7,0.2,1.2,0.7,1.4C91.4,83,92,83.1,92.8,83.1z"/>
			<path fill="#253351" d="M108.5,75.1c-0.2-0.1-0.6-0.2-1-0.3c-0.4-0.1-0.9-0.1-1.5-0.1c-0.3,0-0.7,0-1,0.1
				c-0.4,0.1-0.6,0.1-0.8,0.2v10.2h-2.9V73c0.6-0.2,1.3-0.4,2.1-0.6c0.9-0.2,1.8-0.3,2.8-0.3c0.2,0,0.4,0,0.7,0
				c0.3,0,0.5,0.1,0.8,0.1c0.3,0,0.5,0.1,0.8,0.1s0.4,0.1,0.6,0.2L108.5,75.1z"/>
			<path fill="#253351" d="M114.1,77.4c0.4-0.4,0.8-0.8,1.2-1.3c0.4-0.4,0.8-0.9,1.2-1.3c0.4-0.4,0.8-0.9,1.2-1.3
				c0.4-0.4,0.7-0.8,0.9-1.1h3.5c-0.8,0.9-1.7,1.9-2.6,2.8c-0.9,1-1.8,1.9-2.7,2.8c0.5,0.4,1,0.9,1.5,1.5c0.5,0.6,1.1,1.2,1.6,1.8
				c0.5,0.7,1,1.3,1.4,1.9c0.4,0.7,0.8,1.3,1.1,1.8H119c-0.3-0.5-0.6-1-1-1.6c-0.4-0.6-0.8-1.1-1.2-1.6c-0.4-0.5-0.9-1-1.3-1.5
				c-0.5-0.5-0.9-0.9-1.3-1.2v5.8h-2.9V66.8l2.9-0.5L114.1,77.4L114.1,77.4z"/>
			<path fill="#253351" d="M123.3,78.8c0-0.9,0.1-1.8,0.4-2.6c0.3-0.8,0.7-1.5,1.3-2.1c0.5-0.6,1.2-1.1,2-1.4s1.7-0.5,2.6-0.5
				c1.2,0,2.3,0.2,3.4,0.7l-0.6,2.4c-0.3-0.1-0.7-0.3-1.2-0.4c-0.4-0.1-0.9-0.1-1.4-0.1c-1.2,0-2,0.4-2.6,1.1
				c-0.6,0.7-0.9,1.7-0.9,3.1c0,1.3,0.3,2.3,0.9,3c0.6,0.7,1.5,1.1,2.9,1.1c0.5,0,1,0,1.5-0.1s0.9-0.2,1.3-0.4l0.4,2.4
				c-0.3,0.2-0.8,0.3-1.5,0.4c-0.7,0.1-1.3,0.2-2,0.2c-1.1,0-2-0.2-2.8-0.5s-1.5-0.8-2-1.4c-0.5-0.6-0.9-1.3-1.2-2.1
				C123.4,80.7,123.3,79.8,123.3,78.8z"/>
			<path fill="#253351" d="M134.8,78.9c0-1.1,0.2-2.1,0.5-2.9c0.3-0.8,0.8-1.5,1.3-2.1c0.6-0.6,1.2-1,1.9-1.3
				c0.7-0.3,1.4-0.4,2.2-0.4c1.8,0,3.1,0.5,4.1,1.6c1,1.1,1.5,2.7,1.5,4.9c0,0.2,0,0.3,0,0.5c0,0.2,0,0.4,0,0.5h-8.4
				c0.1,1,0.4,1.8,1.1,2.4c0.6,0.6,1.6,0.8,2.8,0.8c0.7,0,1.4-0.1,2-0.2c0.6-0.1,1.1-0.3,1.4-0.4l0.4,2.4c-0.2,0.1-0.4,0.2-0.7,0.3
				c-0.3,0.1-0.6,0.2-1,0.2c-0.4,0.1-0.8,0.1-1.2,0.2c-0.4,0-0.9,0.1-1.3,0.1c-1.1,0-2.1-0.2-2.9-0.5c-0.8-0.3-1.5-0.8-2-1.4
				c-0.5-0.6-0.9-1.3-1.2-2.1C134.9,80.7,134.8,79.8,134.8,78.9z M143.3,77.6c0-0.4-0.1-0.8-0.2-1.2c-0.1-0.4-0.3-0.7-0.5-0.9
				c-0.2-0.3-0.5-0.5-0.8-0.6c-0.3-0.2-0.7-0.2-1.1-0.2c-0.5,0-0.9,0.1-1.2,0.3c-0.3,0.2-0.6,0.4-0.9,0.7c-0.2,0.3-0.4,0.6-0.5,0.9
				c-0.1,0.4-0.2,0.7-0.3,1.1C137.8,77.6,143.3,77.6,143.3,77.6z"/>
			<path fill="#253351" d="M149.4,72.9c0.6-0.2,1.3-0.3,2.2-0.5c0.9-0.1,1.9-0.2,3-0.2c1,0,1.9,0.1,2.6,0.4c0.7,0.3,1.3,0.7,1.7,1.2
				c0.4,0.5,0.7,1.1,0.9,1.9c0.2,0.7,0.3,1.5,0.3,2.4v7.2h-2.9v-6.7c0-0.7,0-1.3-0.1-1.7s-0.2-0.9-0.4-1.2s-0.5-0.5-0.8-0.7
				c-0.4-0.1-0.8-0.2-1.3-0.2c-0.4,0-0.8,0-1.2,0.1c-0.4,0-0.7,0.1-0.9,0.1v10.3h-2.9L149.4,72.9L149.4,72.9z"/>
			<path fill="#253351" d="M163.5,69.1l2.9-0.5v3.8h4.5v2.5h-4.5v5.2c0,1,0.2,1.8,0.5,2.2c0.3,0.4,0.9,0.7,1.7,0.7
				c0.5,0,1-0.1,1.4-0.2c0.4-0.1,0.7-0.2,1-0.3l0.5,2.3c-0.3,0.1-0.8,0.3-1.3,0.5c-0.6,0.2-1.2,0.2-1.9,0.2c-0.9,0-1.7-0.1-2.3-0.4
				c-0.6-0.2-1.1-0.6-1.4-1.1c-0.4-0.5-0.6-1-0.8-1.7c-0.1-0.7-0.2-1.4-0.2-2.3L163.5,69.1L163.5,69.1z"/>
			<path fill="#253351" d="M181.1,75.1c-0.2-0.1-0.6-0.2-1-0.3c-0.4-0.1-0.9-0.1-1.5-0.1c-0.3,0-0.7,0-1,0.1
				c-0.4,0.1-0.6,0.1-0.8,0.2v10.2h-2.9V73c0.6-0.2,1.3-0.4,2.1-0.6c0.9-0.2,1.8-0.3,2.8-0.3c0.2,0,0.4,0,0.7,0
				c0.3,0,0.5,0.1,0.8,0.1c0.3,0,0.5,0.1,0.8,0.1s0.4,0.1,0.6,0.2L181.1,75.1z"/>
			<path fill="#253351" d="M187.9,72.1c1,0,1.8,0.1,2.5,0.4c0.7,0.2,1.2,0.6,1.6,1c0.4,0.4,0.7,1,0.9,1.6c0.2,0.6,0.3,1.3,0.3,2.1
				v7.7c-0.5,0.1-1.1,0.2-2.1,0.4c-0.9,0.1-2,0.2-3.1,0.2c-0.8,0-1.5-0.1-2.1-0.2c-0.6-0.1-1.2-0.4-1.6-0.7c-0.4-0.3-0.8-0.7-1-1.3
				c-0.3-0.5-0.4-1.2-0.4-1.9c0-0.7,0.1-1.3,0.4-1.9c0.3-0.5,0.7-0.9,1.2-1.2c0.5-0.3,1.1-0.5,1.7-0.7c0.6-0.1,1.3-0.2,2-0.2
				c0.3,0,0.7,0,1,0.1c0.4,0,0.7,0.1,1.1,0.2v-0.5c0-0.3,0-0.7-0.1-1c-0.1-0.3-0.2-0.6-0.4-0.8c-0.2-0.2-0.5-0.4-0.8-0.5
				c-0.3-0.1-0.8-0.2-1.3-0.2c-0.7,0-1.3,0-1.9,0.1s-1,0.2-1.4,0.3l-0.4-2.4c0.4-0.1,0.9-0.3,1.6-0.4
				C186.3,72.2,187.1,72.1,187.9,72.1z M188.1,83.1c0.9,0,1.6,0,2.1-0.1v-3.3c-0.2,0-0.4-0.1-0.7-0.1c-0.3,0-0.6-0.1-1-0.1
				c-0.3,0-0.7,0-1,0.1c-0.3,0-0.6,0.1-0.9,0.3c-0.3,0.1-0.5,0.3-0.6,0.5c-0.2,0.2-0.2,0.5-0.2,0.9c0,0.7,0.2,1.2,0.7,1.4
				C186.8,83,187.4,83.1,188.1,83.1z"/>
			<path fill="#253351" d="M201.1,85.4c-0.9,0-1.6-0.1-2.2-0.3c-0.6-0.2-1-0.4-1.4-0.8c-0.3-0.3-0.6-0.7-0.7-1.2
				c-0.1-0.5-0.2-1.1-0.2-1.7V66.8l2.9-0.5v14.6c0,0.4,0,0.7,0.1,0.9c0.1,0.2,0.2,0.5,0.3,0.6c0.1,0.2,0.3,0.3,0.6,0.4
				c0.3,0.1,0.6,0.2,1,0.2L201.1,85.4z"/>
		</g>
	</g>
</g>
</svg>
