<?xml version="1.0" encoding="utf-8"?>
<!-- Generator: Adobe Illustrator 18.1.0, SVG Export Plug-In . SVG Version: 6.00 Build 0)  -->
<!DOCTYPE svg PUBLIC "-//W3C//DTD SVG 1.1//EN" "http://www.w3.org/Graphics/SVG/1.1/DTD/svg11.dtd">
<svg version="1.1" id="Layer_1" xmlns="http://www.w3.org/2000/svg" xmlns:xlink="http://www.w3.org/1999/xlink" x="0px" y="0px"
	 viewBox="-1040 3236.7 281.8 69.7" enable-background="new -1040 3236.7 281.8 69.7" xml:space="preserve">
<g>
	<path fill="#FFFFFF" d="M-1037.6,3280.3c0-1.7,0.8-3.2,2.1-4.1c0.2-0.1,0.4-0.3,0.7-0.4c6.5-3.9,13.8-5.9,21.1-5.9
		c7.3,0,14.6,2,21.1,5.9c0.2,0.1,0.4,0.3,0.7,0.4c1.3,0.9,2.1,2.4,2.1,4.1c0,2.8-2.3,5.1-5.1,5.1c-1.1,0-2.1-0.3-2.9-0.9
		c-3.3-2-6.9-3.3-10.6-3.9v11.9c0,2.8-2.3,5.1-5.1,5.1c-2.8,0-5.2-2.3-5.2-5.1v-11.9c-3.7,0.6-7.3,1.9-10.6,3.9
		c-0.8,0.6-1.8,0.9-2.9,0.9C-1035.3,3285.4-1037.6,3283.1-1037.6,3280.3z"/>
	<path fill="#FFFFFF" d="M-1035.5,3264.9c0.2,0.1,0.4,0.3,0.7,0.4c2.3,1.4,4.7,2.5,7.1,3.4c4.5-1.6,9.2-2.5,14-2.5
		c4.7,0,9.4,0.8,13.9,2.5c2.5-0.9,4.9-2,7.1-3.4c0.2-0.1,0.4-0.3,0.7-0.4c1.3-0.9,2.1-2.4,2.1-4.1c0-2.8-2.3-5.1-5.1-5.1
		c-1.1,0-2.1,0.3-2.9,0.9c-3.3,2-6.9,3.3-10.6,3.9v-11.9c0-2.8-2.3-5.1-5.2-5.1c-2.8,0-5.1,2.3-5.1,5.1v11.9
		c-3.7-0.6-7.3-1.9-10.6-3.9c-0.8-0.6-1.8-0.9-2.9-0.9c-2.8,0-5.1,2.3-5.1,5.1C-1037.6,3262.4-1036.8,3263.9-1035.5,3264.9z"/>
</g>
<g>
	<g>
		<g enable-background="new    ">
			<path fill="#FFFFFF" d="M-969.4,3279c1.7,0,2.9-0.3,3.7-0.9c0.8-0.6,1.2-1.4,1.2-2.4c0-0.6-0.1-1.2-0.4-1.6
				c-0.3-0.4-0.6-0.9-1.1-1.2c-0.5-0.4-1.1-0.7-1.8-1c-0.7-0.3-1.5-0.6-2.4-0.9c-0.9-0.3-1.8-0.7-2.6-1.1c-0.8-0.4-1.6-0.9-2.2-1.4
				c-0.6-0.6-1.1-1.3-1.5-2.1c-0.4-0.8-0.6-1.8-0.6-2.9c0-2.3,0.8-4.2,2.4-5.5c1.6-1.3,3.8-2,6.6-2c1.6,0,3.1,0.2,4.3,0.5
				c1.3,0.4,2.2,0.8,3,1.2l-1.5,3.8c-0.8-0.5-1.8-0.8-2.8-1.1c-1-0.2-2.1-0.4-3.1-0.4c-1.3,0-2.3,0.3-3,0.8
				c-0.7,0.5-1.1,1.3-1.1,2.2c0,0.6,0.1,1.1,0.4,1.5c0.2,0.4,0.6,0.8,1,1.1c0.4,0.3,0.9,0.6,1.5,0.9c0.6,0.3,1.2,0.5,1.9,0.8
				c1.2,0.4,2.3,0.9,3.3,1.4c1,0.5,1.8,1,2.4,1.6c0.7,0.6,1.2,1.4,1.5,2.2s0.5,1.9,0.5,3.1c0,2.3-0.8,4.2-2.5,5.4
				c-1.7,1.3-4.1,1.9-7.3,1.9c-1.1,0-2.1-0.1-2.9-0.2s-1.7-0.3-2.4-0.5c-0.7-0.2-1.3-0.4-1.8-0.6c-0.5-0.2-0.9-0.4-1.2-0.6l1.4-3.9
				c0.7,0.4,1.6,0.7,2.7,1.1C-972.4,3278.8-971,3279-969.4,3279z"/>
			<path fill="#FFFFFF" d="M-938.1,3272.7c0,1.5-0.2,2.9-0.6,4.1c-0.4,1.2-0.9,2.3-1.7,3.2c-0.7,0.9-1.6,1.6-2.7,2.1
				c-1.1,0.5-2.3,0.7-3.7,0.7c-0.9,0-1.8-0.1-2.5-0.3c-0.8-0.2-1.4-0.5-1.9-0.7v7.6h-4.5v-25.8c0.9-0.2,2.1-0.5,3.4-0.7
				c1.3-0.2,2.8-0.3,4.3-0.3c1.5,0,2.9,0.2,4.1,0.7c1.2,0.5,2.3,1.2,3.1,2c0.9,0.9,1.5,2,2,3.2
				C-938.4,3269.7-938.1,3271.2-938.1,3272.7z M-942.8,3272.8c0-2-0.5-3.6-1.4-4.7c-0.9-1.1-2.4-1.7-4.4-1.7c-0.4,0-0.9,0-1.3,0.1
				c-0.5,0-0.9,0.1-1.4,0.2v11.2c0.4,0.3,0.9,0.5,1.6,0.8c0.7,0.2,1.4,0.4,2.1,0.4c1.6,0,2.8-0.6,3.6-1.7
				C-943.1,3276.2-942.8,3274.7-942.8,3272.8z"/>
			<path fill="#FFFFFF" d="M-927,3262.5c1.5,0,2.8,0.2,3.8,0.6c1,0.4,1.8,0.9,2.4,1.6s1,1.5,1.3,2.4c0.3,1,0.4,2,0.4,3.2v11.9
				c-0.7,0.1-1.8,0.3-3.2,0.5c-1.4,0.2-3,0.3-4.8,0.3c-1.2,0-2.2-0.1-3.2-0.3c-1-0.2-1.8-0.6-2.5-1.1c-0.7-0.5-1.2-1.1-1.6-1.9
				c-0.4-0.8-0.6-1.8-0.6-3c0-1.1,0.2-2.1,0.7-2.8c0.4-0.8,1-1.4,1.8-1.9c0.7-0.5,1.6-0.8,2.6-1c1-0.2,2-0.3,3.1-0.3
				c0.5,0,1,0,1.6,0.1c0.5,0.1,1.1,0.2,1.8,0.3v-0.7c0-0.5-0.1-1-0.2-1.5c-0.1-0.5-0.3-0.9-0.7-1.3c-0.3-0.4-0.7-0.6-1.2-0.8
				c-0.5-0.2-1.2-0.3-1.9-0.3c-1,0-2,0.1-2.9,0.2c-0.9,0.1-1.6,0.3-2.1,0.5l-0.6-3.7c0.6-0.2,1.4-0.4,2.5-0.6
				C-929.4,3262.6-928.2,3262.5-927,3262.5z M-926.6,3279.3c1.4,0,2.5-0.1,3.2-0.2v-5c-0.2-0.1-0.6-0.1-1.1-0.2
				c-0.5-0.1-1-0.1-1.6-0.1c-0.5,0-1,0-1.5,0.1c-0.5,0.1-1,0.2-1.4,0.4c-0.4,0.2-0.7,0.5-1,0.8c-0.2,0.4-0.4,0.8-0.4,1.4
				c0,1.1,0.3,1.8,1,2.2C-928.6,3279.1-927.7,3279.3-926.6,3279.3z"/>
			<path fill="#FFFFFF" d="M-902.3,3267c-0.4-0.1-0.9-0.3-1.6-0.4c-0.7-0.1-1.4-0.2-2.3-0.2c-0.5,0-1,0-1.6,0.1
				c-0.6,0.1-1,0.2-1.2,0.3v15.7h-4.5v-18.6c0.9-0.3,2-0.6,3.3-0.9c1.3-0.3,2.8-0.4,4.4-0.4c0.3,0,0.6,0,1,0.1
				c0.4,0,0.8,0.1,1.2,0.1c0.4,0.1,0.8,0.1,1.2,0.2c0.4,0.1,0.7,0.2,0.9,0.2L-902.3,3267z"/>
			<path fill="#FFFFFF" d="M-893.9,3270.6c0.6-0.6,1.2-1.2,1.8-1.9c0.6-0.7,1.3-1.4,1.9-2.1c0.6-0.7,1.2-1.3,1.8-2
				c0.6-0.6,1-1.2,1.4-1.7h5.3c-1.2,1.4-2.6,2.8-3.9,4.3c-1.4,1.5-2.8,3-4.2,4.4c0.7,0.6,1.5,1.4,2.4,2.3c0.8,0.9,1.6,1.8,2.4,2.8
				c0.8,1,1.5,2,2.2,3c0.7,1,1.2,1.9,1.7,2.8h-5.2c-0.5-0.8-1-1.6-1.5-2.4c-0.6-0.8-1.2-1.7-1.9-2.5c-0.7-0.8-1.4-1.5-2.1-2.3
				c-0.7-0.7-1.4-1.3-2.1-1.8v9h-4.5v-28.3l4.5-0.7L-893.9,3270.6L-893.9,3270.6z"/>
			<path fill="#FFFFFF" d="M-879.8,3272.7c0-1.4,0.2-2.8,0.7-4.1c0.5-1.3,1.1-2.3,1.9-3.3s1.9-1.6,3-2.2c1.2-0.5,2.5-0.8,4-0.8
				c1.8,0,3.6,0.3,5.2,1l-1,3.7c-0.5-0.2-1.1-0.4-1.8-0.6c-0.7-0.1-1.4-0.2-2.1-0.2c-1.8,0-3.1,0.6-4,1.7c-0.9,1.1-1.4,2.7-1.4,4.7
				c0,1.9,0.4,3.5,1.3,4.6c0.9,1.1,2.3,1.7,4.4,1.7c0.8,0,1.5-0.1,2.3-0.2c0.7-0.1,1.4-0.3,1.9-0.6l0.6,3.7
				c-0.5,0.2-1.3,0.5-2.3,0.7c-1,0.2-2,0.3-3.1,0.3c-1.7,0-3.1-0.3-4.4-0.8c-1.2-0.5-2.3-1.2-3.1-2.1c-0.8-0.9-1.4-2-1.8-3.3
				C-879.6,3275.6-879.8,3274.2-879.8,3272.7z"/>
			<path fill="#FFFFFF" d="M-862.1,3272.8c0-1.7,0.3-3.2,0.8-4.5c0.5-1.3,1.2-2.4,2-3.2c0.8-0.9,1.8-1.5,2.9-1.9
				c1.1-0.4,2.2-0.7,3.4-0.7c2.7,0,4.8,0.8,6.3,2.5c1.5,1.7,2.3,4.2,2.3,7.5c0,0.2,0,0.5,0,0.8c0,0.3,0,0.6-0.1,0.8h-12.9
				c0.1,1.6,0.7,2.8,1.7,3.6c1,0.9,2.4,1.3,4.3,1.3c1.1,0,2.1-0.1,3-0.3c0.9-0.2,1.6-0.4,2.1-0.6l0.6,3.7c-0.2,0.1-0.6,0.3-1,0.4
				s-0.9,0.3-1.5,0.4c-0.6,0.1-1.2,0.2-1.8,0.3c-0.6,0.1-1.3,0.1-2,0.1c-1.7,0-3.2-0.3-4.5-0.8c-1.3-0.5-2.3-1.2-3.1-2.1
				c-0.8-0.9-1.4-2-1.8-3.2C-861.9,3275.6-862.1,3274.3-862.1,3272.8z M-849,3270.8c0-0.6-0.1-1.2-0.3-1.8s-0.4-1-0.8-1.5
				c-0.3-0.4-0.7-0.7-1.2-1c-0.5-0.2-1.1-0.4-1.7-0.4c-0.7,0-1.3,0.1-1.8,0.4c-0.5,0.3-1,0.6-1.3,1c-0.4,0.4-0.6,0.9-0.8,1.5
				c-0.2,0.5-0.3,1.1-0.4,1.7C-857.4,3270.8-849,3270.8-849,3270.8z"/>
			<path fill="#FFFFFF" d="M-839.7,3263.6c0.9-0.2,2-0.5,3.4-0.7c1.4-0.2,2.9-0.3,4.6-0.3c1.6,0,2.9,0.2,4,0.7
				c1.1,0.4,1.9,1,2.6,1.8c0.6,0.8,1.1,1.7,1.3,2.8c0.3,1.1,0.4,2.3,0.4,3.6v11h-4.5v-10.3c0-1-0.1-1.9-0.2-2.7
				c-0.1-0.7-0.4-1.3-0.7-1.8c-0.3-0.5-0.7-0.8-1.3-1c-0.5-0.2-1.2-0.3-2-0.3c-0.6,0-1.2,0-1.8,0.1c-0.6,0.1-1.1,0.1-1.4,0.2v15.8
				h-4.5V3263.6L-839.7,3263.6z"/>
			<path fill="#FFFFFF" d="M-818,3257.8l4.5-0.7v5.9h7v3.8h-7v8c0,1.6,0.2,2.7,0.7,3.4c0.5,0.7,1.3,1,2.5,1c0.8,0,1.6-0.1,2.2-0.3
				c0.6-0.2,1.1-0.3,1.5-0.5l0.7,3.6c-0.5,0.2-1.2,0.5-2.1,0.7c-0.8,0.2-1.8,0.4-3,0.4c-1.4,0-2.6-0.2-3.5-0.6
				c-0.9-0.4-1.7-0.9-2.2-1.6c-0.5-0.7-0.9-1.6-1.2-2.6c-0.2-1-0.3-2.2-0.3-3.5L-818,3257.8L-818,3257.8z"/>
			<path fill="#FFFFFF" d="M-791,3267c-0.4-0.1-0.9-0.3-1.6-0.4c-0.7-0.1-1.4-0.2-2.3-0.2c-0.5,0-1,0-1.6,0.1
				c-0.6,0.1-1,0.2-1.2,0.3v15.7h-4.5v-18.6c0.9-0.3,2-0.6,3.3-0.9c1.3-0.3,2.8-0.4,4.4-0.4c0.3,0,0.6,0,1,0.1
				c0.4,0,0.8,0.1,1.2,0.1c0.4,0.1,0.8,0.1,1.2,0.2c0.4,0.1,0.7,0.2,0.9,0.2L-791,3267z"/>
			<path fill="#FFFFFF" d="M-780.6,3262.5c1.5,0,2.8,0.2,3.8,0.6c1,0.4,1.8,0.9,2.4,1.6s1,1.5,1.3,2.4c0.3,1,0.4,2,0.4,3.2v11.9
				c-0.7,0.1-1.8,0.3-3.2,0.5c-1.4,0.2-3,0.3-4.8,0.3c-1.2,0-2.2-0.1-3.2-0.3c-1-0.2-1.8-0.6-2.5-1.1c-0.7-0.5-1.2-1.1-1.6-1.9
				c-0.4-0.8-0.6-1.8-0.6-3c0-1.1,0.2-2.1,0.7-2.8c0.4-0.8,1-1.4,1.8-1.9c0.7-0.5,1.6-0.8,2.6-1c1-0.2,2-0.3,3.1-0.3
				c0.5,0,1,0,1.6,0.1c0.5,0.1,1.1,0.2,1.8,0.3v-0.7c0-0.5-0.1-1-0.2-1.5c-0.1-0.5-0.3-0.9-0.7-1.3c-0.3-0.4-0.7-0.6-1.2-0.8
				c-0.5-0.2-1.2-0.3-1.9-0.3c-1,0-2,0.1-2.9,0.2s-1.6,0.3-2.1,0.5l-0.6-3.7c0.6-0.2,1.4-0.4,2.5-0.6
				C-783,3262.6-781.8,3262.5-780.6,3262.5z M-780.2,3279.3c1.4,0,2.5-0.1,3.2-0.2v-5c-0.2-0.1-0.6-0.1-1.1-0.2
				c-0.5-0.1-1-0.1-1.6-0.1c-0.5,0-1,0-1.5,0.1c-0.5,0.1-1,0.2-1.4,0.4c-0.4,0.2-0.7,0.5-1,0.8c-0.2,0.4-0.4,0.8-0.4,1.4
				c0,1.1,0.3,1.8,1,2.2C-782.3,3279.1-781.4,3279.3-780.2,3279.3z"/>
			<path fill="#FFFFFF" d="M-760.3,3282.9c-1.3,0-2.5-0.2-3.3-0.4c-0.9-0.3-1.6-0.7-2.1-1.2c-0.5-0.5-0.9-1.1-1.1-1.9
				c-0.2-0.8-0.3-1.6-0.3-2.6v-22.5l4.5-0.7v22.4c0,0.5,0,1,0.1,1.4s0.2,0.7,0.5,1c0.2,0.3,0.5,0.5,0.9,0.6c0.4,0.1,0.9,0.2,1.5,0.3
				L-760.3,3282.9z"/>
		</g>
	</g>
</g>
</svg>
