<?xml version="1.0" encoding="utf-8"?>
<!-- Generator: Adobe Illustrator 18.1.1, SVG Export Plug-In . SVG Version: 6.00 Build 0)  -->
<svg version="1.1" id="Layer_1" xmlns="http://www.w3.org/2000/svg" xmlns:xlink="http://www.w3.org/1999/xlink" x="0px" y="0px"
	 viewBox="19.2 114.8 145 28.9" enable-background="new 19.2 114.8 145 28.9" xml:space="preserve">
<path fill="#231F20" d="M27.1,118.3h-6.5v22.6h6.4c3.4,0,5.9-0.8,8.1-2.6c2.6-2.1,4.1-5.3,4.1-8.7C39.2,123,34.3,118.3,27.1,118.3z
	 M32.3,135.3c-1.4,1.2-3.2,1.8-6,1.8H25v-14.9h1.2c2.8,0,4.6,0.5,6,1.8c1.5,1.4,2.4,3.5,2.4,5.6C34.7,131.8,33.8,133.9,32.3,135.3z"
	/>
<rect x="41.3" y="118.3" fill="#231F20" width="4.4" height="22.6"/>
<path fill="#231F20" d="M56.4,127c-2.6-1-3.4-1.6-3.4-2.8c0-1.4,1.4-2.5,3.3-2.5c1.3,0,2.4,0.5,3.5,1.8l2.3-3
	c-1.9-1.7-4.2-2.5-6.6-2.5c-4,0-7,2.8-7,6.5c0,3.1,1.4,4.7,5.6,6.2c1.7,0.6,2.6,1,3,1.3c0.9,0.6,1.3,1.4,1.3,2.3
	c0,1.8-1.5,3.2-3.4,3.2c-2.1,0-3.8-1-4.8-3l-2.8,2.7c2,3,4.5,4.3,7.8,4.3c4.6,0,7.8-3,7.8-7.4C62.9,130.4,61.4,128.8,56.4,127z"/>
<path fill="#231F20" d="M64.3,129.6c0,6.6,5.2,11.8,11.9,11.8c1.9,0,3.5-0.4,5.5-1.3v-5.2c-1.8,1.8-3.3,2.5-5.3,2.5
	c-4.4,0-7.6-3.2-7.6-7.8c0-4.3,3.2-7.7,7.4-7.7c2.1,0,3.7,0.7,5.5,2.5v-5.2c-1.9-1-3.5-1.4-5.4-1.4
	C69.6,117.8,64.3,123.1,64.3,129.6z"/>
<polygon fill="#231F20" points="116.6,133.5 110.6,118.3 105.8,118.3 115.4,141.5 117.7,141.5 127.5,118.3 122.7,118.3 "/>
<polygon fill="#231F20" points="129.5,140.9 142,140.9 142,137.1 133.9,137.1 133.9,131 141.7,131 141.7,127.2 133.9,127.2 
	133.9,122.2 142,122.2 142,118.3 129.5,118.3 "/>
<path fill="#231F20" d="M159.4,125c0-4.2-2.9-6.7-8-6.7h-6.5v22.6h4.4v-9.1h0.6l6.1,9.1h5.4l-7.1-9.5
	C157.6,130.7,159.4,128.5,159.4,125z M150.6,128.7h-1.3v-6.8h1.4c2.7,0,4.2,1.1,4.2,3.3C154.9,127.5,153.4,128.7,150.6,128.7z"/>
<g>
	<g>
		<linearGradient id="SVGID_1_" gradientUnits="userSpaceOnUse" x1="101.3061" y1="139.3158" x2="92.9949" y2="126.303">
			<stop  offset="0" style="stop-color:#F89F20"/>
			<stop  offset="0.2502" style="stop-color:#F79A20"/>
			<stop  offset="0.5331" style="stop-color:#F68D20"/>
			<stop  offset="0.6196" style="stop-color:#F58720"/>
			<stop  offset="0.7232" style="stop-color:#F48120"/>
			<stop  offset="1" style="stop-color:#F37521"/>
		</linearGradient>
		<circle fill="url(#SVGID_1_)" cx="95.2" cy="129.7" r="12"/>
		<linearGradient id="SVGID_2_" gradientUnits="userSpaceOnUse" x1="99.9932" y1="139.1389" x2="87.8462" y2="115.3969">
			<stop  offset="0" style="stop-color:#F58720;stop-opacity:0"/>
			<stop  offset="0.3587" style="stop-color:#E16F27;stop-opacity:0.2704"/>
			<stop  offset="0.703" style="stop-color:#D4602C;stop-opacity:0.5299"/>
			<stop  offset="0.9816" style="stop-color:#D05B2E;stop-opacity:0.74"/>
		</linearGradient>
		<circle opacity="0.65" fill="url(#SVGID_2_)" cx="95.2" cy="129.7" r="12"/>
	</g>
	<g opacity="0.5">
		<defs>
			<circle id="SVGID_3_" opacity="0.5" cx="95.2" cy="129.7" r="12"/>
		</defs>
		<clipPath id="SVGID_4_">
			<use xlink:href="#SVGID_3_"  overflow="visible"/>
		</clipPath>
		<g clip-path="url(#SVGID_4_)">
			<circle fill="#231F20" cx="95.2" cy="129.7" r="12.2"/>
			<circle fill="#242021" cx="95.2" cy="129.7" r="12.2"/>
			<circle fill="#252122" cx="95.2" cy="129.8" r="12.2"/>
			<circle fill="#252223" cx="95.2" cy="129.8" r="12.2"/>
			<circle fill="#262223" cx="95.2" cy="129.8" r="12.2"/>
			<circle fill="#272324" cx="95.2" cy="129.8" r="12.2"/>
			<circle fill="#282425" cx="95.2" cy="129.8" r="12.2"/>
			<circle fill="#292526" cx="95.2" cy="129.8" r="12.2"/>
			<circle fill="#292627" cx="95.3" cy="129.8" r="12.2"/>
			<circle fill="#2A2728" cx="95.3" cy="129.8" r="12.2"/>
			<circle fill="#2B2728" cx="95.3" cy="129.8" r="12.2"/>
			<circle fill="#2C2829" cx="95.3" cy="129.8" r="12.2"/>
			<circle fill="#2D292A" cx="95.3" cy="129.8" r="12.2"/>
			<circle fill="#2D2A2B" cx="95.3" cy="129.8" r="12.2"/>
			<circle fill="#2E2B2C" cx="95.3" cy="129.8" r="12.2"/>
			<circle fill="#2F2C2D" cx="95.3" cy="129.9" r="12.2"/>
			<circle fill="#302C2D" cx="95.3" cy="129.9" r="12.2"/>
			<circle fill="#312D2E" cx="95.3" cy="129.9" r="12.2"/>
			<circle fill="#322E2F" cx="95.3" cy="129.9" r="12.2"/>
			<circle fill="#322F30" cx="95.3" cy="129.9" r="12.2"/>
			<circle fill="#333031" cx="95.3" cy="129.9" r="12.2"/>
			<circle fill="#343132" cx="95.3" cy="129.9" r="12.2"/>
			<circle fill="#353132" cx="95.3" cy="129.9" r="12.2"/>
			<circle fill="#363233" cx="95.4" cy="129.9" r="12.2"/>
			<circle fill="#363334" cx="95.4" cy="129.9" r="12.2"/>
			<circle fill="#373435" cx="95.4" cy="129.9" r="12.2"/>
			<circle fill="#383536" cx="95.4" cy="129.9" r="12.2"/>
			<circle fill="#393637" cx="95.4" cy="129.9" r="12.2"/>
			<circle fill="#3A3638" cx="95.4" cy="130" r="12.2"/>
			<circle fill="#3A3738" cx="95.4" cy="130" r="12.2"/>
			<circle fill="#3B3839" cx="95.4" cy="130" r="12.2"/>
			<circle fill="#3C393A" cx="95.4" cy="130" r="12.2"/>
			<circle fill="#3D3A3B" cx="95.4" cy="130" r="12.2"/>
			<circle fill="#3E3B3C" cx="95.4" cy="130" r="12.2"/>
			<circle fill="#3E3B3D" cx="95.4" cy="130" r="12.2"/>
			<circle fill="#3F3C3D" cx="95.4" cy="130" r="12.2"/>
			<circle fill="#403D3E" cx="95.4" cy="130" r="12.2"/>
			<circle fill="#413E3F" cx="95.4" cy="130" r="12.2"/>
			<circle fill="#423F40" cx="95.5" cy="130" r="12.2"/>
			<circle fill="#424041" cx="95.5" cy="130" r="12.2"/>
			<circle fill="#434042" cx="95.5" cy="130" r="12.2"/>
			<circle fill="#444142" cx="95.5" cy="130" r="12.2"/>
			<circle fill="#454243" cx="95.5" cy="130.1" r="12.2"/>
			<circle fill="#464344" cx="95.5" cy="130.1" r="12.2"/>
			<circle fill="#464445" cx="95.5" cy="130.1" r="12.2"/>
			<circle fill="#474546" cx="95.5" cy="130.1" r="12.2"/>
			<circle fill="#484547" cx="95.5" cy="130.1" r="12.2"/>
			<circle fill="#494648" cx="95.5" cy="130.1" r="12.2"/>
			<circle fill="#4A4748" cx="95.5" cy="130.1" r="12.2"/>
			<circle fill="#4A4849" cx="95.5" cy="130.1" r="12.2"/>
			<circle fill="#4B494A" cx="95.5" cy="130.1" r="12.2"/>
			<circle fill="#4C4A4B" cx="95.5" cy="130.1" r="12.2"/>
			<circle fill="#4D4A4C" cx="95.5" cy="130.1" r="12.2"/>
			<circle fill="#4E4B4D" cx="95.6" cy="130.1" r="12.2"/>
			<circle fill="#4F4C4D" cx="95.6" cy="130.1" r="12.2"/>
			<circle fill="#4F4D4E" cx="95.6" cy="130.2" r="12.2"/>
			<circle fill="#504E4F" cx="95.6" cy="130.2" r="12.2"/>
			<circle fill="#514F50" cx="95.6" cy="130.2" r="12.2"/>
			<circle fill="#524F51" cx="95.6" cy="130.2" r="12.2"/>
			<circle fill="#535052" cx="95.6" cy="130.2" r="12.2"/>
			<circle fill="#535152" cx="95.6" cy="130.2" r="12.2"/>
			<circle fill="#545253" cx="95.6" cy="130.2" r="12.2"/>
			<circle fill="#555354" cx="95.6" cy="130.2" r="12.2"/>
			<circle fill="#565455" cx="95.6" cy="130.2" r="12.2"/>
			<circle fill="#575456" cx="95.6" cy="130.2" r="12.2"/>
			<circle fill="#575557" cx="95.6" cy="130.2" r="12.2"/>
			<circle fill="#585657" cx="95.6" cy="130.2" r="12.2"/>
			<circle fill="#595758" cx="95.6" cy="130.2" r="12.2"/>
			<circle fill="#5A5859" cx="95.7" cy="130.3" r="12.2"/>
			<circle fill="#5B595A" cx="95.7" cy="130.3" r="12.2"/>
			<circle fill="#5B5A5B" cx="95.7" cy="130.3" r="12.2"/>
			<circle fill="#5C5A5C" cx="95.7" cy="130.3" r="12.2"/>
			<circle fill="#5D5B5D" cx="95.7" cy="130.3" r="12.2"/>
			<circle fill="#5E5C5D" cx="95.7" cy="130.3" r="12.2"/>
			<circle fill="#5F5D5E" cx="95.7" cy="130.3" r="12.2"/>
			<circle fill="#5F5E5F" cx="95.7" cy="130.3" r="12.2"/>
			<circle fill="#605F60" cx="95.7" cy="130.3" r="12.2"/>
			<circle fill="#615F61" cx="95.7" cy="130.3" r="12.2"/>
			<circle fill="#626062" cx="95.7" cy="130.3" r="12.2"/>
			<circle fill="#636162" cx="95.7" cy="130.3" r="12.2"/>
			<circle fill="#636263" cx="95.7" cy="130.3" r="12.1"/>
			<circle fill="#646364" cx="95.7" cy="130.4" r="12.1"/>
			<circle fill="#656465" cx="95.7" cy="130.4" r="12.1"/>
			<circle fill="#666466" cx="95.7" cy="130.4" r="12.1"/>
			<circle fill="#676567" cx="95.8" cy="130.4" r="12.1"/>
			<circle fill="#686667" cx="95.8" cy="130.4" r="12.1"/>
			<circle fill="#686768" cx="95.8" cy="130.4" r="12.1"/>
			<circle fill="#696869" cx="95.8" cy="130.4" r="12.1"/>
			<circle fill="#6A696A" cx="95.8" cy="130.4" r="12.1"/>
			<circle fill="#6B696B" cx="95.8" cy="130.4" r="12.1"/>
			<circle fill="#6C6A6C" cx="95.8" cy="130.4" r="12.1"/>
			<circle fill="#6C6B6D" cx="95.8" cy="130.4" r="12.1"/>
			<circle fill="#6D6C6D" cx="95.8" cy="130.4" r="12.1"/>
			<circle fill="#6E6D6E" cx="95.8" cy="130.4" r="12.1"/>
			<circle fill="#6F6E6F" cx="95.8" cy="130.5" r="12.1"/>
			<circle fill="#706E70" cx="95.8" cy="130.5" r="12.1"/>
			<circle fill="#706F71" cx="95.8" cy="130.5" r="12.1"/>
			<circle fill="#717072" cx="95.8" cy="130.5" r="12.1"/>
			<circle fill="#727172" cx="95.8" cy="130.5" r="12.1"/>
			<circle fill="#737273" cx="95.9" cy="130.5" r="12.1"/>
			<circle fill="#747374" cx="95.9" cy="130.5" r="12.1"/>
			<circle fill="#747375" cx="95.9" cy="130.5" r="12.1"/>
			<circle fill="#757476" cx="95.9" cy="130.5" r="12.1"/>
			<circle fill="#767577" cx="95.9" cy="130.5" r="12.1"/>
			<circle fill="#777677" cx="95.9" cy="130.5" r="12.1"/>
			<circle fill="#787778" cx="95.9" cy="130.5" r="12.1"/>
			<circle fill="#787879" cx="95.9" cy="130.5" r="12.1"/>
			<circle fill="#79787A" cx="95.9" cy="130.6" r="12.1"/>
			<circle fill="#7A797B" cx="95.9" cy="130.6" r="12.1"/>
			<circle fill="#7B7A7C" cx="95.9" cy="130.6" r="12.1"/>
			<circle fill="#7C7B7C" cx="95.9" cy="130.6" r="12.1"/>
			<circle fill="#7C7C7D" cx="95.9" cy="130.6" r="12.1"/>
			<circle fill="#7D7D7E" cx="95.9" cy="130.6" r="12.1"/>
			<circle fill="#7E7D7F" cx="95.9" cy="130.6" r="12.1"/>
			<circle fill="#7F7E80" cx="96" cy="130.6" r="12.1"/>
			<circle fill="#807F81" cx="96" cy="130.6" r="12.1"/>
			<circle fill="#808082" cx="96" cy="130.6" r="12.1"/>
			<circle fill="#818182" cx="96" cy="130.6" r="12.1"/>
			<circle fill="#828283" cx="96" cy="130.6" r="12.1"/>
			<circle fill="#838284" cx="96" cy="130.6" r="12.1"/>
			<circle fill="#848385" cx="96" cy="130.7" r="12.1"/>
			<circle fill="#858486" cx="96" cy="130.7" r="12.1"/>
			<circle fill="#858587" cx="96" cy="130.7" r="12.1"/>
			<circle fill="#868687" cx="96" cy="130.7" r="12.1"/>
			<circle fill="#878788" cx="96" cy="130.7" r="12.1"/>
			<circle fill="#888789" cx="96" cy="130.7" r="12.1"/>
			<circle fill="#89888A" cx="96" cy="130.7" r="12.1"/>
			<circle fill="#89898B" cx="96" cy="130.7" r="12.1"/>
			<circle fill="#8A8A8C" cx="96" cy="130.7" r="12.1"/>
			<circle fill="#8B8B8C" cx="96.1" cy="130.7" r="12.1"/>
			<circle fill="#8C8C8D" cx="96.1" cy="130.7" r="12.1"/>
			<circle fill="#8D8C8E" cx="96.1" cy="130.7" r="12.1"/>
			<circle fill="#8D8D8F" cx="96.1" cy="130.7" r="12.1"/>
			<circle fill="#8E8E90" cx="96.1" cy="130.8" r="12.1"/>
			<circle fill="#8F8F91" cx="96.1" cy="130.8" r="12.1"/>
			<circle fill="#909092" cx="96.1" cy="130.8" r="12.1"/>
			<circle fill="#919192" cx="96.1" cy="130.8" r="12.1"/>
			<circle fill="#919293" cx="96.1" cy="130.8" r="12.1"/>
			<circle fill="#929294" cx="96.1" cy="130.8" r="12.1"/>
			<circle fill="#939395" cx="96.1" cy="130.8" r="12.1"/>
			<circle fill="#949496" cx="96.1" cy="130.8" r="12.1"/>
			<circle fill="#959597" cx="96.1" cy="130.8" r="12.1"/>
			<circle fill="#959697" cx="96.1" cy="130.8" r="12.1"/>
			<circle fill="#969798" cx="96.1" cy="130.8" r="12.1"/>
			<circle fill="#979799" cx="96.2" cy="130.8" r="12.1"/>
			<circle fill="#98989A" cx="96.2" cy="130.8" r="12.1"/>
			<circle fill="#99999B" cx="96.2" cy="130.9" r="12.1"/>
			<circle fill="#999A9C" cx="96.2" cy="130.9" r="12.1"/>
			<circle fill="#9A9B9C" cx="96.2" cy="130.9" r="12.1"/>
			<circle fill="#9B9C9D" cx="96.2" cy="130.9" r="12.1"/>
			<circle fill="#9C9C9E" cx="96.2" cy="130.9" r="12.1"/>
			<circle fill="#9D9D9F" cx="96.2" cy="130.9" r="12.1"/>
			<circle fill="#9E9EA0" cx="96.2" cy="130.9" r="12.1"/>
			<circle fill="#9E9FA1" cx="96.2" cy="130.9" r="12.1"/>
			<circle fill="#9FA0A1" cx="96.2" cy="130.9" r="12.1"/>
			<circle fill="#A0A1A2" cx="96.2" cy="130.9" r="12.1"/>
			<circle fill="#A1A1A3" cx="96.2" cy="130.9" r="12.1"/>
			<circle fill="#A2A2A4" cx="96.2" cy="130.9" r="12.1"/>
			<circle fill="#A2A3A5" cx="96.2" cy="130.9" r="12.1"/>
			<circle fill="#A3A4A6" cx="96.3" cy="131" r="12.1"/>
			<circle fill="#A4A5A7" cx="96.3" cy="131" r="12.1"/>
			<circle fill="#A5A6A7" cx="96.3" cy="131" r="12.1"/>
			<circle fill="#A6A6A8" cx="96.3" cy="131" r="12.1"/>
			<circle fill="#A6A7A9" cx="96.3" cy="131" r="12.1"/>
			<circle fill="#A7A8AA" cx="96.3" cy="131" r="12"/>
			<circle fill="#A8A9AB" cx="96.3" cy="131" r="12"/>
			<circle fill="#A9AAAC" cx="96.3" cy="131" r="12"/>
			<circle fill="#AAABAC" cx="96.3" cy="131" r="12"/>
			<circle fill="#AAABAD" cx="96.3" cy="131" r="12"/>
			<circle fill="#ABACAE" cx="96.3" cy="131" r="12"/>
			<circle fill="#ACADAF" cx="96.3" cy="131" r="12"/>
			<circle fill="#ADAEB0" cx="96.3" cy="131" r="12"/>
			<circle fill="#AEAFB1" cx="96.3" cy="131.1" r="12"/>
			<circle fill="#AEB0B1" cx="96.3" cy="131.1" r="12"/>
			<circle fill="#AFB0B2" cx="96.4" cy="131.1" r="12"/>
			<circle fill="#B0B1B3" cx="96.4" cy="131.1" r="12"/>
			<circle fill="#B1B2B4" cx="96.4" cy="131.1" r="12"/>
			<circle fill="#B2B3B5" cx="96.4" cy="131.1" r="12"/>
			<circle fill="#B2B4B6" cx="96.4" cy="131.1" r="12"/>
			<circle fill="#B3B5B7" cx="96.4" cy="131.1" r="12"/>
			<circle fill="#B4B5B7" cx="96.4" cy="131.1" r="12"/>
			<circle fill="#B5B6B8" cx="96.4" cy="131.1" r="12"/>
			<circle fill="#B6B7B9" cx="96.4" cy="131.1" r="12"/>
			<circle fill="#B6B8BA" cx="96.4" cy="131.1" r="12"/>
			<circle fill="#B7B9BB" cx="96.4" cy="131.1" r="12"/>
			<circle fill="#B8BABC" cx="96.4" cy="131.2" r="12"/>
			<circle fill="#B9BABC" cx="96.4" cy="131.2" r="12"/>
			<circle fill="#BABBBD" cx="96.4" cy="131.2" r="12"/>
			<circle fill="#BBBCBE" cx="96.4" cy="131.2" r="12"/>
			<circle fill="#BBBDBF" cx="96.5" cy="131.2" r="12"/>
			<circle fill="#BCBEC0" cx="96.5" cy="131.2" r="12"/>
			<circle fill="#BDBFC1" cx="96.5" cy="131.2" r="12"/>
			<circle fill="#BEBFC1" cx="96.5" cy="131.2" r="12"/>
			<circle fill="#BFC0C2" cx="96.5" cy="131.2" r="12"/>
			<circle fill="#BFC1C3" cx="96.5" cy="131.2" r="12"/>
			<circle fill="#C0C2C4" cx="96.5" cy="131.2" r="12"/>
			<circle fill="#C1C3C5" cx="96.5" cy="131.2" r="12"/>
			<circle fill="#C2C4C6" cx="96.5" cy="131.2" r="12"/>
			<circle fill="#C3C4C6" cx="96.5" cy="131.3" r="12"/>
			<circle fill="#C3C5C7" cx="96.5" cy="131.3" r="12"/>
			<circle fill="#C4C6C8" cx="96.5" cy="131.3" r="12"/>
			<circle fill="#C5C7C9" cx="96.5" cy="131.3" r="12"/>
			<circle opacity="0.995" fill="#C5C7C9" cx="96.5" cy="131.3" r="12"/>
			<circle opacity="0.99" fill="#C6C8CA" cx="96.5" cy="131.3" r="12"/>
			<circle opacity="0.9851" fill="#C6C8CA" cx="96.5" cy="131.3" r="12"/>
			<circle opacity="0.9801" fill="#C6C8CA" cx="96.6" cy="131.3" r="12"/>
			<circle opacity="0.9751" fill="#C6C8CA" cx="96.6" cy="131.3" r="12"/>
			<circle opacity="0.9701" fill="#C7C9CB" cx="96.6" cy="131.3" r="12"/>
			<circle opacity="0.9652" fill="#C7C9CB" cx="96.6" cy="131.3" r="12"/>
			<circle opacity="0.9602" fill="#C7C9CB" cx="96.6" cy="131.3" r="12"/>
			<circle opacity="0.9552" fill="#C8CACB" cx="96.6" cy="131.3" r="12"/>
			<circle opacity="0.9502" fill="#C8CACC" cx="96.6" cy="131.3" r="12"/>
			<circle opacity="0.9453" fill="#C8CACC" cx="96.6" cy="131.3" r="12"/>
			<circle opacity="0.9403" fill="#C8CACC" cx="96.6" cy="131.4" r="12"/>
			<circle opacity="0.9353" fill="#C9CBCC" cx="96.6" cy="131.4" r="12"/>
			<circle opacity="0.9303" fill="#C9CBCD" cx="96.6" cy="131.4" r="12"/>
			<circle opacity="0.9254" fill="#C9CBCD" cx="96.6" cy="131.4" r="12"/>
			<circle opacity="0.9204" fill="#CACBCD" cx="96.6" cy="131.4" r="12"/>
			<circle opacity="0.9154" fill="#CACCCE" cx="96.6" cy="131.4" r="12"/>
			<circle opacity="0.9104" fill="#CACCCE" cx="96.6" cy="131.4" r="12"/>
			<circle opacity="0.9055" fill="#CACCCE" cx="96.6" cy="131.4" r="12"/>
			<circle opacity="0.9005" fill="#CBCDCE" cx="96.6" cy="131.4" r="12"/>
			<circle opacity="0.8955" fill="#CBCDCF" cx="96.7" cy="131.4" r="12"/>
			<circle opacity="0.8905" fill="#CBCDCF" cx="96.7" cy="131.4" r="12"/>
			<circle opacity="0.8856" fill="#CCCDCF" cx="96.7" cy="131.4" r="12"/>
			<circle opacity="0.8806" fill="#CCCECF" cx="96.7" cy="131.4" r="12"/>
			<circle opacity="0.8756" fill="#CCCED0" cx="96.7" cy="131.4" r="12"/>
			<circle opacity="0.8706" fill="#CDCED0" cx="96.7" cy="131.5" r="12"/>
			<circle opacity="0.8657" fill="#CDCFD0" cx="96.7" cy="131.5" r="12"/>
			<circle opacity="0.8607" fill="#CDCFD1" cx="96.7" cy="131.5" r="12"/>
			<circle opacity="0.8557" fill="#CDCFD1" cx="96.7" cy="131.5" r="12"/>
			<circle opacity="0.8507" fill="#CECFD1" cx="96.7" cy="131.5" r="12"/>
			<circle opacity="0.8458" fill="#CED0D1" cx="96.7" cy="131.5" r="12"/>
			<circle opacity="0.8408" fill="#CED0D2" cx="96.7" cy="131.5" r="12"/>
			<circle opacity="0.8358" fill="#CFD0D2" cx="96.7" cy="131.5" r="12"/>
			<circle opacity="0.8308" fill="#CFD0D2" cx="96.7" cy="131.5" r="12"/>
			<circle opacity="0.8259" fill="#CFD1D2" cx="96.7" cy="131.5" r="12"/>
			<circle opacity="0.8209" fill="#CFD1D3" cx="96.7" cy="131.5" r="12"/>
			<circle opacity="0.8159" fill="#D0D1D3" cx="96.7" cy="131.5" r="12"/>
			<circle opacity="0.8109" fill="#D0D2D3" cx="96.8" cy="131.5" r="12"/>
			<circle opacity="0.806" fill="#D0D2D3" cx="96.8" cy="131.5" r="12"/>
			<circle opacity="0.801" fill="#D1D2D4" cx="96.8" cy="131.6" r="12"/>
			<circle opacity="0.796" fill="#D1D2D4" cx="96.8" cy="131.6" r="12"/>
			<circle opacity="0.791" fill="#D1D3D4" cx="96.8" cy="131.6" r="12"/>
			<circle opacity="0.7861" fill="#D1D3D5" cx="96.8" cy="131.6" r="12"/>
			<circle opacity="0.7811" fill="#D2D3D5" cx="96.8" cy="131.6" r="12"/>
			<circle opacity="0.7761" fill="#D2D4D5" cx="96.8" cy="131.6" r="12"/>
			<circle opacity="0.7711" fill="#D2D4D5" cx="96.8" cy="131.6" r="12"/>
			<circle opacity="0.7662" fill="#D3D4D6" cx="96.8" cy="131.6" r="12"/>
			<circle opacity="0.7612" fill="#D3D4D6" cx="96.8" cy="131.6" r="12"/>
			<circle opacity="0.7562" fill="#D3D5D6" cx="96.8" cy="131.6" r="12"/>
			<circle opacity="0.7512" fill="#D3D5D6" cx="96.8" cy="131.6" r="12"/>
			<circle opacity="0.7463" fill="#D4D5D7" cx="96.8" cy="131.6" r="12"/>
			<circle opacity="0.7413" fill="#D4D5D7" cx="96.8" cy="131.6" r="12"/>
			<circle opacity="0.7363" fill="#D4D6D7" cx="96.8" cy="131.6" r="12"/>
			<circle opacity="0.7313" fill="#D5D6D8" cx="96.8" cy="131.6" r="12"/>
			<circle opacity="0.7264" fill="#D5D6D8" cx="96.8" cy="131.7" r="12"/>
			<circle opacity="0.7214" fill="#D5D7D8" cx="96.9" cy="131.7" r="12"/>
			<circle opacity="0.7164" fill="#D5D7D8" cx="96.9" cy="131.7" r="12"/>
			<circle opacity="0.7114" fill="#D6D7D9" cx="96.9" cy="131.7" r="12"/>
			<circle opacity="0.7065" fill="#D6D7D9" cx="96.9" cy="131.7" r="12"/>
			<circle opacity="0.7015" fill="#D6D8D9" cx="96.9" cy="131.7" r="12"/>
			<circle opacity="0.6965" fill="#D7D8D9" cx="96.9" cy="131.7" r="12"/>
			<circle opacity="0.6915" fill="#D7D8DA" cx="96.9" cy="131.7" r="12"/>
			<circle opacity="0.6866" fill="#D7D9DA" cx="96.9" cy="131.7" r="12"/>
			<circle opacity="0.6816" fill="#D7D9DA" cx="96.9" cy="131.7" r="12"/>
			<circle opacity="0.6766" fill="#D8D9DA" cx="96.9" cy="131.7" r="12"/>
			<circle opacity="0.6716" fill="#D8D9DB" cx="96.9" cy="131.7" r="12"/>
			<circle opacity="0.6667" fill="#D8DADB" cx="96.9" cy="131.7" r="12"/>
			<circle opacity="0.6617" fill="#D9DADB" cx="96.9" cy="131.7" r="12"/>
			<circle opacity="0.6567" fill="#D9DADC" cx="96.9" cy="131.8" r="12"/>
			<circle opacity="0.6517" fill="#D9DBDC" cx="96.9" cy="131.8" r="12"/>
			<circle opacity="0.6468" fill="#D9DBDC" cx="96.9" cy="131.8" r="12"/>
			<circle opacity="0.6418" fill="#DADBDC" cx="96.9" cy="131.8" r="12"/>
			<circle opacity="0.6368" fill="#DADBDD" cx="97" cy="131.8" r="12"/>
			<circle opacity="0.6318" fill="#DADCDD" cx="97" cy="131.8" r="12"/>
			<circle opacity="0.6269" fill="#DBDCDD" cx="97" cy="131.8" r="12"/>
			<circle opacity="0.6219" fill="#DBDCDD" cx="97" cy="131.8" r="12"/>
			<circle opacity="0.6169" fill="#DBDCDE" cx="97" cy="131.8" r="12"/>
			<circle opacity="0.6119" fill="#DCDDDE" cx="97" cy="131.8" r="12"/>
			<circle opacity="0.607" fill="#DCDDDE" cx="97" cy="131.8" r="12"/>
			<circle opacity="0.602" fill="#DCDDDE" cx="97" cy="131.8" r="12"/>
			<circle opacity="0.597" fill="#DCDEDF" cx="97" cy="131.8" r="12"/>
			<circle opacity="0.592" fill="#DDDEDF" cx="97" cy="131.8" r="12"/>
			<circle opacity="0.5871" fill="#DDDEDF" cx="97" cy="131.8" r="12"/>
			<circle opacity="0.5821" fill="#DDDEE0" cx="97" cy="131.9" r="12"/>
			<circle opacity="0.5771" fill="#DEDFE0" cx="97" cy="131.9" r="12"/>
			<circle opacity="0.5721" fill="#DEDFE0" cx="97" cy="131.9" r="12"/>
			<circle opacity="0.5672" fill="#DEDFE0" cx="97" cy="131.9" r="12"/>
			<circle opacity="0.5622" fill="#DEE0E1" cx="97" cy="131.9" r="12"/>
			<circle opacity="0.5572" fill="#DFE0E1" cx="97" cy="131.9" r="12"/>
			<circle opacity="0.5522" fill="#DFE0E1" cx="97" cy="131.9" r="12"/>
			<circle opacity="0.5473" fill="#DFE0E1" cx="97.1" cy="131.9" r="12"/>
			<circle opacity="0.5423" fill="#E0E1E2" cx="97.1" cy="131.9" r="12"/>
			<circle opacity="0.5373" fill="#E0E1E2" cx="97.1" cy="131.9" r="12"/>
			<circle opacity="0.5323" fill="#E0E1E2" cx="97.1" cy="131.9" r="12"/>
			<circle opacity="0.5274" fill="#E0E1E3" cx="97.1" cy="131.9" r="12"/>
			<circle opacity="0.5224" fill="#E1E2E3" cx="97.1" cy="131.9" r="12"/>
			<circle opacity="0.5174" fill="#E1E2E3" cx="97.1" cy="131.9" r="12"/>
			<circle opacity="0.5124" fill="#E1E2E3" cx="97.1" cy="132" r="12"/>
			<circle opacity="0.5075" fill="#E2E3E4" cx="97.1" cy="132" r="12"/>
			<circle opacity="0.5025" fill="#E2E3E4" cx="97.1" cy="132" r="12"/>
			<circle opacity="0.4975" fill="#E2E3E4" cx="97.1" cy="132" r="12"/>
			<circle opacity="0.4925" fill="#E2E3E4" cx="97.1" cy="132" r="12"/>
			<circle opacity="0.4876" fill="#E3E4E5" cx="97.1" cy="132" r="12"/>
			<circle opacity="0.4826" fill="#E3E4E5" cx="97.1" cy="132" r="12"/>
			<circle opacity="0.4776" fill="#E3E4E5" cx="97.1" cy="132" r="12"/>
			<circle opacity="0.4726" fill="#E4E5E5" cx="97.1" cy="132" r="12"/>
			<circle opacity="0.4677" fill="#E4E5E6" cx="97.1" cy="132" r="12"/>
			<circle opacity="0.4627" fill="#E4E5E6" cx="97.2" cy="132" r="12"/>
			<circle opacity="0.4577" fill="#E4E5E6" cx="97.2" cy="132" r="12"/>
			<circle opacity="0.4527" fill="#E5E6E7" cx="97.2" cy="132" r="12"/>
			<circle opacity="0.4478" fill="#E5E6E7" cx="97.2" cy="132" r="12"/>
			<circle opacity="0.4428" fill="#E5E6E7" cx="97.2" cy="132" r="12"/>
			<circle opacity="0.4378" fill="#E6E6E7" cx="97.2" cy="132.1" r="12"/>
			<circle opacity="0.4328" fill="#E6E7E8" cx="97.2" cy="132.1" r="12"/>
			<circle opacity="0.4279" fill="#E6E7E8" cx="97.2" cy="132.1" r="12"/>
			<circle opacity="0.4229" fill="#E6E7E8" cx="97.2" cy="132.1" r="12"/>
			<circle opacity="0.4179" fill="#E7E8E8" cx="97.2" cy="132.1" r="12"/>
			<circle opacity="0.4129" fill="#E7E8E9" cx="97.2" cy="132.1" r="12"/>
			<circle opacity="0.408" fill="#E7E8E9" cx="97.2" cy="132.1" r="12"/>
			<circle opacity="0.403" fill="#E8E8E9" cx="97.2" cy="132.1" r="12"/>
			<circle opacity="0.398" fill="#E8E9EA" cx="97.2" cy="132.1" r="12"/>
			<circle opacity="0.393" fill="#E8E9EA" cx="97.2" cy="132.1" r="12"/>
			<circle opacity="0.3881" fill="#E8E9EA" cx="97.2" cy="132.1" r="12"/>
			<circle opacity="0.3831" fill="#E9EAEA" cx="97.2" cy="132.1" r="12"/>
			<circle opacity="0.3781" fill="#E9EAEB" cx="97.2" cy="132.1" r="12"/>
			<circle opacity="0.3731" fill="#E9EAEB" cx="97.3" cy="132.1" r="12"/>
			<circle opacity="0.3682" fill="#EAEAEB" cx="97.3" cy="132.2" r="12"/>
			<circle opacity="0.3632" fill="#EAEBEB" cx="97.3" cy="132.2" r="12"/>
			<circle opacity="0.3582" fill="#EAEBEC" cx="97.3" cy="132.2" r="12"/>
			<circle opacity="0.3532" fill="#EBEBEC" cx="97.3" cy="132.2" r="12"/>
			<circle opacity="0.3483" fill="#EBEBEC" cx="97.3" cy="132.2" r="12"/>
			<circle opacity="0.3433" fill="#EBECEC" cx="97.3" cy="132.2" r="12"/>
			<circle opacity="0.3383" fill="#EBECED" cx="97.3" cy="132.2" r="12"/>
			<circle opacity="0.3333" fill="#ECECED" cx="97.3" cy="132.2" r="12"/>
			<circle opacity="0.3284" fill="#ECEDED" cx="97.3" cy="132.2" r="12"/>
			<circle opacity="0.3234" fill="#ECEDEE" cx="97.3" cy="132.2" r="12"/>
			<circle opacity="0.3184" fill="#EDEDEE" cx="97.3" cy="132.2" r="12"/>
			<circle opacity="0.3134" fill="#EDEDEE" cx="97.3" cy="132.2" r="12"/>
			<circle opacity="0.3085" fill="#EDEEEE" cx="97.3" cy="132.2" r="12"/>
			<circle opacity="0.3035" fill="#EDEEEF" cx="97.3" cy="132.2" r="12"/>
			<circle opacity="0.2985" fill="#EEEEEF" cx="97.3" cy="132.2" r="12"/>
			<circle opacity="0.2935" fill="#EEEFEF" cx="97.3" cy="132.3" r="12"/>
			<circle opacity="0.2886" fill="#EEEFEF" cx="97.4" cy="132.3" r="12"/>
			<circle opacity="0.2836" fill="#EFEFF0" cx="97.4" cy="132.3" r="12"/>
			<circle opacity="0.2786" fill="#EFEFF0" cx="97.4" cy="132.3" r="12"/>
			<circle opacity="0.2736" fill="#EFF0F0" cx="97.4" cy="132.3" r="12"/>
			<circle opacity="0.2687" fill="#EFF0F0" cx="97.4" cy="132.3" r="12"/>
			<circle opacity="0.2637" fill="#F0F0F1" cx="97.4" cy="132.3" r="12"/>
			<circle opacity="0.2587" fill="#F0F1F1" cx="97.4" cy="132.3" r="12"/>
			<circle opacity="0.2537" fill="#F0F1F1" cx="97.4" cy="132.3" r="12"/>
			<circle opacity="0.2488" fill="#F1F1F2" cx="97.4" cy="132.3" r="12"/>
			<circle opacity="0.2438" fill="#F1F1F2" cx="97.4" cy="132.3" r="12"/>
			<circle opacity="0.2388" fill="#F1F2F2" cx="97.4" cy="132.3" r="12"/>
			<circle opacity="0.2338" fill="#F1F2F2" cx="97.4" cy="132.3" r="12"/>
			<circle opacity="0.2289" fill="#F2F2F3" cx="97.4" cy="132.3" r="12"/>
			<circle opacity="0.2239" fill="#F2F2F3" cx="97.4" cy="132.4" r="12"/>
			<circle opacity="0.2189" fill="#F2F3F3" cx="97.4" cy="132.4" r="12"/>
			<circle opacity="0.2139" fill="#F3F3F3" cx="97.4" cy="132.4" r="12"/>
			<circle opacity="0.209" fill="#F3F3F4" cx="97.4" cy="132.4" r="12"/>
			<circle opacity="0.204" fill="#F3F4F4" cx="97.4" cy="132.4" r="12"/>
			<circle opacity="0.199" fill="#F3F4F4" cx="97.5" cy="132.4" r="12"/>
			<circle opacity="0.194" fill="#F4F4F5" cx="97.5" cy="132.4" r="12"/>
			<circle opacity="0.1891" fill="#F4F4F5" cx="97.5" cy="132.4" r="12"/>
			<circle opacity="0.1841" fill="#F4F5F5" cx="97.5" cy="132.4" r="12"/>
			<circle opacity="0.1791" fill="#F5F5F5" cx="97.5" cy="132.4" r="12"/>
			<circle opacity="0.1741" fill="#F5F5F6" cx="97.5" cy="132.4" r="12"/>
			<circle opacity="0.1692" fill="#F5F6F6" cx="97.5" cy="132.4" r="12"/>
			<circle opacity="0.1642" fill="#F5F6F6" cx="97.5" cy="132.4" r="12"/>
			<circle opacity="0.1592" fill="#F6F6F6" cx="97.5" cy="132.4" r="12"/>
			<circle opacity="0.1542" fill="#F6F6F7" cx="97.5" cy="132.4" r="12"/>
			<circle opacity="0.1493" fill="#F6F7F7" cx="97.5" cy="132.5" r="12"/>
			<circle opacity="0.1443" fill="#F7F7F7" cx="97.5" cy="132.5" r="12"/>
			<circle opacity="0.1393" fill="#F7F7F7" cx="97.5" cy="132.5" r="12"/>
			<circle opacity="0.1343" fill="#F7F7F8" cx="97.5" cy="132.5" r="12"/>
			<circle opacity="0.1294" fill="#F7F8F8" cx="97.5" cy="132.5" r="12"/>
			<circle opacity="0.1244" fill="#F8F8F8" cx="97.5" cy="132.5" r="12"/>
			<circle opacity="0.1194" fill="#F8F8F9" cx="97.5" cy="132.5" r="12"/>
			<circle opacity="0.1144" fill="#F8F9F9" cx="97.6" cy="132.5" r="12"/>
			<circle opacity="0.1095" fill="#F9F9F9" cx="97.6" cy="132.5" r="12"/>
			<circle opacity="0.1045" fill="#F9F9F9" cx="97.6" cy="132.5" r="12"/>
			<circle opacity="9.950249e-02" fill="#F9F9FA" cx="97.6" cy="132.5" r="12"/>
			<circle opacity="9.452736e-02" fill="#FAFAFA" cx="97.6" cy="132.5" r="12"/>
			<circle opacity="8.955224e-02" fill="#FAFAFA" cx="97.6" cy="132.5" r="12"/>
			<circle opacity="8.457711e-02" fill="#FAFAFA" cx="97.6" cy="132.5" r="12"/>
			<circle opacity="7.960199e-02" fill="#FAFBFB" cx="97.6" cy="132.6" r="12"/>
			<circle opacity="7.462686e-02" fill="#FBFBFB" cx="97.6" cy="132.6" r="12"/>
			<circle opacity="6.965174e-02" fill="#FBFBFB" cx="97.6" cy="132.6" r="12"/>
			<circle opacity="6.467662e-02" fill="#FBFBFC" cx="97.6" cy="132.6" r="12"/>
			<circle opacity="5.970149e-02" fill="#FCFCFC" cx="97.6" cy="132.6" r="12"/>
			<circle opacity="5.472637e-02" fill="#FCFCFC" cx="97.6" cy="132.6" r="12"/>
			<circle opacity="4.975124e-02" fill="#FCFCFC" cx="97.6" cy="132.6" r="12"/>
			<circle opacity="4.477612e-02" fill="#FCFCFD" cx="97.6" cy="132.6" r="12"/>
			<circle opacity="3.980099e-02" fill="#FDFDFD" cx="97.6" cy="132.6" r="12"/>
			<circle opacity="3.482587e-02" fill="#FDFDFD" cx="97.6" cy="132.6" r="12"/>
			<circle opacity="2.985075e-02" fill="#FDFDFD" cx="97.6" cy="132.6" r="12"/>
			<circle opacity="2.487562e-02" fill="#FEFEFE" cx="97.7" cy="132.6" r="12"/>
			<circle opacity="1.990050e-02" fill="#FEFEFE" cx="97.7" cy="132.6" r="12"/>
			<circle opacity="1.492537e-02" fill="#FEFEFE" cx="97.7" cy="132.6" r="12"/>
			<circle opacity="9.950249e-03" fill="#FEFEFE" cx="97.7" cy="132.6" r="12"/>
			<circle opacity="4.975124e-03" fill="#FFFFFF" cx="97.7" cy="132.7" r="12"/>
			<circle opacity="0" fill="#FFFFFF" cx="97.7" cy="132.7" r="12"/>
		</g>
	</g>
</g>
<g>
	<path fill="#231F20" d="M162.2,119.2c0-0.4-0.3-0.6-0.8-0.6h-0.6v2h0.5v-0.8l0.6,0.8h0.6l-0.7-0.8
		C162,119.7,162.2,119.5,162.2,119.2z M161.4,119.5L161.4,119.5l-0.1-0.5h0.1c0.2,0,0.4,0.1,0.4,0.3
		C161.7,119.4,161.6,119.5,161.4,119.5z"/>
	<path fill="#231F20" d="M161.5,117.8c-1,0-1.7,0.8-1.7,1.7c0,1,0.8,1.7,1.7,1.7c0.9,0,1.7-0.8,1.7-1.7
		C163.2,118.6,162.5,117.8,161.5,117.8z M161.5,121c-0.8,0-1.4-0.6-1.4-1.4c0-0.8,0.6-1.4,1.4-1.4c0.8,0,1.4,0.6,1.4,1.4
		C162.9,120.3,162.3,121,161.5,121z"/>
</g>
</svg>
