<?xml version="1.0" encoding="utf-8"?>
<!-- Generator: Adobe Illustrator 18.1.1, SVG Export Plug-In . SVG Version: 6.00 Build 0)  -->
<svg version="1.1" id="Layer_1" xmlns="http://www.w3.org/2000/svg" xmlns:xlink="http://www.w3.org/1999/xlink" x="0px" y="0px"
	 viewBox="0 0 2560 1440" enable-background="new 0 0 2560 1440" xml:space="preserve">
<g>
	<path fill-rule="evenodd" clip-rule="evenodd" fill="#003876" d="M899,1107.5l42.4-90.3l42.4,90.3H899L899,1107.5L899,1107.5z
		 M819,1188h42.1l21.5-46.5h116.8l21.2,46.5h41.8l-98.4-202.6h-45.2L819,1188L819,1188z"/>
	<polygon fill-rule="evenodd" clip-rule="evenodd" fill="#003876" points="1116.1,985.4 1155.7,985.4 1155.7,1188 1116.1,1188 
		1116.1,985.4 	"/>
	<path fill-rule="evenodd" clip-rule="evenodd" fill="#003876" d="M1270.8,1075.5v-57.2h76.3c32.3,0,48.8,4.7,48.8,28.4
		c0,24-16.5,28.7-48.8,28.7H1270.8L1270.8,1075.5L1270.8,1075.5z M1231.2,1188h39.6v-79.7h62.7l58.8,79.7h48.8l-62.1-82.5
		c29.8-1.7,56.6-22.3,56.6-59.6c0-49.6-34.6-60.5-82.5-60.5h-121.8V1188L1231.2,1188z"/>
	<polygon fill-rule="evenodd" clip-rule="evenodd" fill="#003876" points="1485.4,985.4 1525,985.4 1564,1124.8 1564.6,1124.8 
		1603.3,985.4 1641.3,985.4 1680.6,1124.5 1681.1,1124.5 1719.8,985.4 1758.6,985.4 1699.5,1188 1661.6,1188 1623.1,1044.3 
		1622.6,1044.3 1583.8,1188 1545.1,1188 1485.4,985.4 	"/>
	<path fill-rule="evenodd" clip-rule="evenodd" fill="#003876" d="M1860.9,1107.5l42.4-90.3l42.3,90.3H1860.9L1860.9,1107.5
		L1860.9,1107.5z M1780.9,1188h42.1l21.5-46.5h116.8l21.2,46.5h41.8l-98.4-202.6h-45.2L1780.9,1188L1780.9,1188z"/>
	<polygon fill-rule="evenodd" clip-rule="evenodd" fill="#003876" points="2119.6,1106.9 2020.7,985.4 2069.1,985.4 2139.4,1071.2 
		2209.4,985.4 2258.1,985.4 2159.2,1106.9 2159.2,1188 2119.6,1188 2119.6,1106.9 	"/>
	<path fill-rule="evenodd" clip-rule="evenodd" fill="#003876" d="M2449,1047c-6.4-18.1-22.8-33.7-71.1-33.7
		c-26.8,0-53.8,6.7-53.8,25.4c0,8.7,5,17.8,45.4,22.9l47.9,7.2c45.4,7,72.2,24.5,72.2,58.5c0,47.9-45.7,65.8-99.8,65.8
		c-87,0-108.1-42.9-112.9-58.3l38.2-12c7.2,14.8,22.3,36.3,75.8,36.3c32.3,0,59.1-10.6,59.1-28.2c0-13.1-15-21.7-44-25.4l-48.5-6.7
		c-46.8-6.4-73-26.8-73-57.7c0-60.7,78.9-60.7,94.5-60.7c87.3,0,102.3,40.4,107.3,54.3L2449,1047L2449,1047z"/>
	<path fill-rule="evenodd" clip-rule="evenodd" fill="#003876" d="M84.7,386.3h82.6v442.4c0,68.8-50.2,115-119.8,115H15.1V866h23.4
		c28.3,0,46.2-13,46.2-43.7V386.3L84.7,386.3L84.7,386.3z M84.7,220.4h82.6v82.6H84.7V220.4L84.7,220.4z"/>
	<path fill-rule="evenodd" clip-rule="evenodd" fill="#003876" d="M303.1,554.7c1.6-62.3,38.1-95.5,86.6-95.5
		c48.6,0,84.2,33.2,86.6,95.5H303.1L303.1,554.7L303.1,554.7z M558.9,622.7v-68c0-106-78.5-173.2-169.1-173.2
		c-79.4,0-169.2,51.8-169.2,211.3c0,168.4,97.9,208.8,182.1,208.8c55,0,107.6-19.5,148.1-66.4l-59.8-51
		c-24.3,25.1-58.3,39.7-89.9,39.7c-56.7,0-98-34-98-101.2H558.9L558.9,622.7z"/>
	<path fill-rule="evenodd" clip-rule="evenodd" fill="#003876" d="M624.3,261.7h82.6v124.7h59.9v63.1h-59.9v238.8
		c0,22.7,8.9,30.8,29.1,30.8h30.8v77.7h-42.9c-57.5,0-99.5-36.5-99.5-101.2V449.5H583v-63.1h41.3V261.7L624.3,261.7z"/>
	<path fill-rule="evenodd" clip-rule="evenodd" fill="#003876" d="M1041.2,540.9c64.7,0,93.8,41.3,93.8,86.6
		c0,45.4-29.1,86.6-93.8,86.6H906.8V540.9H1041.2L1041.2,540.9L1041.2,540.9z M819.3,796.7h242.9c86.6,0,160.3-64,160.3-163.5
		c0-58.3-30.7-118.2-93.9-132.8v-1.6c67.2-30,85-76.1,85-123.8c0-90.7-58.3-154.6-170.8-154.6H819.3V796.7L819.3,796.7L819.3,796.7z
		 M1033,298.1c63.2,0,93.1,38,93.1,82.6c0,45.3-29.9,82.6-93.1,82.6H906.8V298.1H1033L1033,298.1z"/>
	<path fill-rule="evenodd" clip-rule="evenodd" fill="#003876" d="M1269.9,220.4h82.6v470.3c0,18.6,10.5,28.3,30.8,28.3h28.3v77.7
		h-36.4c-59.9,0-105.3-25.9-105.3-99.6V220.4L1269.9,220.4z"/>
	<path fill-rule="evenodd" clip-rule="evenodd" fill="#003876" d="M1446.4,386.3h82.6v244.4c0,55.9,34.8,88.3,81.8,88.3
		c46.1,0,80.9-32.4,80.9-88.3V386.3h82.6v410.4h-82.6V753h-1.6c-25.9,32.4-63.2,48.6-106.1,48.6c-64.7,0-137.6-49.4-137.6-142.5
		V386.3L1446.4,386.3z"/>
	<path fill-rule="evenodd" clip-rule="evenodd" fill="#003876" d="M1901.2,554.7c1.7-62.3,38-95.5,86.6-95.5
		c48.6,0,84.2,33.2,86.7,95.5H1901.2L1901.2,554.7L1901.2,554.7z M2157,622.7v-68c0-106-78.5-173.2-169.2-173.2
		c-79.3,0-169.2,51.8-169.2,211.3c0,168.4,98,208.8,182.1,208.8c55.1,0,107.7-19.5,148.2-66.4l-59.9-51
		c-24.3,25.1-58.2,39.7-89.8,39.7c-56.7,0-98-34-98-101.2H2157L2157,622.7z"/>
	<path fill-rule="evenodd" clip-rule="evenodd" fill="#003876" d="M2506.7,1014.9c0-11.7,9.5-21.2,21.3-21.2
		c11.7,0,21.2,9.5,21.2,21.2c0,11.8-9.4,21.3-21.2,21.3C2516.1,1036.1,2506.7,1026.6,2506.7,1014.9L2506.7,1014.9L2506.7,1014.9z
		 M2546.5,1014.9c0-10.3-8.3-18.6-18.6-18.6c-10.3,0-18.6,8.3-18.6,18.6c0,10.4,8.3,18.7,18.6,18.7
		C2538.2,1033.6,2546.5,1025.3,2546.5,1014.9L2546.5,1014.9L2546.5,1014.9z M2538.5,1026.8h-3.4l-6.8-10.9h-5.3v10.9h-2.9v-23.7
		h10.3c2,0,4,0.1,5.8,1.2c1.8,1,2.7,3.1,2.7,5.1c0,4.7-3.3,6.4-7.5,6.5L2538.5,1026.8L2538.5,1026.8L2538.5,1026.8z M2527.4,1013.6
		c3.3,0,8.5,0.6,8.5-4.3c0-3.7-3.2-4.1-6.2-4.1h-6.8v8.4H2527.4L2527.4,1013.6z"/>
	<path fill-rule="evenodd" clip-rule="evenodd" fill="#003876" d="M2506.7,1014.9c0-11.7,9.5-21.2,21.3-21.2
		c11.7,0,21.2,9.5,21.2,21.2c0,11.8-9.4,21.3-21.2,21.3C2516.1,1036.1,2506.7,1026.6,2506.7,1014.9L2506.7,1014.9L2506.7,1014.9z
		 M2546.5,1014.9c0-10.3-8.3-18.6-18.6-18.6c-10.3,0-18.6,8.3-18.6,18.6c0,10.4,8.3,18.7,18.6,18.7
		C2538.2,1033.6,2546.5,1025.3,2546.5,1014.9L2546.5,1014.9L2546.5,1014.9z M2538.5,1026.8h-3.4l-6.8-10.9h-5.3v10.9h-2.9v-23.7
		h10.3c2,0,4,0.1,5.8,1.2c1.8,1,2.7,3.1,2.7,5.1c0,4.7-3.3,6.4-7.5,6.5L2538.5,1026.8L2538.5,1026.8L2538.5,1026.8z M2527.4,1013.6
		c3.3,0,8.5,0.6,8.5-4.3c0-3.7-3.2-4.1-6.2-4.1h-6.8v8.4H2527.4L2527.4,1013.6z"/>
</g>
</svg>
