<?xml version="1.0" encoding="utf-8"?>
<!-- Generator: Adobe Illustrator 18.1.1, SVG Export Plug-In . SVG Version: 6.00 Build 0)  -->
<svg version="1.1" id="Layer_1" xmlns="http://www.w3.org/2000/svg" xmlns:xlink="http://www.w3.org/1999/xlink" x="0px" y="0px"
	 viewBox="19.2 114.8 147.5 29.4" enable-background="new 19.2 114.8 147.5 29.4" xml:space="preserve">
<g>
	<path fill="#253351" d="M19.9,134.2c0-0.9,0.4-1.7,1.1-2.2c0.1-0.1,0.2-0.2,0.3-0.2c3.4-2.1,7.3-3.1,11-3.1c3.9,0,7.7,1,11,3.1
		c0.1,0.1,0.2,0.2,0.3,0.2c0.6,0.5,1.1,1.3,1.1,2.2c0,1.5-1.2,2.7-2.7,2.7c-0.6,0-1.1-0.2-1.5-0.5c-1.8-1-3.6-1.8-5.6-2.1v6.3
		c0,1.5-1.2,2.7-2.7,2.7c-1.5,0-2.7-1.2-2.7-2.7v-6.3c-1.9,0.3-3.9,1-5.6,2.1c-0.4,0.3-1,0.5-1.5,0.5
		C21.1,137,19.9,135.7,19.9,134.2z"/>
	<path fill="#4690DC" d="M21.1,126.1c0.1,0.1,0.2,0.2,0.3,0.2c1.2,0.7,2.4,1.3,3.8,1.8c2.3-0.9,4.8-1.3,7.3-1.3s5,0.4,7.3,1.3
		c1.3-0.5,2.6-1,3.8-1.8c0.1-0.1,0.2-0.2,0.3-0.2c0.6-0.5,1.1-1.3,1.1-2.2c0-1.5-1.2-2.7-2.7-2.7c-0.6,0-1.1,0.2-1.5,0.5
		c-1.8,1-3.6,1.8-5.6,2.1v-6.3c0-1.5-1.2-2.7-2.7-2.7c-1.5,0-2.7,1.2-2.7,2.7v6.3c-1.9-0.3-3.9-1-5.6-2.1c-0.4-0.3-1-0.5-1.5-0.5
		c-1.5,0-2.7,1.2-2.7,2.7C19.9,124.9,20.4,125.7,21.1,126.1z"/>
</g>
<g>
	<g>
		<g enable-background="new    ">
			<path fill="#253351" d="M55.7,133.6c0.9,0,1.5-0.2,1.9-0.5c0.4-0.3,0.6-0.7,0.6-1.3c0-0.3-0.1-0.6-0.2-0.8
				c-0.2-0.2-0.3-0.5-0.6-0.6c-0.2-0.2-0.6-0.4-1-0.6c-0.4-0.2-0.8-0.3-1.3-0.5c-0.5-0.2-0.9-0.3-1.4-0.6c-0.5-0.2-0.8-0.5-1.1-0.7
				c-0.3-0.3-0.6-0.6-0.8-1c-0.2-0.4-0.3-0.9-0.3-1.5c0-1.2,0.4-2.2,1.3-2.9c0.9-0.7,2-1,3.5-1c0.9,0,1.6,0.1,2.3,0.3
				c0.6,0.2,1.2,0.4,1.5,0.6l-0.7,2c-0.5-0.2-1-0.4-1.5-0.6c-0.6-0.2-1-0.2-1.6-0.2c-0.6,0-1.2,0.2-1.5,0.4
				c-0.4,0.2-0.6,0.6-0.6,1.1c0,0.3,0.1,0.6,0.2,0.8c0.2,0.2,0.3,0.4,0.6,0.6s0.5,0.3,0.8,0.5s0.6,0.3,1,0.4
				c0.6,0.2,1.2,0.5,1.7,0.7c0.5,0.2,1,0.6,1.3,0.9c0.3,0.3,0.6,0.7,0.8,1.2c0.2,0.5,0.2,1,0.2,1.6c0,1.2-0.4,2.2-1.3,2.8
				c-0.9,0.6-2.2,1-3.8,1c-0.6,0-1,0-1.5-0.1c-0.5-0.1-0.9-0.2-1.2-0.2s-0.6-0.2-1-0.3c-0.2-0.1-0.5-0.2-0.6-0.3l0.7-2
				c0.3,0.2,0.8,0.4,1.5,0.6C54.2,133.5,54.9,133.6,55.7,133.6z"/>
			<path fill="#253351" d="M72.2,130.3c0,0.8-0.1,1.5-0.3,2.2c-0.2,0.6-0.5,1.2-0.9,1.7c-0.4,0.5-0.9,0.8-1.5,1.1
				c-0.6,0.2-1.2,0.4-1.9,0.4c-0.5,0-1-0.1-1.4-0.2c-0.4-0.1-0.7-0.2-1-0.4v4h-2.3v-13.5c0.5-0.2,1-0.2,1.8-0.4
				c0.7-0.1,1.5-0.2,2.3-0.2c0.8,0,1.5,0.2,2.2,0.4c0.6,0.2,1.2,0.6,1.6,1c0.5,0.5,0.8,1,1,1.7C72.1,128.7,72.2,129.5,72.2,130.3z
				 M69.8,130.3c0-1-0.2-1.9-0.7-2.5c-0.5-0.6-1.2-0.9-2.3-0.9c-0.2,0-0.5,0-0.7,0s-0.5,0.1-0.7,0.2v5.9c0.2,0.2,0.5,0.2,0.8,0.4
				c0.3,0.2,0.7,0.2,1.1,0.2c0.9,0,1.5-0.3,1.9-0.9C69.6,132.1,69.8,131.3,69.8,130.3z"/>
			<path fill="#253351" d="M78.1,124.9c0.8,0,1.5,0.1,2,0.3c0.6,0.2,1,0.5,1.3,0.8c0.3,0.3,0.6,0.8,0.7,1.3c0.2,0.5,0.2,1,0.2,1.7
				v6.2c-0.4,0.1-0.9,0.2-1.7,0.3c-0.7,0.1-1.6,0.2-2.5,0.2c-0.6,0-1.2-0.1-1.7-0.2c-0.5-0.1-1-0.3-1.3-0.6c-0.3-0.2-0.6-0.6-0.8-1
				c-0.2-0.4-0.3-1-0.3-1.5s0.1-1,0.3-1.5c0.2-0.4,0.6-0.7,1-1c0.4-0.2,0.9-0.4,1.4-0.6c0.5-0.1,1-0.2,1.6-0.2c0.2,0,0.6,0,0.8,0.1
				c0.3,0,0.6,0.1,0.9,0.2V129c0-0.2,0-0.6-0.1-0.8c-0.1-0.2-0.2-0.5-0.3-0.6c-0.2-0.2-0.4-0.3-0.6-0.4c-0.2-0.1-0.6-0.2-1-0.2
				c-0.6,0-1,0-1.5,0.1s-0.8,0.2-1.1,0.2l-0.3-1.9c0.3-0.1,0.7-0.2,1.3-0.3C76.8,124.9,77.4,124.9,78.1,124.9z M78.3,133.7
				c0.7,0,1.3,0,1.7-0.1V131c-0.2,0-0.3-0.1-0.6-0.1s-0.5-0.1-0.8-0.1c-0.2,0-0.6,0-0.8,0.1c-0.2,0-0.5,0.1-0.7,0.2
				c-0.2,0.1-0.4,0.2-0.5,0.4c-0.2,0.2-0.2,0.4-0.2,0.7c0,0.6,0.2,1,0.6,1.1C77.2,133.6,77.7,133.7,78.3,133.7z"/>
			<path fill="#253351" d="M91,127.3c-0.2-0.1-0.5-0.2-0.8-0.2c-0.3-0.1-0.7-0.1-1.2-0.1c-0.2,0-0.6,0-0.8,0.1
				c-0.3,0.1-0.5,0.1-0.6,0.2v8.2h-2.3v-9.8c0.5-0.2,1-0.3,1.7-0.5c0.7-0.2,1.5-0.2,2.3-0.2c0.2,0,0.3,0,0.6,0
				c0.2,0,0.4,0.1,0.6,0.1s0.4,0.1,0.6,0.1s0.3,0.1,0.5,0.2L91,127.3z"/>
			<path fill="#253351" d="M95.5,129.1c0.3-0.3,0.6-0.6,1-1c0.3-0.3,0.6-0.7,1-1c0.3-0.3,0.6-0.7,1-1c0.3-0.3,0.6-0.6,0.7-0.9h2.8
				c-0.6,0.7-1.4,1.5-2.1,2.3c-0.7,0.8-1.5,1.5-2.2,2.3c0.4,0.3,0.8,0.7,1.2,1.2s0.9,1,1.3,1.5c0.4,0.6,0.8,1,1.1,1.5
				c0.3,0.6,0.6,1,0.9,1.5h-2.7c-0.2-0.4-0.5-0.8-0.8-1.3c-0.3-0.5-0.6-0.9-1-1.3s-0.7-0.8-1-1.2c-0.4-0.4-0.7-0.7-1-1v4.7h-2.3
				v-14.6l2.3-0.4L95.5,129.1L95.5,129.1z"/>
			<path fill="#253351" d="M102.9,130.3c0-0.7,0.1-1.5,0.3-2.1c0.2-0.6,0.6-1.2,1-1.7c0.4-0.5,1-0.9,1.6-1.1
				c0.6-0.2,1.4-0.4,2.1-0.4c1,0,1.9,0.2,2.7,0.6l-0.5,1.9c-0.2-0.1-0.6-0.2-1-0.3c-0.3-0.1-0.7-0.1-1.1-0.1c-1,0-1.6,0.3-2.1,0.9
				c-0.5,0.6-0.7,1.4-0.7,2.5c0,1,0.2,1.9,0.7,2.4c0.5,0.6,1.2,0.9,2.3,0.9c0.4,0,0.8,0,1.2-0.1c0.4-0.1,0.7-0.2,1-0.3l0.3,1.9
				c-0.2,0.2-0.6,0.2-1.2,0.3c-0.6,0.1-1,0.2-1.6,0.2c-0.9,0-1.6-0.2-2.3-0.4c-0.6-0.2-1.2-0.6-1.6-1.1c-0.4-0.5-0.7-1-1-1.7
				C103,131.8,102.9,131.1,102.9,130.3z"/>
			<path fill="#253351" d="M112.2,130.3c0-0.9,0.2-1.7,0.4-2.3c0.2-0.6,0.6-1.2,1-1.7c0.5-0.5,1-0.8,1.5-1c0.6-0.2,1.1-0.3,1.8-0.3
				c1.5,0,2.5,0.4,3.3,1.3c0.8,0.9,1.2,2.2,1.2,4c0,0.2,0,0.2,0,0.4s0,0.3,0,0.4h-6.8c0.1,0.8,0.3,1.5,0.9,1.9
				c0.5,0.5,1.3,0.6,2.3,0.6c0.6,0,1.1-0.1,1.6-0.2c0.5-0.1,0.9-0.2,1.1-0.3l0.3,1.9c-0.2,0.1-0.3,0.2-0.6,0.2
				c-0.2,0.1-0.5,0.2-0.8,0.2c-0.3,0.1-0.6,0.1-1,0.2c-0.3,0-0.7,0.1-1,0.1c-0.9,0-1.7-0.2-2.3-0.4c-0.6-0.2-1.2-0.6-1.6-1.1
				c-0.4-0.5-0.7-1-1-1.7C112.3,131.8,112.2,131.1,112.2,130.3z M119,129.3c0-0.3-0.1-0.6-0.2-1c-0.1-0.3-0.2-0.6-0.4-0.7
				c-0.2-0.2-0.4-0.4-0.6-0.5c-0.2-0.2-0.6-0.2-0.9-0.2c-0.4,0-0.7,0.1-1,0.2c-0.2,0.2-0.5,0.3-0.7,0.6c-0.2,0.2-0.3,0.5-0.4,0.7
				c-0.1,0.3-0.2,0.6-0.2,0.9C114.6,129.3,119,129.3,119,129.3z"/>
			<path fill="#253351" d="M124,125.5c0.5-0.2,1-0.2,1.8-0.4c0.7-0.1,1.5-0.2,2.4-0.2c0.8,0,1.5,0.1,2.1,0.3s1,0.6,1.4,1
				c0.3,0.4,0.6,0.9,0.7,1.5c0.2,0.6,0.2,1.2,0.2,1.9v5.8h-2.3v-5.4c0-0.6,0-1-0.1-1.4c-0.1-0.3-0.2-0.7-0.3-1
				c-0.2-0.2-0.4-0.4-0.6-0.6c-0.3-0.1-0.6-0.2-1-0.2c-0.3,0-0.6,0-1,0.1c-0.3,0-0.6,0.1-0.7,0.1v8.3h-2.3L124,125.5L124,125.5z"/>
			<path fill="#253351" d="M135.3,122.4l2.3-0.4v3.1h3.6v2h-3.6v4.2c0,0.8,0.2,1.5,0.4,1.8c0.2,0.3,0.7,0.6,1.4,0.6
				c0.4,0,0.8-0.1,1.1-0.2c0.3-0.1,0.6-0.2,0.8-0.2l0.4,1.9c-0.2,0.1-0.6,0.2-1,0.4c-0.5,0.2-1,0.2-1.5,0.2c-0.7,0-1.4-0.1-1.9-0.3
				c-0.5-0.2-0.9-0.5-1.1-0.9c-0.3-0.4-0.5-0.8-0.6-1.4c-0.1-0.6-0.2-1.1-0.2-1.9L135.3,122.4L135.3,122.4z"/>
			<path fill="#253351" d="M149.5,127.3c-0.2-0.1-0.5-0.2-0.8-0.2c-0.3-0.1-0.7-0.1-1.2-0.1c-0.2,0-0.6,0-0.8,0.1
				c-0.3,0.1-0.5,0.1-0.6,0.2v8.2h-2.3v-9.8c0.5-0.2,1-0.3,1.7-0.5c0.7-0.2,1.5-0.2,2.3-0.2c0.2,0,0.3,0,0.6,0
				c0.2,0,0.4,0.1,0.6,0.1c0.2,0,0.4,0.1,0.6,0.1c0.2,0,0.3,0.1,0.5,0.2L149.5,127.3z"/>
			<path fill="#253351" d="M155,124.9c0.8,0,1.5,0.1,2,0.3c0.6,0.2,1,0.5,1.3,0.8c0.3,0.3,0.6,0.8,0.7,1.3c0.2,0.5,0.2,1,0.2,1.7
				v6.2c-0.4,0.1-0.9,0.2-1.7,0.3c-0.7,0.1-1.6,0.2-2.5,0.2c-0.6,0-1.2-0.1-1.7-0.2c-0.5-0.1-1-0.3-1.3-0.6c-0.3-0.2-0.6-0.6-0.8-1
				c-0.2-0.4-0.3-1-0.3-1.5s0.1-1,0.3-1.5c0.2-0.4,0.6-0.7,1-1c0.4-0.2,0.9-0.4,1.4-0.6c0.5-0.1,1-0.2,1.6-0.2c0.2,0,0.6,0,0.8,0.1
				c0.3,0,0.6,0.1,0.9,0.2V129c0-0.2,0-0.6-0.1-0.8c-0.1-0.2-0.2-0.5-0.3-0.6c-0.2-0.2-0.4-0.3-0.6-0.4c-0.2-0.1-0.6-0.2-1-0.2
				c-0.6,0-1,0-1.5,0.1c-0.5,0.1-0.8,0.2-1.1,0.2l-0.3-1.9c0.3-0.1,0.7-0.2,1.3-0.3S154.4,124.9,155,124.9z M155.2,133.7
				c0.7,0,1.3,0,1.7-0.1V131c-0.2,0-0.3-0.1-0.6-0.1c-0.2,0-0.5-0.1-0.8-0.1c-0.2,0-0.6,0-0.8,0.1c-0.2,0-0.5,0.1-0.7,0.2
				c-0.2,0.1-0.4,0.2-0.5,0.4c-0.2,0.2-0.2,0.4-0.2,0.7c0,0.6,0.2,1,0.6,1.1C154.1,133.6,154.6,133.7,155.2,133.7z"/>
			<path fill="#253351" d="M165.7,135.6c-0.7,0-1.3-0.1-1.8-0.2s-0.8-0.3-1.1-0.6c-0.2-0.2-0.5-0.6-0.6-1c-0.1-0.4-0.2-0.9-0.2-1.4
				v-11.8l2.3-0.4V132c0,0.3,0,0.6,0.1,0.7c0.1,0.2,0.2,0.4,0.2,0.5c0.1,0.2,0.2,0.2,0.5,0.3s0.5,0.2,0.8,0.2L165.7,135.6z"/>
		</g>
	</g>
</g>
</svg>
