<?xml version="1.0" encoding="utf-8"?>
<!-- Generator: Adobe Illustrator 18.1.1, SVG Export Plug-In . SVG Version: 6.00 Build 0)  -->
<svg version="1.1" id="Layer_1" xmlns="http://www.w3.org/2000/svg" xmlns:xlink="http://www.w3.org/1999/xlink" x="0px" y="0px"
	 viewBox="0 866 2738 320" enable-background="new 0 866 2738 320" xml:space="preserve">
<g>
	<g>
		<path fill="#231F20" d="M107.3,1013.7v6.9h0.4c12.4-7.5,25.2-8.1,32.9-8.1c20.7,0,27.7,5.9,30.4,8.1c4.7-2.7,15.1-8.1,32.6-8.1
			c35.1,0,35.1,13.9,35.1,19.5v32.7h-28.3v-29.1c0-6,0-12.7-15.1-12.7c-7.4,0-15.1,2.3-17.8,5.6c-2.5,2.8-3.5,5.4-3.5,11.7v24.5
			h-28.3v-27.9c0-8.6,0.2-13.9-14.7-13.9c-7.4,0-15.1,2-18,4.9c-2.3,2.3-3.7,4.6-3.7,12.1v24.8H81.1v-51H107.3z"/>
		<path fill="#231F20" d="M306.9,1025h-20.5v20.4c0,7.2,0,9.6,8.4,9.6c4,0,7.5-0.5,11.3-1.2l0.9-0.1l2.7,10.4
			c-9.9,1.8-20.8,2-23.8,2c-9.3,0-21.2-1.4-25.6-5.2c-3.8-3.1-4.2-6.2-4.2-13.9V1025H242v-10.7h13.9v-10.1l30.5-7.9v18h20.5V1025z"
			/>
		<path fill="#231F20" d="M67.2,1093.5c-11.3-17-18.7-37.2-18.7-57.5c0-24,9.4-43.5,19-57.2h11.4c-8.4,18.7-14.2,34.6-14.2,57.7
			c0,26.5,9.4,47,13.7,56.2c0.1,0.1,0.4,0.6,0.4,0.7H67.2z"/>
		<path fill="#231F20" d="M321.4,979c11.2,17,18.7,37.2,18.7,57.5c0,24-9.4,43.5-18.9,57.2h-11.4c8.4-18.7,14.2-34.6,14.2-57.7
			c0-26.5-9.4-47-13.7-56.2c-0.1-0.1-0.4-0.6-0.4-0.7H321.4z"/>
	</g>
	<g>
		<path fill="#231F20" d="M401.3,1013.3h16.1v7.2h0.4c5.7-4.6,16.3-8.4,31.6-8.4c15.1,0,25.6,3.1,29.9,9.1
			c3.7-2.8,12.8-9.1,32.6-9.1c32.6,0,32.8,13.7,32.8,17.4v35.6h-17.9v-32.7c0-5,0-12.7-18.9-12.7c-7.7,0-16.9,1.9-21.2,5.4
			c-3.5,2.9-4.7,6-4.7,9.9v30.1H464v-33.8c0-4.9-1-11.7-18.5-11.7c-9.6,0-18.5,2.5-21.8,6c-3.9,4.2-4.5,8-4.5,12.5v26.9h-17.9
			V1013.3z"/>
		<path fill="#231F20" d="M574.8,1034.2c1-6.8,10.2-14.9,30.2-14.9c12.8,0,23,3.9,26.7,8.3c2,2.5,2.5,4.7,2.9,6.6H574.8
			 M633.9,1048.5c-2.2,3-7.7,10.7-27.9,10.7c-15.9,0-30.8-5.3-32.2-17.7h79c1.6-28.1-38.9-29.3-47.9-29.3
			c-32.2,0-49.5,11.7-49.5,27.5c0,16,17.7,26.7,50.5,26.7c26.1,0,40.9-7,46.2-16.8L633.9,1048.5z"/>
		<path fill="#231F20" d="M676.3,1039.2c0-3.8,1.2-19.9,28.1-19.9c21.8,0,28.9,10.6,28.9,20.7c0,17.8-22.4,19.1-28.1,19.1
			C694.8,1059.2,676.3,1055.5,676.3,1039.2 M732.9,1065.2h16.7v-71.7h-17.9v25.7h-0.4c-5.5-4.1-15.5-7.1-28.7-7.1
			c-26.5,0-44.6,10.2-44.6,27.1c0,16.6,20.4,27.2,45.4,27.2c3.9,0,19.5,0,29.1-7.8h0.4V1065.2z"/>
		<path fill="#231F20" d="M767.3,1013.3h17.9v51.8h-17.9V1013.3 M767.3,993.5h17.9v10h-17.9V993.5z"/>
		<path fill="#231F20" d="M870.2,1042.3c0,4.3-0.8,8.4-7.9,12.2c-8.4,4.4-20.4,4.9-25.5,4.9c-16.1,0-21.2-4.5-21.2-8.2
			c0-7,14-8,25.1-8.8c9.4-0.7,22.6-2,29.5-3.3V1042.3 M817,1029.2c2.3-4.3,5.1-9.9,27.5-9.9c26.2,0,26.1,7.3,25.7,12.9
			c-10.2,1.8-29.5,2.8-32.2,3c-11.6,0.7-41.5,2.4-41.5,16.2c0,8.6,12.8,14.9,36,14.9c11.4,0,23.8-1.3,38.9-7.6
			c0.4,1.3,0.8,3.7,3.7,6.4h18.7c-5.7-5-5.7-8.4-5.7-21.7v-11.8c0-9,0-19.5-40.9-19.5c-40.7,0-45.6,11.4-47.7,16L817,1029.2z"/>
		<path fill="#231F20" d="M954.7,1024.2h-19v20.9c0,7.4,0,9.8,7.8,9.8c3.7,0,6.9-0.5,10.4-1.2l0.8-0.1l2.5,10.6
			c-9.2,1.9-19.2,2.1-22,2.1c-8.6,0-19.5-1.4-23.6-5.3c-3.5-3.2-3.9-6.3-3.9-14.2v-22.6h-12.8v-10.9h12.8V1003l28.1-8.1v18.4h19
			V1024.2z"/>
		<path fill="#231F20" d="M982.4,1034.7c-0.2-6.8,7.7-12.1,20.9-12.1c4.3,0,20.2,0.8,20.8,12.1H982.4 M1022.5,1048.7
			c-1.4,2.4-4.7,7.2-17.7,7.2c-15.9,0-22.6-6.5-23-12.7h70.1c0.6-15.3-10.4-31-50.1-31c-33.4,0-48.5,13.4-48.5,27.4
			c0,4.3,1.6,9.4,6.3,14.4c11.2,11.8,35.6,12.4,44.8,12.4c35,0,43.8-12.2,46.1-15.4L1022.5,1048.7z"/>
		<path fill="#231F20" d="M1085,1013.3v7h0.4c12.2-7.6,24.8-8.2,32.4-8.2c20.4,0,27.3,6,30,8.2c4.7-2.8,14.9-8.2,32.2-8.2
			c34.6,0,34.6,14.1,34.6,19.8v33.2h-27.9v-29.6c0-6.1,0-12.9-14.9-12.9c-7.3,0-14.9,2.3-17.5,5.7c-2.5,2.9-3.5,5.5-3.5,11.9v24.9
			h-27.9v-28.4c0-8.8,0.2-14.1-14.5-14.1c-7.3,0-14.8,2-17.7,5c-2.2,2.3-3.6,4.7-3.6,12.3v25.2h-27.9v-51.8H1085z"/>
		<path fill="#231F20" d="M1255.8,1040.5c0-7.5,2.7-11.3,9.4-14.5c5.1-2.4,11.2-2.9,15-2.9c9.6,0,22.2,3.3,22.2,16.1
			c0,5.8-2.7,16.7-23.2,16.7C1266.1,1055.8,1255.8,1051,1255.8,1040.5 M1228.1,1013.3v71.5h27.9v-25.7c4,2.3,13.6,7.2,30.7,7.2
			c23.4,0,44.4-8.3,44.4-26.6c0-18.6-21.4-27.6-44.2-27.6c-6.3,0-21.6,1.1-32.4,8.8h-0.5v-7.6H1228.1z"/>
		<rect x="1339.9" y="993.5" fill="#231F20" width="27.9" height="71.7"/>
		<path fill="#231F20" d="M1404.8,1034.7c-0.2-6.8,7.8-12.1,21-12.1c4.2,0,20.1,0.8,20.7,12.1H1404.8 M1445,1048.7
			c-1.4,2.4-4.7,7.2-17.8,7.2c-15.9,0-22.6-6.5-23-12.7h70.1c0.6-15.3-10.4-31-50.1-31c-33.4,0-48.5,13.4-48.5,27.4
			c0,4.3,1.6,9.4,6.3,14.4c11.2,11.8,35.6,12.4,44.8,12.4c35,0,43.8-12.2,46.1-15.4L1445,1048.7z"/>
		<g>
			<polygon fill="#231F20" points="1265.1,1075.8 1261.8,1075.8 1261.8,1074.1 1270.5,1074.1 1270.5,1075.8 1267.2,1075.8 
				1267.2,1084.2 1265.1,1084.2 			"/>
			<polygon fill="#231F20" points="1271.8,1074.1 1275.1,1074.1 1277.1,1081 1277.1,1081 1279,1074.1 1282.3,1074.1 1282.3,1084.2 
				1280.3,1084.2 1280.3,1076.2 1280.3,1076.2 1278.1,1084.2 1276,1084.2 1273.9,1076.2 1273.9,1076.2 1273.9,1084.2 1271.8,1084.2 
							"/>
		</g>
	</g>
</g>
</svg>
