<?xml version="1.0" encoding="utf-8"?>
<!-- Generator: Adobe Illustrator 18.1.1, SVG Export Plug-In . SVG Version: 6.00 Build 0)  -->
<svg version="1.1" id="Layer_1" xmlns="http://www.w3.org/2000/svg" xmlns:xlink="http://www.w3.org/1999/xlink" x="0px" y="0px"
	 viewBox="0 0 2560 1440" enable-background="new 0 0 2560 1440" xml:space="preserve">
<g>
	<path fill="#EA2925" d="M481.1,424.5c-30.4,0-61.7,0-92,0c0,125.2,0,208,0,333.2c-40.5-123.3-79.2-204.3-119.7-333.2
		c-35,0-56.1,0-88.4,0c0,196.1,0,394.9,0,590.9c30.4-3.7,61.7-7.4,92-12c0-123.3,0-200.7,0-324c42.3,122.4,67.2,194.2,107.7,309.3
		c33.1-3.7,67.2-7.4,100.3-12C481.1,794.6,481.1,609.5,481.1,424.5"/>
	<path fill="#EA2925" d="M827.1,424.5c-86.5,0-171.2,0-255.9,0c0,181.3,0,363.6-1.8,544.9c86.5-7.4,171.2-13.8,257.7-19.3
		c0-26.7,0-65.4,0-90.2c-56.1,3.7-109.5,7.4-165.7,12c0-47.9,0-88.4,0-139c40.5,0,84.7,0,125.2,0c0-26.7,0-65.4,0-92
		c-40.5,0-84.7,0-125.2,1.8c0-47.9,0-75.5,0-125.2c24.9,0,49.7,0,75.5,0c3.7,0,9.2,0,13.8,0c4.6,0,9.2,0,13.8,0
		c21.2,0,42.3,0,63.5,0C827.1,489.9,827.1,451.2,827.1,424.5"/>
	<path fill="#EA2925" d="M1174.1,424.5c-94.8,0-192.4,0-287.2,0c0,26.7,0,63.5,0,90.2c3.7,0,7.4,0,12,0c12,0,24.9,0,36.8,0
		s24.9,0,36.8,0c3.7,0,5.5,0,9.2,0c0,146.4,0,280.7,0,428c30.4-1.8,63.5-1.8,92-1.8c0-146.4,0-278.9,0-423.4c33.1,0,65.4,0,96.6,0
		C1174.1,489.9,1174.1,451.2,1174.1,424.5"/>
	<path fill="#EA2925" d="M1491.7,424.5c-86.5,0-171.2,0-257.7,0c0,171.2,0,342.4,0,514.5c9.2,0,19.3,0,30.4,0c21.2,0,42.3,0,61.7,0
		c0-73.6,0-139,0-211.7c5.5,0,9.2,0,15.6,0c12,0,24.9,0,36.8,0c12,0,24.9,0,36.8,0c13.8,0,24.9,0,36.8,0c0-26.7,0-65.4,0-90.2
		c-12,0-23,0-35,0c-13.8,0-24.9,0-38.7,0c-13.8,0-24.9,0-38.7,0c-3.7,0-9.2,0-13.8,0c0-46,0-73.6,0-119.7c9.2,0,19.3,0,30.4,0
		c9.2,0,21.2,0,30.4,0c9.2,0,21.2,0,30.4,0c24.9,0,49.7,0,75.5,0C1491.7,489.9,1491.7,451.2,1491.7,424.5"/>
	<path fill="#EA2925" d="M1551.5,424.5c0,173,0,345.2,0,518.2c82.8,3.7,169.4,5.5,252.2,12c0-26.7,0-65.4,0-90.2
		c-51.5-3.7-105.9-7.4-158.3-9.2c0-148.2,0-283.5,0-429.8C1615,424.5,1581.9,424.5,1551.5,424.5"/>
	<path fill="#EA2925" d="M1879.2,424.5c0,179.5,0,358.1,1.8,535.7c30.4,1.8,61.7,5.5,92,7.4c0-181.3,0-361.7,0-543.1
		C1940.9,424.5,1909.6,424.5,1879.2,424.5"/>
	<path fill="#EA2925" d="M2050.4,424.5c36.8,90.2,70.9,181.3,107.7,277.1c-38.7,92-79.2,183.2-117.8,271.5
		c33.1,3.7,65.4,7.4,98.5,12c23-58,44.2-100.3,67.2-160.2c23,61.7,44.2,109.5,67.2,174.9c33.1,3.7,75.5,9.2,105.9,15.6
		c-38.7-104-82.8-213.5-121.5-312c38.7-92,79.2-181.3,119.7-278.9c-33.1,0-67.2,0-102.2,0c-24.9,59.8-42.3,98.5-67.2,155.6
		c-23-59.8-36.8-98.5-59.8-155.6C2119.4,424.5,2085.4,424.5,2050.4,424.5"/>
</g>
</svg>
