<?xml version="1.0" encoding="utf-8"?>
<!-- Generator: Adobe Illustrator 18.1.1, SVG Export Plug-In . SVG Version: 6.00 Build 0)  -->
<svg version="1.1" id="Layer_1" xmlns="http://www.w3.org/2000/svg" xmlns:xlink="http://www.w3.org/1999/xlink" x="0px" y="0px"
	 viewBox="19.2 114.8 145 28.9" enable-background="new 19.2 114.8 145 28.9" xml:space="preserve">
<g>
	<rect x="20" y="128.2" fill="#767578" width="5.2" height="5.2"/>
	<rect x="35.2" y="128.2" fill="#767578" width="5.2" height="5.2"/>
	<rect x="51" y="128.2" fill="#767578" width="5.2" height="5.2"/>
	<rect x="66.5" y="128.2" fill="#767578" width="5.2" height="5.2"/>
	<path fill="#767578" stroke="#767578" stroke-width="0.2295" d="M98.1,117.9c-0.5,0-1,0.1-1.3,0.3c-0.3,0.2-0.6,0.4-0.9,0.8
		c-0.2,0.3-0.4,0.5-0.5,0.8c-0.1,0.3-0.2,0.7-0.2,1.2c-0.1,0.6-0.1,1.4-0.1,2.2v13.4c0,1.2,0.1,2.2,0.2,2.8c0.1,0.6,0.3,1.1,0.6,1.5
		c0.5,0.6,1.2,1,2.2,1.1v0.4h-8.9v-0.4c0.5,0,1-0.1,1.3-0.3c0.3-0.2,0.6-0.4,0.9-0.8c0.3-0.4,0.5-0.9,0.6-1.5
		c0.1-0.6,0.2-1.5,0.2-2.8v-16.3l-7.2,22h-0.3l-7.1-21.6v15.9c0,1.2,0.1,2.2,0.2,2.8c0.1,0.6,0.3,1.1,0.6,1.5
		c0.3,0.4,0.6,0.6,0.9,0.8c0.3,0.2,0.8,0.3,1.3,0.3v0.4h-6.4v-0.4c0.5,0,1-0.1,1.3-0.3c0.3-0.2,0.6-0.4,0.9-0.8
		c0.3-0.4,0.5-0.9,0.6-1.5c0.1-0.6,0.2-1.5,0.2-2.8v-13.4c0-0.6,0-1.1,0-1.6c0-0.9-0.2-1.6-0.3-2c-0.2-0.6-0.6-1-1-1.3
		c-0.4-0.3-0.9-0.4-1.6-0.5v-0.4h6l6,19.4l6.2-19.4h5.7V117.9z"/>
	<path fill="#767578" stroke="#767578" stroke-width="0.2545" d="M99.2,133.7c0-2.1,0.6-4,1.9-5.7c1.5-2,3.4-3,5.5-3
		c2.1,0,4,1,5.5,3c1.3,1.7,1.9,3.6,1.9,5.7c0,2.1-0.6,4-1.8,5.6c-1.5,2-3.3,3-5.6,3s-4.1-1-5.6-3c-0.6-0.8-1-1.7-1.3-2.6
		C99.4,135.7,99.2,134.7,99.2,133.7z M102.1,133.5c0,2.3,0.4,4.2,1.2,5.8c0.9,1.8,2.1,2.7,3.4,2.7c0.6,0,1.1-0.2,1.7-0.6
		c0.5-0.4,1-0.9,1.4-1.7c0.4-0.7,0.7-1.7,1-2.8c0.3-1.1,0.4-2.2,0.4-3.2c0-1.1-0.1-2.2-0.4-3.3c-0.3-1.1-0.6-2-1.1-2.8
		c-0.9-1.5-1.9-2.2-3.2-2.2c-1.2,0-2.2,0.8-3.1,2.3C102.5,129.3,102.1,131.2,102.1,133.5z"/>
	<path fill="#767578" stroke="#767578" stroke-width="0.2419" d="M119.8,128.9c0.4-0.6,0.9-1.1,1.3-1.4c0.8-0.6,1.8-0.9,2.9-0.9
		c1.6,0,3,0.6,4.2,1.7c1.5,1.4,2.2,3.4,2.2,6c0,2.6-0.7,4.6-2.1,6.1c-1.2,1.3-2.8,1.9-4.7,1.9c-1,0-1.8-0.2-2.5-0.5l-0.9-0.4
		c-0.2-0.1-0.5-0.2-0.6-0.2c-0.5,0-1,0.5-1.4,1.5h-0.6v-21c0-1.3-0.2-2.3-0.6-2.9c-0.4-0.6-1-0.9-1.9-0.9v-0.4l4.8-0.7V128.9z
		 M119.8,134.3c0,1.3,0.1,2.4,0.2,3.5c0.1,1.1,0.3,1.8,0.5,2.3c0.2,0.6,0.6,1,1.1,1.4c0.5,0.3,1,0.5,1.6,0.5c1.3,0,2.3-0.7,3.1-2.1
		c0.8-1.4,1.2-3.1,1.2-5.3c0-1.1-0.1-2.2-0.4-3.2c-0.3-1-0.7-1.9-1.2-2.6c-0.4-0.6-0.8-1-1.3-1.3c-0.5-0.3-1-0.5-1.5-0.5
		c-0.6,0-1.2,0.2-1.7,0.6c-0.5,0.4-0.9,1-1.2,1.6C120,130.5,119.8,132.1,119.8,134.3z"/>
	<path fill="#767578" stroke="#767578" stroke-width="0.2419" d="M133.4,127.3l4.6-0.6V137l0,1.4c0,0.8,0,1.4,0.1,1.8
		c0.1,0.4,0.2,0.7,0.5,0.9c0.3,0.3,0.8,0.6,1.6,0.7v0.4h-7v-0.4c0.6-0.1,1.1-0.2,1.4-0.4c0.3-0.2,0.5-0.5,0.7-0.9
		c0.1-0.3,0.2-0.7,0.2-1.2c0-0.6,0.1-1.3,0.1-2.4v-4.4c0-1.2,0-2.1-0.1-2.6c-0.1-0.5-0.2-0.9-0.3-1.2c-0.2-0.3-0.4-0.6-0.6-0.7
		c-0.3-0.1-0.6-0.2-1.1-0.3V127.3z M136.7,120.3c-0.4,0-0.8-0.1-1-0.4c-0.3-0.3-0.4-0.7-0.4-1.1c0-0.4,0.1-0.8,0.4-1.1
		c0.3-0.3,0.6-0.5,1-0.5c0.4,0,0.7,0.2,1,0.5c0.3,0.3,0.4,0.7,0.4,1.1c0,0.5-0.1,0.8-0.4,1.1C137.4,120.1,137.1,120.3,136.7,120.3z"
		/>
	<path fill="#767578" stroke="#767578" stroke-width="0.2419" d="M142.2,117.7l4.6-0.6V137l0,1.4c0,0.8,0,1.4,0.1,1.8
		c0.1,0.4,0.2,0.7,0.5,0.9c0.3,0.3,0.8,0.6,1.6,0.7v0.4h-7v-0.4c0.6-0.1,1.1-0.2,1.4-0.4c0.3-0.2,0.5-0.5,0.7-0.9
		c0.1-0.3,0.2-0.7,0.2-1.2c0-0.6,0.1-1.4,0.1-2.4v-14c0-1.2,0-2.1-0.1-2.6c-0.1-0.5-0.2-0.9-0.3-1.2c-0.2-0.3-0.4-0.6-0.6-0.7
		c-0.3-0.1-0.6-0.2-1.1-0.3V117.7z"/>
	<path fill="#767578" stroke="#767578" stroke-width="0.2496" d="M153.8,131.7c0,0.6-0.1,1.1-0.1,1.3c0,1.1,0.1,2.2,0.4,3.2
		c0.3,1.1,0.6,1.9,1.1,2.6c0.5,0.7,1.1,1.3,1.7,1.7c0.7,0.4,1.4,0.6,2.2,0.6c0.6,0,1.1-0.1,1.6-0.3c0.5-0.2,0.9-0.6,1.3-1
		c0.4-0.4,0.7-1.2,1-2.2l0.3,0.1c-0.3,1.5-0.9,2.6-1.8,3.4c-0.9,0.8-2.1,1.1-3.6,1.1c-1.3,0-2.4-0.2-3.3-0.7
		c-0.9-0.5-1.7-1.2-2.3-2.3c-0.9-1.4-1.3-3.2-1.3-5.3c0-2.8,0.8-5.1,2.5-6.7c1.2-1.2,2.6-1.8,4.2-1.8c0.8,0,1.6,0.2,2.3,0.5
		c0.7,0.4,1.3,0.9,1.8,1.6c0.8,1.1,1.1,2.4,1.1,4H153.8z M160.6,131c-0.1-1.3-0.3-2.2-0.6-2.9c-0.3-0.6-0.7-1.1-1.1-1.5
		c-0.5-0.4-1-0.5-1.5-0.5c-0.9,0-1.7,0.5-2.4,1.4c-0.7,0.9-1.1,2.1-1.2,3.5H160.6z"/>
	<path fill="#EC1B67" d="M32.5,140.3h4v2h-12v-2h4v-22.7c0,0-6.7,0-6.7,8.7h-1.3v-10h20v10h-1.4c0,0-0.3-8.7-6.7-8.7V140.3z"/>
</g>
</svg>
