<?xml version="1.0" encoding="utf-8"?>
<!-- Generator: Adobe Illustrator 18.1.1, SVG Export Plug-In . SVG Version: 6.00 Build 0)  -->
<svg version="1.0" id="Layer_1" xmlns:sketch="http://www.bohemiancoding.com/sketch/ns"
	 xmlns="http://www.w3.org/2000/svg" xmlns:xlink="http://www.w3.org/1999/xlink" x="0px" y="0px" viewBox="0 163 800 274"
	 enable-background="new 0 163 800 274" xml:space="preserve">
<title>lyft</title>
<desc>Created with Sketch.</desc>
<rect id="Rectangle-84" y="163" sketch:type="MSShapeGroup" fill="#FFFFFF" width="800" height="274">
</rect>
<g>
	<path fill="#DB2629" d="M406.5,223.8c1.4-3.3-0.2-5.8-1.3-8.3c-1.9-4.3-4.1-8.4-5.8-12.7c-2.9-7-1.6-13.6,3.5-19
		c5.1-5.3,11.5-6.8,18.8-4.3c7.4,2.5,12.9,7.3,17.6,13.4c8.5,11.2,13.3,24,16.8,37.5c3.7,14.3,5.7,29,6.2,43.8
		c0.2,4.6,0.4,9.3,0.6,13.9c0,1.3-0.2,2.6-0.3,4.1c-4.4,0-8.5,0-12.8,0c-0.2-0.8-0.5-1.6-0.5-2.3c-0.3-7.3-0.4-14.6-1-21.9
		c-1.1-16.6-3.9-32.9-10.1-48.5c-2.6-6.5-5.9-12.7-10.7-17.9c-2.6-2.8-5.4-5.3-9.2-6.5c-1.8-0.6-3.5-1-5.1,0.6
		c-1.7,1.8-0.4,3.5,0.2,5.1c1.1,2.6,2.7,5,4.1,7.4c2.5,4.4,3.8,9.2,3.6,14.3c-0.2,5-2,9.3-5.5,13C410,241,401,241,396,236.2
		c-4-3.9-7.1-8.3-9.9-13c-1.6-2.7-3.3-5.4-5.2-7.9c-3-4-5.4-4-9-0.5c-5.5,5.4-8.3,12.3-11,19.3c-3.7,10-5.7,20.4-7,31
		c-1,8.4-2,16.8-3.1,25.2c-0.1,0.6-0.5,1.2-0.9,2.4c-3.7,0-7.4,0-11.2,0c-1.7,0-2.3-1.1-2.1-2.7c2.5-21.1,4.9-42.2,12.4-62.2
		c3-8,6.7-15.6,12.3-22.1c2.3-2.8,5.1-5.3,8.1-7.3c6.4-4.3,12-3.6,17.6,1.8c4.6,4.4,7.9,9.8,11.2,15.2c1.5,2.4,3.1,4.7,4.7,7
		C403.5,223.2,403.6,223.1,406.5,223.8z"/>
	<path fill="#DB2629" d="M474.7,377.4c2.1-3.3,4.4-6.7,6.6-10c7.8,2.4,10.6,8.5,10.5,14.9c-0.1,4.8-1.7,9.1-4.8,12.8
		c-5,6-11.5,10.1-18.5,13.3c-13.4,6-27.5,9.4-42.1,11.3c-14.3,1.8-28.5,2.4-42.8,1.7c-15.8-0.7-31.4-2.7-46.5-7.8
		c-6-2-11.9-4.4-17-8.2c-3-2.3-5.9-5-8-8.1c-6.2-9.2-3.2-20.6,7.5-26.7c5.8-3.3,12.2-4.3,18.7-4.7c9.4-0.6,18.6,1,27.6,3.1
		c11.8,2.7,23.2,6.9,34.3,11.8c0.9,0.4,1.8,0.8,2.6,1.4c2.4,1.6,3.5,4,2.8,6.4c-0.7,2.5-3.1,4.9-5.7,4.9c-2.1,0-4.3-0.4-6.3-1.2
		c-8.1-3.4-16.2-6.7-24.7-9c-10-2.7-20.2-4.3-30.5-3.7c-3.8,0.2-7.7,0.9-11.1,2.2c-5.5,2.2-6.2,7.1-1.6,10.9c2.8,2.3,6,4.3,9.2,5.8
		c9.6,4.4,19.7,6.7,30.1,8.3c15.2,2.4,30.5,2.6,45.8,1.7c17.1-1,33.9-3.8,49.8-10.8c4.4-1.9,8.8-4,12.4-7.3
		C478.5,385.3,478.7,383.8,474.7,377.4z"/>
	<path fill="#DB2629" d="M304.3,353.2c0-3.9,0-7.6,0-11.5c2.2-0.3,4.3-0.6,7-1c-0.9-2.7-1.7-4.8-2.5-7.2c-7.2,0-14.3,0-21.9,0
		c-0.7,2.1-1.5,4.3-2.4,7c2.8,0.3,5,0.6,7.3,0.9c0,4.1,0,7.7,0,11.4c-3.2,1.1-20.5,1.3-26.6,0.3c0-1.8,0-3.8,0-5.8
		c0-1.8,0-3.6,0-5.4c0.8-0.3,1.3-0.6,1.7-0.5c2.8,0.2,4.1-1.4,5-3.8c3-8.3,6.1-16.5,9.2-24.7c2.2-5.9,4.5-11.7,7-18
		c-2.4-0.2-4.5-0.4-6.8-0.6c-0.9-3.5-0.5-7-0.3-10.4c0-0.7,1.5-2,2.3-2c5.8-0.1,11.7-0.2,17.5,0.1c3.3,0.1,5.4,2.1,6.5,5.3
		c2.4,6.5,5,13,7.4,19.5c3.8,10.3,7.6,20.5,11.3,30.8c0.9,2.4,2,4.1,5,3.6c1.7-0.3,2.9,0.5,2.9,2.4c0,3.1,0,6.3,0,9.3
		C329.9,353.8,310.6,354,304.3,353.2z M305.2,322.1c-2.4-6.2-4.4-11.6-6.5-16.9c-0.1-0.2-0.5-0.3-1.2-0.6
		c-2.3,5.7-4.3,11.4-5.7,17.5C296.4,322.1,300.4,322.1,305.2,322.1z"/>
	<path fill="#DB2629" d="M380.7,295c-1.5-0.3-2.7-0.5-3.9-0.7c-0.2-0.4-0.5-0.7-0.5-1c-0.1-2.7-0.1-5.3-0.1-8
		c0.1-3.2,0.4-3.5,3.4-3.5c4.2-0.1,8.3-0.1,12.5,0c3.6,0.1,3.8,0.3,3.8,4.1c0,6.5,0,13,0,19.5c0,1.3,0.1,2.6,0.2,4.2
		c0.9-0.6,1.4-0.9,1.9-1.3c13.3-9.2,30.5-1.9,32.8,14.2c0.7,4.7,0.6,9.7-0.2,14.4c-2.7,15.8-21.2,22.6-33.9,12.8
		c-0.2-0.2-0.6-0.2-1.2-0.4c-0.3,1.2-0.6,2.4-1,4.1c-6.1,0.3-12.3,0.1-18.8,0.1c-1.3-4.1-0.3-8-0.7-12.1c2.1-0.4,3.8-0.7,5.7-1
		C380.7,325.3,380.7,310.3,380.7,295z M415.8,328.3c-0.4-1.2-0.8-3.7-1.9-5.9c-1.7-3.4-4.6-5.1-8.5-4.9c-3.7,0.2-6.4,1.9-7.8,5.3
		c-1.9,4.5-2,9,0.4,13.4c1.5,2.7,3.7,4.2,6.7,4.5C411.6,341.4,415.5,336.6,415.8,328.3z"/>
	<path fill="#DB2629" d="M434.5,369.1c1.1-1.7,1.9-2.9,2.7-4.1c1.4-1.8,2.9-3.6,4.4-5.5c1.9,1.2,3.6,2.3,5.3,3.2
		c3.7,1.8,6.8,0.7,8.6-3.1c0.8-1.7,2-3.5,1.3-5.5c-0.2-0.2-0.4-0.3-0.5-0.3c-6,0.9-7.9-2.8-9.4-7.7c-2.7-8.9-5.9-17.6-8.9-26.3
		c-0.2-0.6-0.6-1.2-0.9-1.9c-1.5-0.2-3-0.4-5-0.6c0-3.2-0.1-6.3,0-9.4c0.1-2.7,0.5-3.1,3.2-3.2c4.8-0.1,9.7,0,14.5,0c2,0,4,0,6.1,0
		c1.3,3.9,0.7,7.6,0.5,11.1c-0.1,0.9-1.7,1.7-3.1,3c1.6,6.1,3.3,12.6,5.1,19.2c0.4,1.4,1.2,2.4,3.1,1.7c0.4-0.9,0.9-1.9,1.3-3
		c1.9-6.2,3.8-12.3,5.7-18.7c-1.6-0.4-2.8-0.6-4.3-1c0-3.9,0-7.8,0-12.1c1.6-0.1,3-0.3,4.5-0.3c6.2,0,12.3-0.1,18.5,0
		c3.1,0,3.5,0.4,3.5,3.4c0,2.9-0.1,5.9-0.1,9.1c-1.9,0.2-3.3,0.4-4.9,0.6c-0.2,0.3-0.6,0.6-0.7,1c-5,13.7-10,27.4-14.9,41.1
		c-0.4,1.1-0.8,2.2-1.2,3.3c-5.3,13.6-19.1,17.6-30.8,8.8C437,371.2,436,370.3,434.5,369.1z"/>
	<path fill="#DB2629" d="M523.5,309c1.2-4,1.2-4,4.3-4.1c1.5,0,3,0,4.5,0.1c0.5,0,0.9,0.4,1.8,0.9c0,2.8,0,5.7,0,8.7
		c0,2.8,0,5.6,0,8.7c-4,0-7.6,0-11.5,0c-1.1-5-4.3-7.5-9.6-7.2c-2.7,0.1-4.4,1.1-4.8,2.8c-0.5,1.7,0.9,3.9,3.4,4.8
		c3.9,1.4,7.9,2.6,11.8,3.8c0.9,0.3,1.9,0.6,2.8,0.9c4.6,1.6,7.8,4.6,8.3,9.6c0.6,4.9-1,9.2-5.1,12.3c-4.2,3.2-9,4.2-14.1,3.7
		c-4.8-0.4-9.5-1.4-13.8-4.8c-0.4,1.6-0.6,2.7-0.9,4.1c-3.1,0-6.2,0-9.8,0c-1-5.8-0.6-11.6-0.2-17.7c3.8,0,7.2,0,11,0
		c0.6,0.9,1.4,2,2.2,3c2.2,2.8,8,4.6,11.3,3.5c1.4-0.5,3.1-1.1,2.9-2.9c-0.1-1.1-1.2-2.6-2.2-3c-2.6-1.1-5.3-1.7-8-2.6
		c-2.8-0.9-5.8-1.6-8.4-2.9c-5.6-2.8-7.8-7.8-6.5-13.7c0.9-3.8,2.8-7,6.1-9.4c5.7-4.2,16.3-4.4,22.1-0.3
		C521.9,307.7,522.6,308.2,523.5,309z"/>
	<path fill="#DB2629" d="M336.7,353.3c0-3.9,0-7.5,0-11.3c1.4-0.4,2.7-0.8,4.2-1.2c0-7.6,0-15.1,0-22.8c-1.2-0.3-2.5-0.6-3.7-0.8
		c-1.1-3.7-1.1-8.6,0.1-12.4c4.8,0,9.8,0,14.8,0c2.2,0,2.9,1.2,2.8,3.2c-0.1,2.8,0,5.6,0,9.7c1.3-2.1,2-3.1,2.7-4.2
		c3.9-6.6,10.4-8.4,17.3-9.4c1.5-0.2,2.7,0.9,2.7,2.4c0.1,4.4,0,8.9,0,13.8c-2.1,0-3.7,0-5.3,0c-2.9,0-5.6,0.2-8.2,1.6
		c-4.4,2.3-6.7,5.8-6.9,10.7c-0.1,2.6,0,5.2,0,7.8c5.5,1,5.5,1,5.5,6.3c0,2.1,0,4.2,0,6.2C358.6,353.8,344.5,354.1,336.7,353.3z"/>
	<path fill="#DB2629" d="M495.6,298.8c-1.5-5.1-4.6-6.4-8.6-6.2c-3,0.1-5.9,0-9.1,0c-1-4.5-0.3-8.7-0.3-12.8c0-0.7,1.4-2,2.3-2
		c4.3-0.2,8.6-0.3,12.9,0c3.7,0.3,5.9,3.2,6.1,7.3C499,289.7,497.8,293.9,495.6,298.8z"/>
</g>
</svg>
