<?xml version="1.0" encoding="utf-8"?>
<!-- Generator: Adobe Illustrator 18.1.1, SVG Export Plug-In . SVG Version: 6.00 Build 0)  -->
<svg version="1.0" id="Layer_1" xmlns:sketch="http://www.bohemiancoding.com/sketch/ns"
	 xmlns="http://www.w3.org/2000/svg" xmlns:xlink="http://www.w3.org/1999/xlink" x="0px" y="0px" viewBox="0 50.1 350 119.9"
	 enable-background="new 0 50.1 350 119.9" xml:space="preserve">
<title>delta</title>
<desc>Created with Sketch.</desc>
<g id="Welcome" sketch:type="MSPage">
	<g id="Desktop-HD---Why-Us" transform="translate(-107.000000, -893.000000)" sketch:type="MSArtboardGroup">
		<g id="delta" transform="translate(107.000000, 893.000000)" sketch:type="MSLayerGroup">
			<rect id="Rectangle-84" y="50.1" sketch:type="MSShapeGroup" fill="none" width="350" height="119.9">
			</rect>
		</g>
	</g>
</g>
<g>
	<g>
		<path fill="#8B2332" d="M81.9,115.5l20.6,9.9L81.9,93.6l-20.6,31.7L81.9,115.5z M59.6,129.2h44.5l-22.2-9.4L59.6,129.2z"/>
		<path fill="#D13239" d="M81.9,115.5V93.7l-20.6,31.7L81.9,115.5z M59.6,129.2h22.2v-9.4L59.6,129.2z"/>
		<path fill="#8B2332" d="M105.9,122.7c0.8,0,1.4,0.7,1.4,1.4c0,0.8-0.7,1.4-1.4,1.4c-0.8,0-1.4-0.7-1.4-1.4
			C104.4,123.3,105.1,122.7,105.9,122.7z M105.9,125.3c0.7,0,1.2-0.6,1.2-1.2c0-0.7-0.6-1.2-1.2-1.2c-0.7,0-1.2,0.6-1.2,1.2
			C104.6,124.9,105.2,125.3,105.9,125.3z M105.6,125h-0.2v-1.7h0.7c0.4,0,0.6,0.2,0.6,0.5s-0.2,0.5-0.4,0.5l0.5,0.8h-0.3l-0.5-0.8
			h-0.3L105.6,125L105.6,125z M105.6,124h0.3c0.2,0,0.5,0,0.5-0.3c0-0.2-0.2-0.3-0.4-0.3h-0.4L105.6,124L105.6,124z"/>
	</g>
	<g>
		<path fill="#003A70" d="M121.4,125.3h10c10.3,0,16.4-5.3,16.4-14.2c0-8.8-6.1-14.1-16.4-14.1h-10V125.3z M127.7,102h3.6
			c6.7,0,10,3.3,10,9.2c0,5.9-3.4,9.2-10,9.2h-3.6V102z"/>
		<polygon fill="#003A70" points="169.2,113.2 181.3,113.2 181.3,108.2 169.2,108.2 169.2,102 182.9,102 182.9,97.1 163,97.1 
			163,125.3 183.3,125.3 183.3,120.5 169.2,120.5 		"/>
		<polygon fill="#003A70" points="219.3,120.5 207.1,120.5 207.1,97.1 200.8,97.1 200.8,125.3 219.3,125.3 		"/>
		<polygon fill="#003A70" points="253.4,97.1 228,97.1 228,102 237.5,102 237.5,125.3 243.9,125.3 243.9,102 253.4,102 		"/>
		<path fill="#003A70" d="M290.2,125.3h-6.6l-2.8-7.1h-11.5l-2.8,7.1h-6.1L272.1,97l0,0h6.4L290.2,125.3z M278.9,113.5l-3.9-10.1
			l-3.9,10.1H278.9z"/>
	</g>
</g>
</svg>
