<?xml version="1.0" encoding="utf-8"?>
<!-- Generator: Adobe Illustrator 18.1.1, SVG Export Plug-In . SVG Version: 6.00 Build 0)  -->
<svg version="1.1" id="Layer_1" xmlns:sketch="http://www.bohemiancoding.com/sketch/ns"
	 xmlns="http://www.w3.org/2000/svg" xmlns:xlink="http://www.w3.org/1999/xlink" x="0px" y="0px" viewBox="0 -55 310 71.4"
	 enable-background="new 0 -55 310 71.4" xml:space="preserve">
<title>delta</title>
<desc>Created with Sketch.</desc>
<g id="Welcome" sketch:type="MSPage">
	<g id="Desktop-HD---Why-Us" transform="translate(-107.000000, -893.000000)" sketch:type="MSArtboardGroup">
		<g id="delta" transform="translate(107.000000, 893.000000)" sketch:type="MSLayerGroup">
			<rect id="Rectangle-84" y="58.3" sketch:type="MSShapeGroup" fill="none" width="25" height="8.6">
			</rect>
		</g>
	</g>
</g>
<g>
	<path fill="#EA2925" d="M73.2-51.8c-3.3,0-6.7,0-10,0c0,13.6,0,22.6,0,36.2c-4.4-13.4-8.6-22.2-13-36.2c-3.8,0-6.1,0-9.6,0
		c0,21.3,0,42.9,0,64.2c3.3-0.4,6.7-0.8,10-1.3c0-13.4,0-21.8,0-35.2C55.2-10.8,57.9-3,62.3,9.5c3.6-0.4,7.3-0.8,10.9-1.3
		C73.2-11.6,73.2-31.7,73.2-51.8"/>
	<path fill="#EA2925" d="M110.8-51.8c-9.4,0-18.6,0-27.8,0c0,19.7,0,39.5-0.2,59.2c9.4-0.8,18.6-1.5,28-2.1c0-2.9,0-7.1,0-9.8
		c-6.1,0.4-11.9,0.8-18,1.3c0-5.2,0-9.6,0-15.1c4.4,0,9.2,0,13.6,0c0-2.9,0-7.1,0-10c-4.4,0-9.2,0-13.6,0.2c0-5.2,0-8.2,0-13.6
		c2.7,0,5.4,0,8.2,0c0.4,0,1,0,1.5,0s1,0,1.5,0c2.3,0,4.6,0,6.9,0C110.8-44.7,110.8-48.9,110.8-51.8"/>
	<path fill="#EA2925" d="M148.5-51.8c-10.3,0-20.9,0-31.2,0c0,2.9,0,6.9,0,9.8c0.4,0,0.8,0,1.3,0c1.3,0,2.7,0,4,0s2.7,0,4,0
		c0.4,0,0.6,0,1,0c0,15.9,0,30.5,0,46.5c3.3-0.2,6.9-0.2,10-0.2c0-15.9,0-30.3,0-46c3.6,0,7.1,0,10.5,0
		C148.5-44.7,148.5-48.9,148.5-51.8"/>
	<path fill="#EA2925" d="M183-51.8c-9.4,0-18.6,0-28,0c0,18.6,0,37.2,0,55.9c1,0,2.1,0,3.3,0c2.3,0,4.6,0,6.7,0c0-8,0-15.1,0-23
		c0.6,0,1,0,1.7,0c1.3,0,2.7,0,4,0c1.3,0,2.7,0,4,0c1.5,0,2.7,0,4,0c0-2.9,0-7.1,0-9.8c-1.3,0-2.5,0-3.8,0c-1.5,0-2.7,0-4.2,0
		c-1.5,0-2.7,0-4.2,0c-0.4,0-1,0-1.5,0c0-5,0-8,0-13c1,0,2.1,0,3.3,0c1,0,2.3,0,3.3,0s2.3,0,3.3,0c2.7,0,5.4,0,8.2,0
		C183-44.7,183-48.9,183-51.8"/>
	<path fill="#EA2925" d="M189.5-51.8c0,18.8,0,37.5,0,56.3c9,0.4,18.4,0.6,27.4,1.3c0-2.9,0-7.1,0-9.8c-5.6-0.4-11.5-0.8-17.2-1
		c0-16.1,0-30.8,0-46.7C196.4-51.8,192.8-51.8,189.5-51.8"/>
	<path fill="#EA2925" d="M225.1-51.8c0,19.5,0,38.9,0.2,58.2c3.3,0.2,6.7,0.6,10,0.8c0-19.7,0-39.3,0-59
		C231.8-51.8,228.4-51.8,225.1-51.8"/>
	<path fill="#EA2925" d="M243.7-51.8c4,9.8,7.7,19.7,11.7,30.1c-4.2,10-8.6,19.9-12.8,29.5c3.6,0.4,7.1,0.8,10.7,1.3
		c2.5-6.3,4.8-10.9,7.3-17.4c2.5,6.7,4.8,11.9,7.3,19c3.6,0.4,8.2,1,11.5,1.7c-4.2-11.3-9-23.2-13.2-33.9c4.2-10,8.6-19.7,13-30.3
		c-3.6,0-7.3,0-11.1,0c-2.7,6.5-4.6,10.7-7.3,16.9c-2.5-6.5-4-10.7-6.5-16.9C251.2-51.8,247.5-51.8,243.7-51.8"/>
</g>
</svg>
