<?xml version="1.0" encoding="utf-8"?>
<!-- Generator: Adobe Illustrator 18.1.1, SVG Export Plug-In . SVG Version: 6.00 Build 0)  -->
<svg version="1.1" id="Layer_1" xmlns:sketch="http://www.bohemiancoding.com/sketch/ns"
	 xmlns="http://www.w3.org/2000/svg" xmlns:xlink="http://www.w3.org/1999/xlink" x="0px" y="0px" viewBox="0 674.4 2738 509.9"
	 enable-background="new 0 674.4 2738 509.9" xml:space="preserve">
<title>delta</title>
<desc>Created with Sketch.</desc>
<g id="Welcome" sketch:type="MSPage">
	<g id="Desktop-HD---Why-Us" transform="translate(-107.000000, -893.000000)" sketch:type="MSArtboardGroup">
		<g id="delta" transform="translate(107.000000, 893.000000)" sketch:type="MSLayerGroup">
			<rect id="Rectangle-84" y="1656.4" sketch:type="MSShapeGroup" fill="none" width="220.8" height="76">
			</rect>
		</g>
	</g>
</g>
<g>
	<path fill-rule="evenodd" clip-rule="evenodd" fill="#231F20" d="M631.5,794.4c72.8,0,121,54,121,133.9
		c0,79.9-49.3,135.1-121,135.1c-71.6,0-122.1-57.5-122.1-135.1C509.3,849.6,559.8,794.4,631.5,794.4L631.5,794.4z M631.5,1045.7
		c52.9,0,81-42.3,81-117.4c0-74-28.2-117.4-81-117.4c-52.8,0-82.2,43.5-82.2,115.1C549.3,1003.4,577.4,1045.7,631.5,1045.7
		L631.5,1045.7z"/>
	<path fill-rule="evenodd" clip-rule="evenodd" fill="#231F20" d="M1263.3,923.6c0,83.4-47,135.1-128,135.1h-82.2
		c0,0,2.3-82.2,2.3-130.4c0-47-2.3-130.4-2.3-130.4h94C1223.4,797.9,1263.3,841.4,1263.3,923.6L1263.3,923.6z M1224.5,924.7
		c0-70.5-32.9-110.4-96.3-110.4c-28.2,0-38.8,1.2-38.8,1.2s2.3,5.9,2.3,16.4c-1.2,22.3-1.2,64.6-1.2,96.3c0,35.2,1.2,71.6,1.2,94
		c0,11.7-2.3,18.8-2.3,18.8s10.6,1.2,34.1,1.2C1190.5,1042.2,1224.5,1001.1,1224.5,924.7L1224.5,924.7z"/>
	<path fill-rule="evenodd" clip-rule="evenodd" fill="#231F20" d="M2056,794.4c74,0,122.1,54,122.1,133.9
		c0,79.9-49.3,135.1-122.1,135.1c-71.6,0-121-57.5-121-135.1C1935.1,849.6,1984.4,794.4,2056,794.4L2056,794.4z M2056,1045.7
		c52.9,0,82.2-42.3,82.2-117.4c0-74-29.4-117.4-82.2-117.4c-52.8,0-81,43.5-81,115.1C1975,1003.4,2003.2,1045.7,2056,1045.7
		L2056,1045.7z"/>
	<path fill-rule="evenodd" clip-rule="evenodd" fill="#231F20" d="M279.1,967c0,63.4,3.5,91.6,3.5,91.6h-27c0,0,3.5-104.5,3.5-205.5
		c0-17.6-1.2-55.2-1.2-55.2h18.8c0,0,72.8,103.3,121,170.3c5.9,8.2,12.9,20,17.6,29.4c0,0-2.3-17.6-2.3-34.1v-74
		c0-65.8-3.5-91.6-3.5-91.6h27c0,0-3.5,96.3-3.5,206.7c0,10.6,1.2,54,1.2,54h-18.8c0,0-71.6-101-121-169.1
		c-7-10.6-11.7-17.6-16.4-27c0,0,1.2,22.3,1.2,34.1V967L279.1,967z"/>
	<path fill-rule="evenodd" clip-rule="evenodd" fill="#231F20" d="M1384.3,1045.7c30.5-1.2,52.8-27,48.2-55.2
		c-3.5-22.3-20-35.2-48.2-51.7c-36.4-20-57.5-35.2-61.1-70.5c-4.7-43.5,30.5-74,74-75.2c24.7-1.2,47,5.9,55.2,8.2v28.2
		c0,0-20-20-52.8-20c-23.5,0-48.2,14.1-48.2,39.9c0,22.3,18.8,34.1,49.3,52.8c42.3,24.7,63.4,44.6,63.4,81c0,47-37.6,79.9-83.4,79.9
		c-23.5,0-47-4.7-55.2-8.2v-30.5C1325.5,1024.6,1347.9,1046.9,1384.3,1045.7L1384.3,1045.7z"/>
	<path fill-rule="evenodd" clip-rule="evenodd" fill="#231F20" d="M1672,797.9v24.7c0,0-18.8-5.9-50.5-5.9h-16.4c0,0,0,7,0,16.4
		c0,0,0,47,0,59.9c0,72.8,3.5,165.6,3.5,165.6h-41.1c0,0,3.5-92.8,3.5-165.6c0-12.9-1.2-59.9-1.2-59.9c0-9.4,1.2-16.4,1.2-16.4
		h-17.6c-30.5,0-49.3,5.9-49.3,5.9v-24.7H1672L1672,797.9z"/>
	<path fill-rule="evenodd" clip-rule="evenodd" fill="#231F20" d="M2482.3,1058.6h-38.8c0,0-2.4-95.1-5.9-162.1c0-8.2,0-17.6,0-28.2
		c0,0-4.7,12.9-10.6,27l-71.6,170.3c0,0-39.9-91.6-71.6-160.9c-4.7-9.4-10.6-28.2-15.3-36.4c1.2,14.1,0,29.4-1.2,39.9
		c-4.7,68.1-5.9,150.3-5.9,150.3h-24.7l16.4-260.7h22.3c0,0,48.1,108,78.7,175c3.5,8.2,8.2,17.6,10.6,27c2.3-10.6,5.9-18.8,9.4-27
		c28.2-66.9,71.6-175,71.6-175h22.3L2482.3,1058.6L2482.3,1058.6z"/>
	<path fill-rule="evenodd" clip-rule="evenodd" fill="#231F20" d="M1881,859c0,35.2-21.1,58.7-59.9,68.1
		c24.7,45.8,75.2,131.5,75.2,131.5h-41.1c0,0-21.1-44.6-77.5-143.3h3.5c42.3,0,64.6-17.6,64.6-51.7c0-29.4-18.8-49.3-52.8-49.3
		c-10.6,0-25.8,1.2-25.8,1.2s2.4,5.9,2.4,22.3v133.9c0,58.7,2.3,86.9,2.3,86.9h-38.8c0,0,2.4-102.2,2.4-156.2
		c0-36.4-2.4-104.5-2.4-104.5h76.3C1856.4,797.9,1881,820.2,1881,859L1881,859z"/>
	<path fill-rule="evenodd" clip-rule="evenodd" fill="#231F20" d="M974.4,859c0,35.2-22.3,58.7-59.9,68.1
		c24.7,45.8,74,131.5,74,131.5h-41.1c0,0-21.1-44.6-77.5-143.3h4.7c41.1,0,63.4-17.6,63.4-51.7c0-29.4-18.8-49.3-52.9-49.3
		c-9.4,0-25.8,1.2-25.8,1.2s2.3,5.9,2.3,22.3v133.9c0,58.7,2.3,86.9,2.3,86.9h-38.8c0,0,3.5-102.2,3.5-156.2
		c0-36.4-3.5-104.5-3.5-104.5h77.5C948.6,797.9,974.4,820.2,974.4,859L974.4,859z"/>
</g>
</svg>
